<?xml version="1.0" encoding="utf-8"?>
<!-- Generator: Adobe Illustrator 23.0.6, SVG Export Plug-In . SVG Version: 6.00 Build 0)  -->
<svg version="1.1" baseProfile="tiny" xmlns="http://www.w3.org/2000/svg" xmlns:xlink="http://www.w3.org/1999/xlink" x="0px"
	 y="0px" viewBox="0 0 800 800" xml:space="preserve">
<g id="图层_2">
	<linearGradient id="SVGID_1_" gradientUnits="userSpaceOnUse" x1="363" y1="588.5012" x2="446" y2="588.5012">
		<stop  offset="0" style="stop-color:#C9A063"/>
		<stop  offset="1" style="stop-color:#B28247"/>
	</linearGradient>
	<path fill="url(#SVGID_1_)" d="M362,751V407h83v344c-2.1,2.4-17.2,19.2-42,19C378.7,769.8,364.2,753.5,362,751z"/>
</g>
<g id="图层_1">
	<linearGradient id="SVGID_2_" gradientUnits="userSpaceOnUse" x1="403.5" y1="545.0345" x2="403.5" y2="160.2413">
		<stop  offset="0" style="stop-color:#4DA34D"/>
		<stop  offset="0.2084" style="stop-color:#4DA550"/>
		<stop  offset="0.3694" style="stop-color:#4CAB5A"/>
		<stop  offset="0.5146" style="stop-color:#4BB66A"/>
		<stop  offset="0.6505" style="stop-color:#4AC582"/>
		<stop  offset="0.7799" style="stop-color:#48D8A0"/>
		<stop  offset="0.9026" style="stop-color:#46EFC4"/>
		<stop  offset="0.975" style="stop-color:#45FFDD"/>
	</linearGradient>
	<path fill="url(#SVGID_2_)" d="M400.6,164L191,505.5c0,0,98.2,48.4,209.6,48.4S616,505.5,616,505.5L400.6,164z"/>
	<linearGradient id="SVGID_3_" gradientUnits="userSpaceOnUse" x1="400" y1="312.2138" x2="400" y2="75.9055">
		<stop  offset="0" style="stop-color:#4DA34D"/>
		<stop  offset="0.1264" style="stop-color:#4CA956"/>
		<stop  offset="0.3353" style="stop-color:#4BB96F"/>
		<stop  offset="0.6005" style="stop-color:#49D398"/>
		<stop  offset="0.9091" style="stop-color:#46F7D0"/>
		<stop  offset="0.975" style="stop-color:#45FFDD"/>
	</linearGradient>
	<path fill="url(#SVGID_3_)" d="M398.2,78.2L269.5,287.9c0,0,60.3,29.7,128.7,29.7s132.3-29.7,132.3-29.7L398.2,78.2z"/>
</g>
</svg>
