<?xml version="1.0" encoding="utf-8"?>
<!-- Generator: Adobe Illustrator 23.0.6, SVG Export Plug-In . SVG Version: 6.00 Build 0)  -->
<svg version="1.1" id="图层_1" xmlns="http://www.w3.org/2000/svg" xmlns:xlink="http://www.w3.org/1999/xlink" x="0px" y="0px"
	 viewBox="0 0 800 800" style="enable-background:new 0 0 800 800;" xml:space="preserve">
<style type="text/css">
	.st0{opacity:0;fill:#727171;stroke:#4F7FE9;stroke-width:5;stroke-miterlimit:10;}
	.st1{fill:#727171;stroke:#4F7FE9;stroke-width:5;stroke-miterlimit:10;}
</style>
<g>
	<path class="st0" d="M485.89,653.18c5.16-0.61,9.53-0.91,12.83,3.58c1.85,2.52,4.3,4.64,6.69,6.69c1.05,0.9,2.62,1.62,3.98,1.66
		c6.11,0.18,12.23,0.2,18.34,0.02c2.77-0.08,4.72,0.79,6.69,2.76c24.58,24.71,49.24,49.34,73.94,73.93
		c0.99,0.98,2.51,1.99,3.79,2.01c4.97,0.09,9.94-0.38,14.91-0.29c1.63,0.03,3.65,0.69,4.78,1.8c8.77,8.53,17.39,17.2,25.98,25.9
		c1.39,1.41,2.77,2.05,4.78,2.02c7.85-0.11,15.7-0.13,23.54,0.03c1.42,0.03,3.11,0.78,4.16,1.75c3.74,3.45,7.21,7.2,10.9,10.71
		c0.97,0.93,2.32,1.94,3.56,2.04c7.17,0.59,14.4,1.57,21.53,1.12c6.03-0.38,12.06-2.15,17.86-4.03c4.58-1.48,4.54-3.22,0.77-6.12
		c-3.7-2.85-7.42-5.68-10.96-8.71c-12.31-10.51-24.47-21.17-35.27-33.31c-9.13-10.27-17.51-21.04-23.99-33.2
		c-11.73-21.99-14.74-45.77-14.36-70.23c0.06-3.76,0.54-7.52,0.46-11.28c-0.08-4.07-1.55-7.72-4.7-10.48
		c-1.82-1.59-3.61-1.99-5.52,0.15c-2.17,2.43-4.51,4.72-6.94,6.89c-0.57,0.51-2.29,0.71-2.68,0.3c-2.39-2.56-4.55-5.34-6.78-8.03
		c5.41-6.95,5.75-7.13,14.23-7.12c0.1,0,0.21,0.02,0.31,0c5.66-1.01,10.11,0.89,13.41,5.58c2.09,2.96,4.99,3.01,8.69,2.2
		c-7.95-11.02-17.45-18.98-31.92-20.74c2.5-4.79,4.71-9.01,6.92-13.24c-7.15,0-14.22,0-21.28,0c0,0.22-0.01,0.43-0.01,0.65
		c2.28,0,4.56,0,7.07,0c-0.27,3.01,1.14,6.06-2.43,7.52c-8.63,3.53-17.09,7.62-25.97,10.38c-6.53,2.03-13.58,2.45-20.43,3.34
		c-5.51,0.71-11.08,1.04-17.46,1.61c1.03,1.68,1.56,3.06,2.52,4.03c9.39,9.49,18.93,18.83,28.24,28.4c2.28,2.34,4.59,3.22,7.78,3.13
		c6.89-0.2,13.79-0.06,21.36-0.06c-0.99,1.25-1.66,2.28-2.52,3.13c-13.32,13.35-26.63,26.7-40.02,39.97
		c-1.5,1.49-2.11,2.97-2.06,5.07c0.13,5.81,0.06,11.62,0.03,17.43c0,0.84-0.15,1.68-0.23,2.51c-0.27,0.12-0.54,0.24-0.81,0.36
		c-1.53-1.77-2.95-3.64-4.59-5.29c-10.2-10.26-20.44-20.49-30.69-30.71c-3.24-3.23-6.07-7.58-10.01-9.21
		c-3.94-1.62-9.09-1.02-13.58-0.43c-7.85,1.03-13.78-1.44-18.42-7.75c-2.37-3.22-5.39-5.52-9.8-4.75c-0.1,0.02-0.25-0.26-0.68-0.74
		c2.68-2.6,5.32-5.28,8.1-7.79c1.72-1.55,2.42-3.26,2.41-5.61c-0.09-14.78-0.04-29.55-0.05-44.33c0-1.07-0.13-2.13-0.2-3.2
		c-0.27-0.14-0.54-0.28-0.81-0.41c-3.75,3.83-7.6,7.56-11.19,11.54c-1.03,1.15-1.78,2.97-1.83,4.5c-0.2,6.31,0.06,12.64-0.18,18.95
		c-0.07,1.71-0.93,3.76-2.11,4.99c-6.56,6.84-13.4,13.41-20,20.21c-1.97,2.04-4.02,2.33-6.94,1.65c0.9-0.98,1.53-1.73,2.21-2.42
		c5.54-5.55,10.98-11.23,16.7-16.59c2.82-2.63,4.1-5.34,3.95-9.29c-0.32-8.24-0.12-16.51-0.07-24.76c0.01-1.08,0.02-2.5,0.65-3.17
		c3.41-3.61,7.01-7.03,10.59-10.56c0.48,0.34,0.84,0.54,1.13,0.8c4.33,3.9,10.46,3.76,14.53-0.31c12.03-12.04,24-24.15,36.16-36.04
		c2.61-2.55,2.76-5.12,2.14-8.21c-13.74,0.03-26.1-5.24-39.25-8.74c1.73-2.32,3.46-5.39,5.69-5.81c7.57-1.42,15.3-2.02,22.99-2.69
		c3.52-0.31,7.1-0.05,10.85-0.05c0-11.54,0.04-22.84-0.07-34.15c-0.01-0.94-0.86-2.03-1.6-2.79c-4.63-4.73-9.34-9.4-14.04-14.07
		c-0.58-0.57-1.28-1.02-2.45-1.94c0,6.36-0.53,12.02,0.14,17.53c0.81,6.62-1.9,11.1-6.79,14.8c-0.83,0.63-2.05,1.34-2.95,1.19
		c-5.19-0.88-8.73,1.53-11.76,5.33c-1.01,1.27-2.18,2.45-3.45,3.46c-3,2.4-4.51,5.29-3.97,9.25c0.12,0.91-0.6,2.38-1.39,2.86
		c-1.32,0.81-3,1.03-4.88,1.6c0.78-1.5,1.94-2.67,1.84-3.72c-0.29-3.16,1.7-4.83,3.58-6.68c2.61-2.58,5.2-5.17,7.8-7.76
		c4.27-4.25,4.3-8.64,0.08-12.84c-1.01-1.01-2.22-1.88-3-3.04c-4.29-6.3-10.34-8.02-17.48-6.85c-1.31,0.21-2.85,0.66-3.74,1.55
		c-10.88,10.74-21.68,21.56-32.43,32.42c-0.78,0.78-1.57,2.17-1.42,3.14c0.58,3.76-1.29,6.11-3.86,8.35c-2,1.73-3.67,3.84-5.69,5.55
		c-2.22,1.88-2.85,4.06-2.94,6.93c-0.12,3.49,0.9,6.04,3.56,8.21c1.77,1.44,3.26,3.22,4.87,4.85c-0.31,0.28-0.61,0.56-0.92,0.84
		c-2.18-2.26-4.3-4.6-6.59-6.75c-0.82-0.77-2.07-1.5-3.13-1.51c-13.04-0.1-26.09-0.06-39.13-0.08c-2.32,0-3.18,0.96-3.06,3.37
		c0.91,18.58,1.72,37.16,2.56,55.74c0.37,8.14,0.83,16.28,1.04,24.43c0.07,2.72-0.33,5.48-0.79,8.17c-1.48,8.52-3.16,17-4.59,25.53
		c-0.34,2.05-0.6,4.46,0.13,6.29c4.39,10.95,8.89,21.86,13.73,32.62c3.38,7.52,8.21,14.06,14.42,19.66
		c9.16,8.25,18.02,16.83,27.03,25.26c2.49,2.33,9.95,2.29,12.34-0.09c4.56-4.52,9.17-9,13.56-13.67c0.99-1.05,1.61-2.81,1.69-4.28
		c0.23-4.17-0.01-8.36,0.14-12.53c0.04-1.21,0.48-2.69,1.26-3.56c5.97-6.58,12.97-11.74,21.44-14.71c1.31-0.46,2.65-0.82,4.72-1.45
		c-2.68-2.57-4.6-5.45-7.28-6.7c-2.65-1.23-6.07-0.81-8.84-1.08c0.38-2.37,0.82-4.02,0.88-5.68c0.12-3.15,0.04-6.32,0.04-9.48
		C485.89,666.03,485.89,659.72,485.89,653.18z M173.72,218.97c0.29-0.09,0.57-0.18,0.86-0.27c0-3.01-0.33-6.07,0.07-9.03
		c0.84-6.22-1-11.07-6.07-14.85c-1.07-0.8-1.95-2.43-2.11-3.78c-0.33-2.71-0.18-5.49-0.07-8.24c0.09-2.49,2.66-5.01,5.15-5.11
		c2.03-0.09,4.09,0.12,6.11-0.06c2.55-0.22,4.37,0.66,6.18,2.49c13.19,13.33,26.27,26.78,39.85,39.7c4.77,4.54,6.9,9.08,6.47,15.65
		c-0.29,4.44-0.78,8.19-4.63,10.82c-3.31,2.27-4.16,5.43-3.85,9.28c0.15,1.86,0.63,2.91,2.43,3.67c4.82,2.03,9.63,4.13,14.3,6.48
		c7.26,3.66,14.44,7.49,21.56,11.43c1.68,0.93,3.98,2.43,4.22,3.95c0.47,3.02,0.63,6.72-0.74,9.24c-2.3,4.23-5.53,8.15-9.05,11.49
		c-5.05,4.81-10.71,8.99-16.32,13.6c-7.57-10.26-14.2-20.35-19.24-31.43c-3.77-8.3-6.67-16.86-7.4-26
		c-0.48-6.03-2.93-8.59-8.97-8.41c-2.79,0.08-4.8-0.73-6.68-2.79c-3.09-3.38-6.35-6.63-9.75-9.69c-1.15-1.04-2.93-1.89-4.46-1.94
		c-6.72-0.21-13.45-0.11-20.17-0.08c-3.75,0.01-9.26,5.54-9.28,9.32c-0.03,7.24,0.41,14.5-0.13,21.7
		c-0.5,6.64,1.38,11.52,6.47,15.98c3.39,2.97,6.44,4.74,10.98,4.35c2.42-0.21,3.42-0.94,3.01-3.25c-0.77-4.31,1.11-7.3,4.28-10.01
		c3.2-2.75,6.05-5.9,9.16-8.98c7.6,7.6,14.78,14.97,22.2,22.08c2.5,2.39,3.44,4.82,3.46,8.25c0.02,3.66-2.7,5.02-4.56,7.14
		c-2.23,2.53-2.35,5.76-0.01,8.14c3.28,3.35,6.79,6.49,9.89,9.99c2.29,2.59,4.78,3.95,8.24,3.38c2.44-0.41,4.16,0.64,5.87,2.38
		c10.01,10.16,20.09,20.26,30.29,30.23c1.22,1.19,3.3,2.01,5.02,2.09c5.8,0.26,11.62,0.23,17.42,0.04c2.77-0.09,4.05,0.72,3.58,3.57
		c-0.49,3.03,0.91,5.11,3.02,7.19c9.89,9.71,20.11,19.15,29.27,29.5c6.24,7.05,12.93,10.41,22.23,8.98
		c8.51-1.31,16.58,0.78,24.33,4.17c2.75,1.2,5.32,2.81,8.11,4.3c1.38-3.2,3.8-3.78,6.83-3.64c4.45,0.21,8.92,0.05,13.38,0.05
		c-1.76-12.92,8.03-19.43,15.31-19.09c-0.7,1.78-1.34,3.47-2.04,5.14c-2.17,5.12-4.37,10.23-6.55,15.35c-1.71,4.01-0.44,5.92,4,5.95
		c5.4,0.04,10.81,0.13,16.2-0.08c1.45-0.06,3.11-0.83,4.24-1.79c2.4-2.04,4.7-4.26,6.71-6.68c2.42-2.91,5.19-4.06,9.02-3.82
		c5.38,0.33,10.8,0,16.2,0.12c2.2,0.05,3.81-0.57,5.39-2.17c10.24-10.37,20.58-20.64,30.88-30.94c0.68-0.68,1.3-1.44,2.24-2.48
		c-12.81-3.63-25.13-7.15-37.46-10.59c-2.25-0.63-4.16-0.13-5.67,2.03c-1.37,1.96-3.22,3.59-4.86,5.36
		c-0.88-0.49-1.5-0.84-2.11-1.18c-6.17-3.48-7.86-3.68-12.93,1.34c-5.62,5.57-10.54,11.84-15.85,17.73
		c-0.74,0.82-1.98,1.18-2.99,1.76c-0.13-0.24-0.25-0.48-0.38-0.71c5.07-5.83,8.06-12.82,9.86-20.68c1.4-6.11,3.65-12.02,5.35-18.07
		c0.26-0.92-0.02-2.4-0.65-3.08c-4.31-4.75-8.77-9.35-13.18-14c-0.48-0.51-1.25-1.03-1.31-1.6c-0.25-2.65-2.04-2.55-3.97-2.54
		c-15.9,0.03-31.8,0.11-47.69-0.06c-3.45-0.04-6.19,0.68-8.19,3.54c-5.22,7.44-12.24,10.34-21.27,8.92
		c-2.11-0.33-3.79-0.66-5.36-2.24c-15.37-15.47-30.84-30.84-46.16-46.36c-1.19-1.21-2.15-3.35-2.06-4.99c0.21-3.8-0.76-6.76-3.85-9
		c-1.99-1.44-2.55-3.41-2.49-5.85c0.15-6.01-0.03-12.02,0.08-18.04c0.04-2.2-0.61-3.83-2.2-5.39c-6.91-6.78-13.78-13.61-20.5-20.57
		c-1.06-1.1-1.83-2.97-1.86-4.5c-0.17-9.07,0.01-18.14-0.18-27.2c-0.03-1.62-0.81-3.63-1.94-4.78
		c-16.12-16.3-32.36-32.49-48.58-48.7c-0.56-0.56-1.18-1.04-2.12-1.85c-0.72,3.43-1.47,6.46-1.95,9.53
		c-0.35,2.27-1.27,3.08-3.64,2.68c-7.23-1.21-14.48-2.27-21.73-3.35c-7.31-1.1-14.63-2.16-22.07-3.26
		c-0.12,0.84-0.26,1.33-0.26,1.82c-0.01,13.96-0.05,27.92,0.07,41.88c0.01,1.22,0.87,2.69,1.77,3.61
		c7.92,8.07,15.94,16.05,23.95,24.04C172.34,217.83,173.05,218.38,173.72,218.97z M289.14,695.52c9.45,2.37,17.05,7.45,23.82,14
		c2.2,2.12,3.39,4.33,3.15,7.49c-0.26,3.45-0.26,6.94,0.03,10.38c0.14,1.66,0.86,3.56,1.95,4.78c3.27,3.63,6.94,6.89,10.28,10.46
		c1.54,1.64,2.73,1.93,4.57,0.49c12.5-9.79,25.11-19.46,37.56-29.31c2.74-2.17,5.02-4.93,6.84-6.75c-2.53-4.78-4.71-8.91-6.72-12.71
		c-1.33-0.68-2.95-0.99-3.67-1.97c-1.81-2.46-3.92-3.57-6.97-3.13c-2.39,0.35-3.8-0.86-3.63-3.29c0.32-4.53,0.84-9.05,1.26-13.57
		c0.12-1.28,0.57-2.74,0.14-3.83c-1.29-3.28-0.3-5.01,2.77-6.68c7.64-4.16,11.13-10.71,9.72-19.48c-1.18-7.33-2.35-14.66-3.88-21.92
		c-0.67-3.17-0.2-5.61,2.18-7.69c0.99-0.87,1.96-1.86,3.12-2.44c2.2-1.11,2.52-2.58,2.16-4.95c-1.51-9.85-3-19.72-4.03-29.64
		c-0.98-9.41-1.43-18.89-1.97-28.34c-0.13-2.21-0.81-3.1-3.09-2.96c-2.74,0.16-5.51,0.16-8.25,0c-2.23-0.13-3.88,0.55-5.37,2.22
		c-1.87,2.09-3.97,3.99-5.96,5.97c-0.23-0.24-0.46-0.49-0.69-0.73c2.19-2.22,4.46-4.37,6.55-6.68c0.76-0.84,1.43-2.01,1.58-3.1
		c0.63-4.52,0-8.59-4.16-11.55c-2.05-1.46-3.55-3.66-5.48-5.31c-1.94-1.65-2.72-3.5-2.68-6.09c0.02-1.51-0.72-3.42-1.78-4.51
		c-10.56-10.76-21.24-21.42-31.98-32.01c-0.96-0.95-2.59-1.43-3.99-1.67c-7.2-1.28-13.11,0.76-17.45,6.93
		c-1.15,1.64-2.87,2.88-4.29,4.35c-2.25,2.34-2.23,7.65,0.05,9.96c3.58,3.62,7.22,7.19,10.79,10.83c0.69,0.7,1.4,1.53,1.7,2.44
		c0.67,2.01,1.08,4.1,1.6,6.2c-0.97-0.29-2.45-0.45-3.58-1.17c-0.91-0.57-2.1-1.9-1.98-2.74c0.6-4.36-1.28-7.37-4.47-9.99
		c-1.88-1.55-3.64-3.3-5.17-5.19c-2.06-2.55-4.55-3.62-7.74-3.14c-2.67,0.4-4.73-0.57-6.39-2.66c-0.82-1.03-1.78-1.98-2.8-2.82
		c-1.73-1.41-2.3-3.13-2.26-5.35c0.12-6.32,0.05-12.64,0.03-18.95c0-1.06-0.13-2.11-0.25-3.88c-1.27,1.12-2.03,1.72-2.72,2.39
		c-2.97,2.94-5.66,6.24-8.94,8.77c-5.39,4.15-7.44,9.32-6.38,15.9c0.03,0.2,0.02,0.41,0,0.61c-0.16,1.64,0.53,2.27,2.15,2.99
		c4.25,1.88,8.3,4.21,12.35,6.51c0.92,0.52,1.61,1.56,2.21,2.48c1.88,2.9,0.88,5.48-2.4,6.24c-3.87,0.89-7.72,1.89-11.64,2.5
		c-2.29,0.35-2.73,1.41-2.71,3.45c0.09,6.72,0.15,13.45-0.02,20.18c-0.07,2.76,0.73,4.75,2.72,6.71
		c11.61,11.44,23.2,22.92,34.56,34.61c2.94,3.03,5.94,4.93,10.1,4.02c2.42-0.53,4.71-1.65,7.77-2.77c2.41,2.44,5.59,5.43,8.47,8.69
		c1.03,1.16,1.83,2.97,1.86,4.5c0.18,8.66,0.18,17.32,0.03,25.98c-0.05,2.86,0.7,4.95,2.82,6.97c6.05,5.76,11.87,11.76,17.77,17.68
		c0.68,0.68,1.3,1.43,2.17,2.39c-2.94,0.7-5,0.4-6.94-1.67c-4.11-4.38-8.09-9.02-12.8-12.68c-7.63-5.94-10.91-13.18-9.23-22.7
		c1.42-8.04-1.15-14.42-7.85-19.25c-2.06-1.48-3.67-3.57-5.96-5.85c-0.23,1.54-0.41,2.21-0.41,2.88
		c-0.02,15.49-0.06,30.98,0.07,46.47c0.01,1.33,0.87,2.9,1.8,3.93c2.71,2.97,5.66,5.72,8.52,8.56c-0.01,0.28-0.01,0.55-0.02,0.83
		c-6.12-1.73-8.73,2.83-12.07,6.06c-1.46,1.42-2.75,3.06-4.38,4.25c-1.21,0.89-2.81,1.65-4.27,1.72c-4.88,0.21-9.82,0.47-14.66-0.02
		c-5.41-0.55-9.03,1.52-12.76,5.26c-3.51,3.53-2.64,7.1-2.57,11.51c1.02-0.91,1.66-1.29,2.05-1.86c5.36-7.7,12.7-10.52,21.84-8.88
		c8.45,1.53,15.05-1.36,19.93-8.3c2.52-3.59,5.97-4.41,10.12-4.07c2.1,0.17,2.83,0.78,2.79,2.89c-0.1,6.11-0.09,12.23-0.02,18.34
		c0.05,4.39,0.27,8.77,0.43,13.75C297.91,686.76,292.65,689.1,289.14,695.52z M120.05,571.81c-0.41,0.18-0.81,0.35-1.22,0.53
		c-0.31,2.72-1.81,6.19-0.67,7.99c2.01,3.18,1.41,5.26-0.41,7.75c-0.18,0.24-0.32,0.53-0.42,0.81c-2.05,5.63-4.14,11.25-6.07,16.92
		c-0.19,0.57,0.38,1.8,0.95,2.16c1.62,1,1.26,1.74,0.41,3.16c-1.58,2.63-3.33,5.39-3.91,8.32c-0.67,3.38-0.08,7-0.16,10.51
		c-0.16,7.73-0.03,15.48-0.69,23.17c-0.67,7.72-1.67,15.47-3.36,23.02c-5.48,24.37-19.2,44.13-35.92,62.03
		c-13.64,14.6-28.68,27.67-44.33,40.06c-4.01,3.18-3.72,5.45,0.91,7.7c6.02,2.92,12.52,4.04,19.08,4.3
		c5.56,0.23,11.16-0.25,16.74-0.56c4.47-0.24,8.34-1.63,11.33-5.39c2.4-3.01,5.31-5.64,8.19-8.21c1.01-0.9,2.59-1.59,3.93-1.62
		c7.74-0.15,15.49-0.15,23.23-0.03c2.2,0.03,3.78-0.57,5.35-2.16c9.29-9.44,18.69-18.78,28.07-28.13c1.35-1.35,2.63-3.65,4.62-0.5
		c0.26,0.42,1.54,0.26,2.34,0.27c8.36,0.02,16.72,0.12,25.07-0.08c1.73-0.04,3.85-0.85,5.07-2.04c4.2-4.14,8.16-8.54,12.06-12.97
		c5-5.69,10.26-11.01,16.89-14.88c2.68-1.56,5.23-3.47,7.52-5.57c3.79-3.47,3.74-4.23,0.66-9.32c-0.83,0.78-1.64,1.5-2.4,2.26
		c-11.25,11.23-22.45,22.52-33.79,33.65c-1.15,1.13-3.13,1.91-4.75,1.96c-6.62,0.22-13.24,0.07-19.87,0.11
		c-1.73,0.01-3.47,0.2-5.38,0.32c1.89-4.52,5.39-6.95,9.55-6.95c2.75,0,5.52,0.16,8.25-0.07c1.28-0.11,2.8-0.65,3.69-1.52
		c6.21-6.03,12.35-12.15,18.36-18.38c0.93-0.96,1.55-2.62,1.57-3.97c0.15-7.54,0-15.08,0.12-22.62c0.03-2.01-0.63-3.38-2.02-4.77
		c-21.3-21.22-42.55-42.48-63.79-63.75c-0.88-0.88-1.6-1.91-1.92-2.29c2.93-2.65,5.44-5.02,8.07-7.24c1.02-0.86,2.32-1.88,3.54-1.95
		c4.16-0.24,8.35-0.13,12.53-0.06c0.75,0.01,1.64,0.29,2.22,0.75c2.28,1.84,4.46,3.81,7.64,6.56c-3.77,2.86-6.68,5.07-9.59,7.28
		c0.92,1.18,1.08,1.56,1.35,1.83c5.03,5.06,10.02,10.16,15.17,15.09c0.83,0.79,2.36,1.16,3.58,1.18c6.83,0.11,13.66,0.14,20.48-0.02
		c1.36-0.03,3.05-0.66,4.01-1.61c10.1-9.93,20.11-19.96,30.07-30.02c0.79-0.8,1.48-2,1.63-3.1c0.62-4.6,0.13-8.79-4.13-11.89
		c-2.36-1.72-4.32-4.03-6.29-6.23c-1.49-1.65-3.15-2.27-5.36-2.26c-11.62,0.08-23.24,0.12-34.85-0.06c-1.71-0.03-3.4-1.28-5.1-1.98
		c-1.6-0.66-3.18-1.86-4.8-1.91c-6.41-0.22-12.84,0-19.26-0.14c-2.41-0.05-4.24,0.53-5.93,2.35c-2.49,2.7-8.1,2.61-10.68-0.04
		C124.77,577.06,122.44,574.41,120.05,571.81z M570.64,163.15c-0.87,0.94-1.57,1.76-2.33,2.52c-8.2,8.22-16.38,16.48-24.66,24.61
		c-1.68,1.64-2.32,3.33-2.29,5.64c0.1,8.86,0.14,17.73-0.05,26.59c-0.03,1.62-0.83,3.58-1.94,4.75
		c-5.04,5.33-9.99,10.81-15.59,15.51c-5.48,4.6-8.18,9.79-6.94,16.9c0.47,2.7-0.71,3.54-3.4,3.43c-4.78-0.2-9.58-0.1-14.36-0.02
		c-2.58,0.04-5.47,2.78-4.44,4.13c1.55,2.02,3.01,4.32,6.27,4.17c4.47-0.21,8.96-0.09,13.45-0.01c0.79,0.01,2.1,0.4,2.24,0.88
		c0.24,0.84-0.03,2.01-0.47,2.83c-0.46,0.86-1.29,1.59-2.09,2.2c-2.8,2.16-4.19,4.85-3.57,8.45c0.39,2.29-0.57,3.98-2.23,5.63
		c-14.82,14.71-29.57,29.51-44.33,44.28c-0.82,0.82-1.59,1.7-2.57,2.77c1.22,0.57,2.01,1.01,2.84,1.33
		c9.03,3.44,18.03,6.95,27.11,10.25c3.7,1.35,7.75,1.84,11.32,3.44c6.58,2.95,13.21,5.03,20.53,4.6c2.19-0.13,3.82-0.68,5.37-2.25
		c9.6-9.71,19.37-19.25,28.87-29.05c2.55-2.62,5.11-4.16,8.76-3.57c2.22,0.36,3.82-0.55,5.35-2.17c3.49-3.7,7.19-7.22,10.78-10.83
		c2.81-2.83,2.89-6.04-0.02-8.76c-2.29-2.14-4.75-4.15-7.31-5.97c-10.06-7.12-20.22-14.09-30.27-21.21
		c-2.87-2.03-5.52-4.38-8.7-6.92c1.51-0.46,2.43-0.81,3.38-1.03c8.71-2.02,17.43-4.01,26.14-6.04c0.74-0.17,1.71-0.35,2.08-0.88
		c1.04-1.46,0.18-9.74-1.27-10.75c-6.21-4.28-7.67-10.28-6.68-17.29c0.1-0.7-0.18-1.49,0.05-2.12c0.61-1.72,0.99-3.79,2.18-5
		c13.37-13.57,27.11-26.79,40.22-40.6c4.44-4.68,8.96-6.89,15.17-5.95c0.3,0.05,0.71-0.11,0.9,0.04c1.72,1.4,4.69,2.72,4.86,4.31
		c0.56,5.27,1.8,11.05-3.92,14.91c-1.54,1.04-3.58,2.74-3.69,4.27c-0.43,5.82-0.18,11.69-0.18,17.99c0.88-0.53,1.35-0.71,1.68-1.03
		c8.51-8.49,17.04-16.96,25.46-25.55c0.8-0.81,1.2-2.34,1.22-3.55c0.11-6.82,0.06-13.65,0.06-20.48c0-2.39,0-4.78,0-7.64
		c-1.54,0.73-2.52,1.2-3.51,1.66c-8.45,4-16.63,8.85-25.99,10.32c-5.56,0.88-11.75,2.02-16.87,0.46c-6.9-2.11-13.03-6.7-19.87-10.44
		c2.73-1.32,5.41-1.74,6.5-3.29c5.35-7.55,12.61-9.5,21.24-8.25c0.1,0.01,0.21-0.02,0.3,0c4.77,1.04,7.4-1.34,8.88-5.56
		c0.1-0.29,0.26-0.55,0.39-0.83c1.31-2.69,1.27-5.21-0.59-7.71c-1.64-2.2-3.1-4.54-4.6-6.85c-2.14-3.28-1.7-7.78,0.99-10.48
		c1.01-1.01,1.94-2.11,3.04-3c1.68-1.35,2.35-2.99,1.95-5.08c-1.58-8.28-3.05-16.58-4.8-24.82c-0.77-3.59-2.12-7.06-3.21-10.58
		c-0.86,0.62-1.05,1.16-1.23,1.7c-2.29,6.71-3.98,13.71-6.99,20.08c-6.71,14.23-17.33,25.56-28.8,36.06
		c-6.45,5.91-13.28,11.41-19.97,17.06c-3.66,3.09-3.32,6.23,1.06,8.14c1.76,0.77,3.61,1.46,5.49,1.78
		C561.45,162.04,565.86,162.52,570.64,163.15z M399.67,433.78c-0.27,0.17-0.53,0.34-0.8,0.51c0,0.76-0.06,1.53,0.01,2.29
		c0.43,4.56,0.72,9.14,1.36,13.67c2.52,17.97,8.1,34.65,20.72,48.32c0.62,0.67,0.87,2.03,0.75,3c-1.38,10.75-5.08,20.59-11.89,29.12
		c-1.97,2.47-4.18,4.74-6.49,7.34c0.62,0.09,0.98,0.18,1.35,0.19c8.46,0.01,16.91,0.08,25.37-0.07c1.25-0.02,2.72-0.81,3.67-1.7
		c3.5-3.27,6.69-6.86,10.25-10.05c2.35-2.1,3.45-4.4,2.96-7.48c-0.42-2.64,0.65-4.55,2.56-6.41c8.38-8.19,17.09-16.11,24.74-24.94
		c6.02-6.95,12.65-10.29,21.68-8.74c0.2,0.03,0.43-0.05,0.61,0.02c1.35,0.54,3,0.78,3.98,1.71c4.58,4.34,8.98,8.89,13.46,13.34
		c1.2,1.19,2.46,2.31,4.23,3.96c2.26-2.51,4.19-4.9,6.38-7c1.68-1.61,2.35-3.32,2.33-5.65c-0.1-11.31-0.04-22.62-0.05-33.92
		c0-1.09-0.1-2.17-0.11-2.41c-3.24-1.75-5.87-3.16-8.5-4.58c0.15-0.3,0.3-0.6,0.45-0.91c2.62,0.99,5.25,1.97,8.14,3.06
		c0-13.37,0.03-26.4-0.07-39.43c-0.01-0.96-0.73-2.25-1.53-2.8c-5.94-4.15-7.61-9.88-6.58-16.73c0.11-0.7,0.01-1.42,0.01-2.14
		c0-5-2.13-7.88-6.94-9.3c-2.73-0.81-5.54-1.4-8.2-2.38c-2.25-0.83-3.72-0.29-5.37,1.38c-10.67,10.8-21.41,21.52-32.21,32.19
		c-0.99,0.98-2.64,2.13-3.81,1.96c-5.09-0.75-8.63,1.42-11.48,5.24c-1.95,2.62-4.48,3.68-7.69,3.17c-2.67-0.43-4.56,0.74-6.4,2.64
		c-6.6,6.79-13.36,13.44-20.07,20.12c-2.64,2.63-8.08,2.65-10.68,0.01C403.73,438.22,401.72,435.98,399.67,433.78z M147.55,439.06
		c6.62,6.55,12.91,12.64,19.01,18.92c1.06,1.09,1.82,2.95,1.87,4.49c0.2,6.51,0.01,13.04,0.15,19.56c0.03,1.28,0.57,2.86,1.44,3.76
		c3.66,3.82,6.95,8.68,11.48,10.76c4.07,1.87,9.58,0.59,14.46,0.7c0.2,0,0.41,0.03,0.61,0c6.58-1.07,11.88,0.83,15.85,6.39
		c1.24,1.74,11.29,2.65,13.05,1.44c0.47-0.32,0.78-0.92,1.05-1.45c2.32-4.58,6.15-6.98,11.16-7.45c2.05-0.19,2.51-1.17,2.46-2.98
		c-0.09-3.36-0.23-6.74,0.07-10.08c0.15-1.65,0.85-3.56,1.95-4.76c3.64-3.98,7.25-8.1,11.46-11.42c5.76-4.55,8.04-10,7.07-17.2
		c-0.29-2.15-0.77-3.79-2.33-5.33c-9.35-9.23-18.57-18.61-27.96-27.81c-1.92-1.88-2.7-3.79-2.61-6.43
		c0.17-4.88-0.44-9.84,0.16-14.66c0.93-7.5-1.29-13.32-7.47-17.59c-7.7-5.33-10.63-12.6-9.04-21.77c0.47-2.69-0.8-4.55-2.66-6.4
		c-16.05-15.94-32.02-31.96-48.01-47.95c-11.38-11.38-22.75-22.78-34.19-34.11c-0.72-0.72-2.53-1.54-2.87-1.24
		c-2.04,1.83-4.52,3.31-4.37,6.83c0.27,6.61-0.07,13.25,0.18,19.86c0.06,1.71,0.97,3.72,2.14,4.99c4.15,4.49,8.21,9.18,12.99,12.92
		c7.57,5.93,11.08,13.08,9.33,22.63c-0.04,0.2-0.06,0.43,0.01,0.61c0.61,1.52,0.88,3.4,1.94,4.5c6.58,6.81,13.05,13.79,20.15,20.04
		c5.11,4.5,7.61,9.34,6.72,16.15c-0.21,1.57,0.9,3.7,2.05,4.99c3.33,3.71,6.69,7.5,10.59,10.57c6.23,4.91,9.09,10.83,7.69,18.71
		c-0.53,2.98,0.87,3.74,3.74,3.8c12.63,0.26,24.56,3.29,35.47,9.83c1.67,1,3.24,2.18,5.2,3.51c-1.44,0.69-2.24,1.09-3.06,1.47
		c-9.06,4.19-18.06,8.46-25.92,14.78c-0.66,0.53-2.48,0.32-3.33-0.22c-11.29-7.26-23.41-10.78-36.89-8.64
		C161.4,434.86,154.42,435.59,147.55,439.06z M271.73,497.94c3.78-3.83,7.43-6.76,10.12-10.4c5.54-7.5,12.68-10.27,21.65-8.66
		c1.67,0.3,3.6,0.89,4.76,2.02c10.34,10.12,20.44,20.48,30.82,30.56c2.63,2.55,4.16,5.11,3.57,8.76c-0.36,2.22,0.54,3.85,2.17,5.36
		c2.98,2.77,6.16,5.46,8.6,8.67c3.81,5.03,8.73,4.04,13.8,3.73c0.08-0.85,0.18-1.45,0.19-2.05c0.21-17.42,0.43-34.84,0.61-52.26
		c0.01-1.21-0.19-2.43-0.41-3.63c-2.45-13.73-8.71-25.59-18.23-35.64c-4.11-4.34-5.29-9.84-6.14-15.14
		c-0.92-5.71-2.45-11.02-5.46-15.8c-1.72-2.73-4.26-4.95-8.14-4.17c-2.7,0.54-4.74-0.55-6.72-2.56
		c-10.71-10.9-21.56-21.66-32.38-32.46c-2.09-2.09-9.58-2.83-11.66-0.99c-4.81,4.26-9.68,8.46-7.99,16.11
		c1.29,5.83-0.97,10.38-5.68,14.02c-1.25,0.97-2.37,3.01-2.38,4.56c-0.14,26.08-0.11,52.17-0.06,78.25c0,1.05,0.25,2.35,0.89,3.09
		C266.1,492.15,268.76,494.81,271.73,497.94z M645.32,427.21c0.06,0.46,0.12,0.92,0.18,1.38c-1.62,0.58-3.3,1.03-4.85,1.77
		c-9.01,4.25-15.87,10.95-21.32,19.16c-0.97,1.45-1.98,1.82-3.7,1.92c-6.38,0.37-12.84,0.52-19.08,1.76
		c-11.26,2.23-22.32,5.46-33.57,7.71c-6.66,1.33-13.43,0.79-19.57-2.76c-2.9-1.68-5.38-3.8-7.2-7.12
		c26.4,0.03,48.89-12.18,73.34-20.22c-4.1-4-7.76-7.39-11.17-11.01c-0.99-1.06-1.73-2.76-1.8-4.21c-0.22-4.88-0.24-9.79,0-14.67
		c0.08-1.53,0.85-3.35,1.91-4.46c4.91-5.17,9.78-10.43,15.16-15.09c3.97-3.44,3.5-7.32,3-11.68c-0.97,0-1.78-0.11-2.55,0.02
		c-12.15,1.98-24.29,4.04-36.45,5.95c-5.53,0.87-10.46,2.74-13.73,7.51c-1.01,1.47-1.95,3.35-2,5.07
		c-0.22,7.43-0.16,14.88-0.05,22.31c0.04,2.31-0.61,4-2.29,5.64c-7.72,7.55-14.96,15.65-23.08,22.73
		c-5.96,5.19-8.68,10.91-7.31,18.56c0.27,1.48,0.82,3.18,1.83,4.22c5.21,5.45,10.54,10.78,15.97,16.01c1.83,1.76,2.76,3.54,2.6,6.14
		c-0.21,3.55-0.16,7.14,0.01,10.69c0.06,1.2,0.57,2.62,1.36,3.5c6.66,7.41,6.71,7.04,16.61,7.51c5.69,0.27,10.15-0.98,13.43-5.7
		c1.56-2.25,3.74-2.72,6.38-2.65c6.11,0.16,12.23,0.15,18.34-0.02c1.37-0.04,3-0.68,4.01-1.6c3.31-3.01,6.51-6.18,9.51-9.5
		c0.98-1.08,1.7-2.8,1.75-4.25c0.19-6.41-0.05-12.84,0.17-19.25c0.06-1.62,0.86-3.57,1.98-4.74c5.7-5.97,11.29-12.1,17.54-17.46
		c5.42-4.64,8.14-9.76,7.06-16.89c-0.18-1.2,0.38-3.11,1.28-3.77c4.51-3.31,5.43-7.72,4.88-12.89c-0.26-2.42,0.06-4.89-0.1-7.33
		c-0.07-1.04-0.42-2.29-1.1-3.01c-2.85-3.05-5.84-5.98-8.85-8.87c-0.53-0.51-1.42-0.89-2.15-0.9c-4.79-0.08-9.58-0.01-14.37-0.06
		c-1.64-0.02-1.99,0.76-2.1,2.24c-0.18,2.33,0.43,4.22,2.33,5.6c3.26,2.38,4.35,5.52,3.97,9.53c-0.33,3.53-0.2,7.13-0.02,10.69
		c0.11,2.35-0.64,4.05-2.37,5.61c-2.33,2.11-4.47,4.43-6.91,6.88C630.37,427.21,637.84,427.21,645.32,427.21z M723.54,153.21
		c-4.57,1.17-7.15,0.26-9.63-2.33c-7.41-7.71-15.12-15.13-22.59-22.78c-1.63-1.67-3.15-2.11-5.07-1.01
		c-4.66,2.66-9.38,5.23-13.86,8.17c-2.68,1.76-2.64,4.38-0.35,6.73c2.99,3.06,6.05,6.05,9.06,9.09c0.66,0.67,1.23,1.42,2.02,2.33
		c-7.89,1.2-7.89,1.2-13.51,6.84c-1.22,1.23-2.61,2.33-3.65,3.69c-2.96,3.92-6.7,5.28-11.63,4.91c-5.68-0.43-7.14,0.99-8.97,7.05
		c1.91,0,3.71,0.02,5.51,0c4.57-0.07,9.65,1.04,13.58-0.59c3.93-1.63,7.05-5.74,9.93-9.26c3.46-4.23,7.53-5.59,12.8-5.13
		c2.57,0.23,3.26,1.03,3.24,3.46c-0.1,10.29-0.09,20.58,0,30.86c0.02,2.35,0.52,4.69,0.89,7.85c-1.5,0.1-3.5,0.32-5.5,0.34
		c-4.87,0.06-11.01,4.38-13.24,10.01c7.08,0.38,13.88,0.74,21.13,1.12c-0.2,2.52-0.4,4.92-0.61,7.52c3.07,4.01,7.29,5.73,12.71,3.81
		c3.33-1.18,6.45-0.46,9.73,0.83c3.95,1.56,8.13,2.62,12.3,3.48c11.9,2.47,24.01,1.45,36.04,1.96c10.52,0.45,19.23-3.4,27.34-9.49
		c1.57-1.18,1.87-2.36,1.4-4.18c-1.6-6.14-5.72-10.47-10.28-14.45c-8.72-7.6-18.7-13.26-28.83-18.44c0-1.85,0.19-3.66-0.03-5.42
		c-1.16-9.37-5.17-17.51-11.09-24.73c-11.04-13.46-25.49-22.32-40.85-29.87c-1.54-0.76-3.62-0.41-5.45-0.57
		c-0.12,0.31-0.25,0.63-0.37,0.94C704.78,134.85,713.89,143.76,723.54,153.21z M224.2,515.58c0.9-3.84-1.53-3.8-4.13-3.79
		c-11.62,0.04-23.24,0.09-34.85-0.07c-1.62-0.02-3.62-0.8-4.78-1.92c-6.9-6.64-13.68-13.42-20.32-20.32
		c-1.11-1.16-1.87-3.14-1.91-4.77c-0.2-7.74-0.01-15.49-0.16-23.23c-0.03-1.37-0.62-3.06-1.54-4.03c-4.77-5.02-9.69-9.91-14.7-14.7
		c-0.72-0.69-2.47-1.07-3.34-0.68c-4.5,2-8.92,4.2-13.23,6.58c-0.9,0.49-1.62,2.02-1.7,3.13c-0.23,3.14-0.28,6.33,0,9.46
		c0.14,1.57,0.82,3.4,1.88,4.51c5.34,5.61,10.84,11.07,16.4,16.46c1.6,1.56,2.23,3.18,2.18,5.39c-0.13,6.01,0.06,12.03-0.09,18.04
		c-0.06,2.46,0.71,4.21,2.5,5.87c3.21,2.98,6.14,6.26,9.35,9.23c1.79,1.65,2.55,3.39,2.49,5.85c-0.17,6.11-0.19,12.23,0.04,18.34
		c0.06,1.63,0.81,3.61,1.93,4.76c7.58,7.83,15.39,15.45,23.03,23.24c1.57,1.6,3.2,2.19,5.4,2.18c11.41-0.08,22.83-0.04,34.24-0.04
		c6.32,0,9.07-2.72,9.07-8.96c0-2.75,0.17-5.52-0.05-8.25c-0.22-2.8,0.56-4.99,2.83-6.63c4.43-3.2,6.38-7.44,5.4-12.9
		c-0.02-0.1-0.02-0.21,0-0.3c1.17-6.76-1.11-12.01-6.64-16.08C230.51,519.75,228.78,515.9,224.2,515.58z M471.85,110.93
		c0.23,0.19,0.47,0.37,0.7,0.56c0.94-0.65,1.99-1.18,2.81-1.96c2.08-1.96,3.91-4.19,6.12-5.97c1.31-1.05,3.11-1.94,4.75-2.04
		c4.57-0.27,9.17-0.18,13.75-0.04c1.22,0.04,2.66,0.48,3.57,1.24c2.17,1.84,4.04,4.02,6.1,5.99c1.16,1.11,1.06,1.98-0.06,3.04
		c-2.14,2.03-4.13,4.24-6.31,6.22c-1.62,1.47-1.8,2.57-0.1,4.21c5.85,5.68,11.5,11.56,17.39,17.19c1.04,0.99,2.83,1.64,4.3,1.67
		c8.45,0.15,16.92,0.18,25.37-0.02c1.62-0.04,3.61-0.86,4.77-1.99c12.2-12,24.31-24.11,36.32-36.31c1.14-1.16,1.7-3.1,2.05-4.78
		c0.34-1.66,0.36-3.51,0-5.16c-0.38-1.77-0.99-3.75-2.15-5.04c-3.4-3.78-7.22-7.19-10.71-10.9c-1.75-1.85-3.61-2.59-6.17-2.57
		c-14.16,0.11-28.33-0.01-42.49,0.1c-2.56,0.02-4.6-0.55-6.13-2.61c-1.48-1.99-3.46-2.49-5.88-2.46
		c-7.54,0.12-15.08,0.18-22.62-0.02c-3.28-0.08-5.82,0.61-8.08,3.17c-2.59,2.93-9.64,2.71-12.44-0.07
		c-3.44-3.43-6.83-6.91-10.25-10.37C473.24,77.9,474.27,94.2,471.85,110.93z M611.94,513.46c2.43-1.47,4.78-3.42,7.48-4.41
		c7.8-2.88,15.72-5.47,23.65-7.98c1.87-0.59,2.68-1.3,2.6-3.32c-0.14-3.56-0.22-7.14,0.05-10.69c0.12-1.56,0.79-3.39,1.85-4.5
		c5.41-5.67,11.06-11.12,16.55-16.73c0.87-0.89,1.89-2.17,1.91-3.28c0.14-10.68,0.09-21.37,0.09-32.12c-3.17-0.9-5.64-0.74-8.09,1.8
		c-8.06,8.36-16.42,16.43-24.51,24.75c-1.12,1.16-1.92,3.13-1.96,4.75c-0.2,7.53-0.15,15.08-0.05,22.61
		c0.03,2.19-0.53,3.83-2.14,5.4c-6.78,6.62-13.36,13.44-20.19,20c-1.16,1.12-3.14,1.93-4.76,1.95c-11.71,0.16-23.43,0.08-35.14,0.11
		c-1.09,0-2.53-0.12-3.22,0.49c-2.7,2.38-5.17,5.04-7.89,7.75c5.96,1.49,11.47,2.87,17.6,4.4c-0.99,0.78-1.25,1.1-1.59,1.23
		c-7.36,2.94-14.75,5.82-22.07,8.84c-1,0.41-2.35,1.47-2.45,2.35c-0.59,5.35-0.61,10.65,4.85,13.97c0.51,0.31,1.03,0.77,1.28,1.29
		c0.75,1.56,1.8,3.16,1.93,4.8c0.29,3.64,0.07,7.33,0.1,10.99c0.03,3.86,3.26,7.1,7.12,7.11c12.12,0.02,24.25,0.08,36.37-0.08
		c1.62-0.02,3.6-0.85,4.76-1.98c7.9-7.66,15.67-15.45,23.34-23.33c1.06-1.1,1.82-2.96,1.87-4.49c0.2-6.51,0-13.04,0.17-19.55
		c0.03-1.35,0.71-2.97,1.64-3.97c3.39-3.66,7.01-7.1,10.52-10.65c0.64-0.65,1.19-1.38,1.78-2.08c-0.16-0.23-0.32-0.45-0.48-0.68
		c-2.96,1-5.93,1.94-8.87,3c-5.25,1.9-10.46,3.93-15.73,5.79C616.78,518.27,613.65,518.02,611.94,513.46z M602.33,645.89
		c-2.18-1.76-3.76-3.01-5.31-4.29c-13.67-11.37-26.8-23.22-35.52-39.11c-0.44-0.79-1.66-1.55-2.57-1.63
		c-12.77-1.05-25.56-1.98-38.34-2.95c-4.57-0.34-6.25-1.99-6.96-6.91c12.38-1.29,24.64-2.25,34.96,6.72
		c2.4-2.34,4.72-4.46,6.85-6.78c0.54-0.59,0.74-1.85,0.55-2.68c-2.21-9.49-2.88-19.06-2.25-28.8c0.17-2.61-0.48-5.52-1.59-7.91
		c-1.74-3.72-5.2-3.99-8.1-1.09c-9.8,9.79-19.61,19.57-29.38,29.39c-3.37,3.38-7.94,6.35-9.58,10.46c-1.69,4.23-0.63,9.63-0.47,14.5
		c0.05,1.45,0.77,3.15,1.74,4.25c2.48,2.83,5.41,5.26,7.89,8.08c2.07,2.36,4.39,3.47,7.49,3.01c2.62-0.39,4.58,0.59,6.43,2.55
		c4.62,4.88,9.89,9.2,14.1,14.39c5.15,6.36,11.17,9.31,19.26,7.85c3.81-0.69,6.73,0.72,8.95,3.77c2.8,3.85,6.6,5.58,11.32,5.23
		c1.66-0.12,3.8,0.17,4.87-0.74C591.03,649.49,595.77,646.76,602.33,645.89z M235.75,572.66c8.42-0.99,16.15-1.99,23.91-2.77
		c4.25-0.43,4.46-0.12,5.49,4.13c0.14,0.59,0.3,1.18,0.42,1.78c0.81,4.18,0.57,4.72-3.26,6.72c-7.98,4.16-16.59,5.41-25.44,5.29
		c-2.28-0.03-3.2,0.67-4.13,2.86c-2.69,6.33-5.27,12.85-8.98,18.59c-9.02,13.94-21.58,24.56-34.33,34.94
		c-1.36,1.11-3.17,3.27-2.85,4.42c0.42,1.53,2.53,3.05,4.24,3.68c7.49,2.72,15.22,2.21,22.92,0.92c0.82-0.14,1.79-0.72,2.25-1.4
		c4.27-6.34,10.34-7.89,17.48-6.89c1,0.14,2.1,0.25,3.04-0.03c1.65-0.49,3.58-0.91,4.74-2.03c6.75-6.49,13.39-13.11,19.91-19.85
		c2-2.06,4-3.33,6.91-2.87c2.97,0.47,5.22-0.63,7.22-2.91c3.08-3.51,7.7-6.27,9.31-10.3c1.66-4.14,0.66-9.42,0.49-14.19
		c-0.06-1.54-0.8-3.42-1.87-4.51c-12.52-12.69-25.24-25.18-37.7-37.93c-2.95-3.02-6.53-1.81-8.06,1.05
		c-0.84,1.57-1.55,3.42-1.62,5.17C235.62,562.01,235.75,567.5,235.75,572.66z M578.26,364.57c1.55-0.57,2.65-0.99,3.77-1.4
		c6.67-2.44,13.24-5.26,20.06-7.18c5.03-1.42,10.68-3.13,15.52-2.14c8.03,1.65,13.44-0.65,17.93-6.85c0.18-0.24,0.4-0.48,0.65-0.65
		c8.05-5.57,11.16-13.18,9.46-22.8c-0.39-2.23,0.66-3.8,2.22-5.33c6.84-6.7,13.59-13.48,20.31-20.29c0.82-0.83,1.87-1.95,1.89-2.96
		c0.16-7.84,0.13-15.68-0.01-23.51c-0.01-0.57-1.7-1.77-2.06-1.58c-5.24,2.65-11.34,4.5-15.38,8.44
		c-24.51,23.86-48.55,48.21-72.72,72.42c-0.69,0.69-1.53,1.62-1.57,2.48C578.16,356.85,578.26,360.49,578.26,364.57z M514.04,9.57
		c0,7.74-0.13,14.55,0.09,21.36c0.05,1.61,0.88,3.57,2.01,4.73c9.47,9.68,19.03,19.28,28.73,28.73c1.29,1.25,3.49,2.18,5.28,2.21
		c10.89,0.2,21.79,0.1,32.69,0.1c4.28,0,8.55,0.03,12.83-0.03c2.42-0.04,6.87-3.68,6.2-5.24c-1.98-4.55-2.6-9.72-7.16-13.09
		C577.76,35.8,559.5,25.65,539.79,18.2C531.55,15.08,523.07,12.57,514.04,9.57z M572.84,259.39c18.06,1.63,35.09,3.18,52.12,4.69
		c0.78,0.07,1.68,0.02,2.36-0.31c2.79-1.33,5.6-2.66,8.23-4.27c0.9-0.55,1.78-1.92,1.83-2.96c0.21-4.17,0.13-8.35,0.07-12.53
		c-0.05-3.31-5.75-8.92-9.05-8.93c-6.93-0.03-13.86-0.09-20.78,0.06c-1.26,0.03-2.78,0.69-3.71,1.55
		c-3.72,3.47-7.14,7.28-10.93,10.67c-1.28,1.15-3.28,1.66-5.04,2.1c-1.83,0.45-4.28-0.21-5.56,0.78
		C579.13,252.75,576.38,255.91,572.84,259.39z M135.74,406.16c0,2.04-0.03,4.08,0.01,6.11c0.07,4.25,2.96,6.54,7.14,5.74
		c2.6-0.5,5.2-0.95,7.81-1.4c7.42-1.3,7.61-1.3,7.36-8.84c-0.19-5.75-0.24-11.22,5.37-14.76c0.16-0.1,0.37-0.3,0.38-0.46
		c0.13-1.69,0.47-3.43,0.17-5.04c-0.09-0.46-2.06-0.75-3.18-0.8c-2.44-0.12-4.92,0.23-7.33-0.09c-4.89-0.65-8.27,1.27-11.74,4.69
		C137.41,395.56,134.04,399.69,135.74,406.16z M688.22,596.35c10.34-10.33,20.57-20.56,30.86-30.84c-4.15-5.2-8.56-10.53-16.79-8.74
		c-0.68,0.15-1.43,0.11-2.13,0.01c-2.15-0.31-3.13,0.72-3.63,2.71c-1.9,7.68-3.99,15.31-5.78,23.02
		C689.68,587.11,689.03,591.8,688.22,596.35z M571.66,228.58c0.08,0.25,0.16,0.51,0.23,0.76c3.6-0.52,7.47,2.02,10.8-1.28
		c7.75-7.66,15.43-15.41,23.12-23.13c0.6-0.6,1.1-1.3,2.11-2.53c-3.17,0.35-5.6,0.95-7.97,0.8c-2.58-0.17-4.15,0.97-5.79,2.64
		c-6.79,6.9-13.67,13.71-20.51,20.57C572.97,227.1,572.33,227.85,571.66,228.58z M439.98,44.71c3.81,5.44,3.86,5.23,9.5,6.45
		c3.02,0.65,5.95,1.97,8.72,3.37c1.92,0.97,3.51,2.6,5.98,4.5c0-2.88,0.05-4.96-0.01-7.04c-0.07-2.36-3.84-7.13-6.13-7.21
		C452.21,44.57,446.36,44.71,439.98,44.71z"/>
	<path class="st1" d="M485.89,653.18c0,6.55,0,12.85,0,19.15c0,3.16,0.09,6.32-0.04,9.48c-0.07,1.66-0.5,3.31-0.88,5.68
		c2.77,0.27,6.19-0.15,8.84,1.08c2.68,1.25,4.6,4.13,7.28,6.7c-2.06,0.63-3.41,0.99-4.72,1.45c-8.47,2.97-15.47,8.12-21.44,14.71
		c-0.79,0.87-1.22,2.34-1.26,3.56c-0.15,4.17,0.08,8.36-0.14,12.53c-0.08,1.47-0.7,3.23-1.69,4.28c-4.4,4.67-9,9.16-13.56,13.67
		c-2.4,2.37-9.85,2.42-12.34,0.09c-9.01-8.42-17.87-17-27.03-25.26c-6.21-5.6-11.04-12.14-14.42-19.66
		c-4.84-10.76-9.34-21.67-13.73-32.62c-0.73-1.83-0.47-4.24-0.13-6.29c1.43-8.53,3.11-17.01,4.59-25.53
		c0.47-2.69,0.86-5.45,0.79-8.17c-0.22-8.15-0.68-16.28-1.04-24.43c-0.84-18.58-1.65-37.16-2.56-55.74
		c-0.12-2.41,0.74-3.37,3.06-3.37c13.04,0.02,26.09-0.03,39.13,0.08c1.06,0.01,2.31,0.74,3.13,1.51c2.29,2.15,4.41,4.48,6.59,6.75
		c0.31-0.28,0.61-0.56,0.92-0.84c-1.61-1.63-3.1-3.41-4.87-4.85c-2.66-2.17-3.68-4.72-3.56-8.21c0.1-2.87,0.72-5.06,2.94-6.93
		c2.02-1.7,3.69-3.81,5.69-5.55c2.58-2.24,4.45-4.59,3.86-8.35c-0.15-0.96,0.65-2.35,1.42-3.14c10.75-10.87,21.55-21.69,32.43-32.42
		c0.9-0.88,2.43-1.33,3.74-1.55c7.14-1.17,13.2,0.55,17.48,6.85c0.79,1.16,1.99,2.03,3,3.04c4.21,4.2,4.18,8.58-0.08,12.84
		c-2.6,2.59-5.19,5.19-7.8,7.76c-1.88,1.86-3.87,3.52-3.58,6.68c0.1,1.06-1.06,2.23-1.84,3.72c1.88-0.57,3.56-0.79,4.88-1.6
		c0.78-0.48,1.51-1.95,1.39-2.86c-0.54-3.97,0.97-6.85,3.97-9.25c1.26-1.01,2.44-2.19,3.45-3.46c3.03-3.8,6.57-6.21,11.76-5.33
		c0.9,0.15,2.12-0.56,2.95-1.19c4.89-3.7,7.6-8.18,6.79-14.8c-0.67-5.51-0.14-11.17-0.14-17.53c1.18,0.92,1.88,1.36,2.45,1.94
		c4.7,4.67,9.4,9.33,14.04,14.07c0.74,0.75,1.59,1.84,1.6,2.79c0.11,11.3,0.07,22.61,0.07,34.15c-3.75,0-7.33-0.26-10.85,0.05
		c-7.69,0.67-15.42,1.27-22.99,2.69c-2.23,0.42-3.95,3.48-5.69,5.81c13.15,3.5,25.51,8.77,39.25,8.74c0.62,3.09,0.47,5.66-2.14,8.21
		c-12.17,11.9-24.13,24.01-36.16,36.04c-4.07,4.07-10.2,4.21-14.53,0.31c-0.29-0.26-0.65-0.46-1.13-0.8
		c-3.58,3.53-7.18,6.95-10.59,10.56c-0.63,0.67-0.64,2.09-0.65,3.17c-0.05,8.25-0.25,16.52,0.07,24.76
		c0.15,3.95-1.13,6.65-3.95,9.29c-5.73,5.36-11.16,11.03-16.7,16.59c-0.69,0.69-1.32,1.43-2.21,2.42c2.92,0.69,4.97,0.39,6.94-1.65
		c6.6-6.8,13.44-13.37,20-20.21c1.18-1.23,2.05-3.28,2.11-4.99c0.25-6.31-0.02-12.64,0.18-18.95c0.05-1.54,0.8-3.36,1.83-4.5
		c3.59-3.98,7.44-7.71,11.19-11.54c0.27,0.14,0.54,0.28,0.81,0.41c0.07,1.07,0.2,2.13,0.2,3.2c0.01,14.78-0.04,29.56,0.05,44.33
		c0.01,2.35-0.69,4.06-2.41,5.61c-2.78,2.51-5.42,5.19-8.1,7.79c0.43,0.48,0.58,0.75,0.68,0.74c4.41-0.76,7.43,1.53,9.8,4.75
		c4.64,6.3,10.57,8.77,18.42,7.75c4.49-0.59,9.64-1.2,13.58,0.43c3.93,1.62,6.76,5.98,10.01,9.21
		c10.25,10.21,20.49,20.44,30.69,30.71c1.64,1.65,3.07,3.52,4.59,5.29c0.27-0.12,0.54-0.24,0.81-0.36c0.08-0.84,0.22-1.68,0.23-2.51
		c0.02-5.81,0.1-11.62-0.03-17.43c-0.05-2.1,0.56-3.58,2.06-5.07c13.39-13.27,26.7-26.62,40.02-39.97c0.85-0.85,1.52-1.89,2.52-3.13
		c-7.57,0-14.47-0.14-21.36,0.06c-3.19,0.09-5.5-0.79-7.78-3.13c-9.3-9.57-18.85-18.91-28.24-28.4c-0.95-0.96-1.49-2.35-2.52-4.03
		c6.39-0.57,11.95-0.9,17.46-1.61c6.85-0.88,13.9-1.31,20.43-3.34c8.87-2.76,17.33-6.84,25.97-10.38c3.58-1.46,2.16-4.51,2.43-7.52
		c-2.5,0-4.79,0-7.07,0c0-0.22,0.01-0.43,0.01-0.65c7.07,0,14.13,0,21.28,0c-2.21,4.23-4.42,8.45-6.92,13.24
		c14.47,1.76,23.97,9.72,31.92,20.74c-3.7,0.8-6.6,0.75-8.69-2.2c-3.3-4.68-7.75-6.58-13.41-5.58c-0.1,0.02-0.2,0-0.31,0
		c-8.48,0-8.82,0.17-14.23,7.12c2.23,2.69,4.39,5.47,6.78,8.03c0.38,0.41,2.1,0.21,2.68-0.3c2.43-2.16,4.77-4.46,6.94-6.89
		c1.91-2.13,3.7-1.74,5.52-0.15c3.15,2.76,4.62,6.4,4.7,10.48c0.08,3.75-0.4,7.52-0.46,11.28c-0.38,24.46,2.62,48.24,14.36,70.23
		c6.49,12.16,14.86,22.93,23.99,33.2c10.79,12.14,22.96,22.79,35.27,33.31c3.55,3.03,7.27,5.86,10.96,8.71
		c3.77,2.9,3.81,4.64-0.77,6.12c-5.8,1.88-11.84,3.65-17.86,4.03c-7.13,0.45-14.36-0.53-21.53-1.12c-1.25-0.1-2.59-1.11-3.56-2.04
		c-3.69-3.51-7.16-7.26-10.9-10.71c-1.05-0.97-2.75-1.72-4.16-1.75c-7.84-0.17-15.69-0.14-23.54-0.03
		c-2.01,0.03-3.39-0.62-4.78-2.02c-8.59-8.7-17.21-17.38-25.98-25.9c-1.13-1.1-3.16-1.77-4.78-1.8c-4.97-0.09-9.94,0.38-14.91,0.29
		c-1.29-0.02-2.81-1.03-3.79-2.01c-24.69-24.6-49.35-49.23-73.94-73.93c-1.96-1.97-3.91-2.85-6.69-2.76
		c-6.11,0.18-12.23,0.15-18.34-0.02c-1.36-0.04-2.93-0.76-3.98-1.66c-2.39-2.05-4.84-4.17-6.69-6.69
		C495.42,652.27,491.06,652.57,485.89,653.18z"/>
	<path class="st1" d="M173.72,218.97c-0.67-0.59-1.38-1.14-2.01-1.77c-8-7.99-16.02-15.97-23.95-24.04
		c-0.9-0.92-1.76-2.39-1.77-3.61c-0.12-13.96-0.08-27.92-0.07-41.88c0-0.49,0.13-0.98,0.26-1.82c7.44,1.1,14.76,2.16,22.07,3.26
		c7.25,1.09,14.5,2.14,21.73,3.35c2.37,0.4,3.29-0.42,3.64-2.68c0.48-3.07,1.23-6.1,1.95-9.53c0.93,0.81,1.56,1.3,2.12,1.85
		c16.22,16.21,32.46,32.39,48.58,48.7c1.13,1.14,1.9,3.15,1.94,4.78c0.18,9.07,0,18.14,0.18,27.2c0.03,1.53,0.8,3.4,1.86,4.5
		c6.72,6.96,13.59,13.79,20.5,20.57c1.59,1.56,2.24,3.19,2.2,5.39c-0.11,6.01,0.06,12.03-0.08,18.04c-0.06,2.44,0.49,4.41,2.49,5.85
		c3.1,2.24,4.06,5.2,3.85,9c-0.09,1.64,0.87,3.78,2.06,4.99c15.32,15.52,30.79,30.88,46.16,46.36c1.57,1.58,3.26,1.91,5.36,2.24
		c9.02,1.42,16.05-1.47,21.27-8.92c2-2.86,4.74-3.57,8.19-3.54c15.9,0.17,31.79,0.09,47.69,0.06c1.93,0,3.71-0.11,3.97,2.54
		c0.05,0.57,0.83,1.09,1.31,1.6c4.41,4.66,8.87,9.26,13.18,14c0.62,0.69,0.9,2.17,0.65,3.08c-1.71,6.05-3.96,11.96-5.35,18.07
		c-1.8,7.86-4.79,14.85-9.86,20.68c0.13,0.24,0.25,0.48,0.38,0.71c1.01-0.57,2.25-0.94,2.99-1.76c5.31-5.89,10.23-12.16,15.85-17.73
		c5.07-5.02,6.76-4.83,12.93-1.34c0.61,0.35,1.23,0.69,2.11,1.18c1.64-1.77,3.48-3.4,4.86-5.36c1.51-2.16,3.42-2.66,5.67-2.03
		c12.34,3.44,24.65,6.96,37.46,10.59c-0.94,1.04-1.56,1.79-2.24,2.48c-10.3,10.31-20.64,20.58-30.88,30.94
		c-1.58,1.6-3.19,2.22-5.39,2.17c-5.4-0.12-10.82,0.21-16.2-0.12c-3.83-0.24-6.6,0.91-9.02,3.82c-2.01,2.42-4.3,4.64-6.71,6.68
		c-1.13,0.96-2.79,1.73-4.24,1.79c-5.39,0.21-10.8,0.11-16.2,0.08c-4.44-0.03-5.7-1.94-4-5.95c2.18-5.12,4.38-10.23,6.55-15.35
		c0.71-1.67,1.34-3.37,2.04-5.14c-7.28-0.34-17.07,6.17-15.31,19.09c-4.46,0-8.93,0.15-13.38-0.05c-3.03-0.14-5.45,0.44-6.83,3.64
		c-2.79-1.49-5.36-3.1-8.11-4.3c-7.75-3.38-15.82-5.48-24.33-4.17c-9.3,1.43-15.99-1.93-22.23-8.98
		c-9.17-10.36-19.39-19.79-29.27-29.5c-2.11-2.07-3.51-4.15-3.02-7.19c0.46-2.85-0.82-3.66-3.58-3.57
		c-5.8,0.19-11.62,0.22-17.42-0.04c-1.72-0.08-3.8-0.9-5.02-2.09c-10.2-9.97-20.28-20.07-30.29-30.23
		c-1.71-1.74-3.43-2.79-5.87-2.38c-3.45,0.58-5.94-0.79-8.24-3.38c-3.1-3.5-6.61-6.65-9.89-9.99c-2.34-2.38-2.21-5.61,0.01-8.14
		c1.86-2.12,4.59-3.48,4.56-7.14c-0.02-3.43-0.96-5.87-3.46-8.25c-7.43-7.11-14.6-14.48-22.2-22.08c-3.12,3.09-5.96,6.24-9.16,8.98
		c-3.17,2.72-5.05,5.7-4.28,10.01c0.41,2.3-0.59,3.04-3.01,3.25c-4.54,0.39-7.59-1.38-10.98-4.35c-5.08-4.46-6.96-9.34-6.47-15.98
		c0.54-7.19,0.1-14.46,0.13-21.7c0.02-3.78,5.53-9.31,9.28-9.32c6.73-0.02,13.45-0.12,20.17,0.08c1.52,0.05,3.3,0.9,4.46,1.94
		c3.4,3.07,6.66,6.32,9.75,9.69c1.88,2.05,3.9,2.87,6.68,2.79c6.04-0.18,8.49,2.38,8.97,8.41c0.73,9.14,3.63,17.71,7.4,26
		c5.03,11.08,11.67,21.17,19.24,31.43c5.6-4.62,11.26-8.79,16.32-13.6c3.51-3.34,6.74-7.26,9.05-11.49
		c1.37-2.52,1.22-6.23,0.74-9.24c-0.24-1.52-2.54-3.02-4.22-3.95c-7.11-3.94-14.3-7.76-21.56-11.43c-4.67-2.36-9.48-4.45-14.3-6.48
		c-1.8-0.76-2.27-1.81-2.43-3.67c-0.32-3.85,0.53-7.01,3.85-9.28c3.84-2.63,4.34-6.38,4.63-10.82c0.42-6.57-1.7-11.11-6.47-15.65
		c-13.58-12.92-26.66-26.36-39.85-39.7c-1.81-1.83-3.63-2.71-6.18-2.49c-2.02,0.18-4.08-0.03-6.11,0.06
		c-2.49,0.11-5.06,2.62-5.15,5.11c-0.1,2.75-0.25,5.53,0.07,8.24c0.16,1.35,1.04,2.98,2.11,3.78c5.07,3.78,6.91,8.63,6.07,14.85
		c-0.4,2.96-0.07,6.02-0.07,9.03C174.29,218.79,174.01,218.88,173.72,218.97z"/>
	<path class="st1" d="M289.14,695.52c3.52-6.42,8.78-8.77,14.99-7.73c-0.16-4.98-0.38-9.36-0.43-13.75
		c-0.07-6.11-0.09-12.23,0.02-18.34c0.04-2.11-0.69-2.71-2.79-2.89c-4.16-0.34-7.6,0.48-10.12,4.07c-4.88,6.94-11.48,9.83-19.93,8.3
		c-9.13-1.65-16.47,1.18-21.84,8.88c-0.39,0.56-1.04,0.95-2.05,1.86c-0.07-4.4-0.94-7.98,2.57-11.51c3.72-3.74,7.35-5.81,12.76-5.26
		c4.84,0.49,9.78,0.23,14.66,0.02c1.46-0.06,3.06-0.83,4.27-1.72c1.62-1.19,2.91-2.84,4.38-4.25c3.34-3.23,5.95-7.79,12.07-6.06
		c0.01-0.28,0.01-0.55,0.02-0.83c-2.86-2.84-5.81-5.59-8.52-8.56c-0.94-1.03-1.79-2.6-1.8-3.93c-0.12-15.49-0.08-30.98-0.07-46.47
		c0-0.67,0.18-1.34,0.41-2.88c2.29,2.28,3.91,4.37,5.96,5.85c6.7,4.82,9.26,11.2,7.85,19.25c-1.68,9.52,1.6,16.76,9.23,22.7
		c4.71,3.66,8.69,8.3,12.8,12.68c1.95,2.08,4.01,2.37,6.94,1.67c-0.87-0.96-1.49-1.71-2.17-2.39c-5.9-5.92-11.73-11.91-17.77-17.68
		c-2.12-2.02-2.88-4.11-2.82-6.97c0.16-8.66,0.15-17.33-0.03-25.98c-0.03-1.53-0.84-3.33-1.86-4.5c-2.88-3.26-6.06-6.25-8.47-8.69
		c-3.07,1.12-5.35,2.24-7.77,2.77c-4.16,0.91-7.16-0.99-10.1-4.02c-11.36-11.7-22.95-23.17-34.56-34.61
		c-1.99-1.96-2.79-3.94-2.72-6.71c0.17-6.72,0.12-13.45,0.02-20.18c-0.03-2.04,0.42-3.1,2.71-3.45c3.91-0.6,7.77-1.6,11.64-2.5
		c3.28-0.76,4.28-3.34,2.4-6.24c-0.6-0.93-1.29-1.96-2.21-2.48c-4.05-2.3-8.1-4.64-12.35-6.51c-1.62-0.72-2.31-1.34-2.15-2.99
		c0.02-0.2,0.03-0.41,0-0.61c-1.06-6.58,0.99-11.75,6.38-15.9c3.28-2.53,5.97-5.83,8.94-8.77c0.68-0.68,1.44-1.28,2.72-2.39
		c0.12,1.76,0.24,2.82,0.25,3.88c0.02,6.32,0.09,12.64-0.03,18.95c-0.04,2.22,0.53,3.94,2.26,5.35c1.02,0.83,1.98,1.78,2.8,2.82
		c1.66,2.09,3.72,3.06,6.39,2.66c3.19-0.48,5.69,0.59,7.74,3.14c1.53,1.89,3.29,3.65,5.17,5.19c3.2,2.63,5.07,5.63,4.47,9.99
		c-0.11,0.83,1.07,2.16,1.98,2.74c1.14,0.71,2.62,0.88,3.58,1.17c-0.53-2.1-0.94-4.19-1.6-6.2c-0.3-0.91-1.01-1.74-1.7-2.44
		c-3.57-3.64-7.21-7.2-10.79-10.83c-2.29-2.32-2.31-7.63-0.05-9.96c1.41-1.47,3.13-2.71,4.29-4.35c4.34-6.17,10.25-8.21,17.45-6.93
		c1.4,0.25,3.03,0.73,3.99,1.67c10.74,10.58,21.42,21.24,31.98,32.01c1.06,1.08,1.8,2.99,1.78,4.51c-0.04,2.59,0.73,4.43,2.68,6.09
		c1.93,1.65,3.43,3.85,5.48,5.31c4.16,2.97,4.78,7.03,4.16,11.55c-0.15,1.1-0.82,2.26-1.58,3.1c-2.09,2.31-4.35,4.46-6.55,6.68
		c0.23,0.24,0.46,0.49,0.69,0.73c2-1.98,4.09-3.88,5.96-5.97c1.49-1.67,3.14-2.35,5.37-2.22c2.74,0.16,5.51,0.17,8.25,0
		c2.28-0.14,2.96,0.75,3.09,2.96c0.54,9.45,0.99,18.93,1.97,28.34c1.03,9.91,2.52,19.78,4.03,29.64c0.36,2.37,0.04,3.85-2.16,4.95
		c-1.16,0.58-2.12,1.57-3.12,2.44c-2.38,2.08-2.85,4.52-2.18,7.69c1.53,7.26,2.7,14.59,3.88,21.92c1.42,8.77-2.07,15.32-9.72,19.48
		c-3.06,1.67-4.05,3.4-2.77,6.68c0.43,1.09-0.02,2.55-0.14,3.83c-0.41,4.53-0.93,9.04-1.26,13.57c-0.17,2.44,1.23,3.64,3.63,3.29
		c3.05-0.44,5.16,0.66,6.97,3.13c0.72,0.98,2.34,1.29,3.67,1.97c2.01,3.79,4.19,7.93,6.72,12.71c-1.82,1.82-4.1,4.58-6.84,6.75
		c-12.45,9.85-25.06,19.52-37.56,29.31c-1.84,1.44-3.03,1.15-4.57-0.49c-3.34-3.57-7.01-6.83-10.28-10.46
		c-1.1-1.22-1.81-3.12-1.95-4.78c-0.29-3.44-0.29-6.94-0.03-10.38c0.24-3.16-0.96-5.37-3.15-7.49
		C306.18,702.98,298.58,697.89,289.14,695.52z"/>
	<path class="st1" d="M120.05,571.81c2.39,2.6,4.72,5.26,7.18,7.78c2.58,2.65,8.19,2.73,10.68,0.04c1.68-1.82,3.51-2.4,5.93-2.35
		c6.42,0.14,12.84-0.08,19.26,0.14c1.62,0.06,3.2,1.25,4.8,1.91c1.7,0.7,3.39,1.95,5.1,1.98c11.61,0.18,23.23,0.14,34.85,0.06
		c2.22-0.02,3.88,0.61,5.36,2.26c1.98,2.19,3.93,4.51,6.29,6.23c4.26,3.1,4.76,7.28,4.13,11.89c-0.15,1.1-0.83,2.3-1.63,3.1
		c-9.97,10.06-19.97,20.09-30.07,30.02c-0.96,0.94-2.64,1.57-4.01,1.61c-6.82,0.16-13.65,0.13-20.48,0.02
		c-1.22-0.02-2.75-0.39-3.58-1.18c-5.15-4.94-10.14-10.04-15.17-15.09c-0.27-0.27-0.43-0.65-1.35-1.83
		c2.91-2.21,5.82-4.42,9.59-7.28c-3.18-2.75-5.36-4.71-7.64-6.56c-0.57-0.46-1.46-0.74-2.22-0.75c-4.18-0.07-8.36-0.18-12.53,0.06
		c-1.22,0.07-2.52,1.08-3.54,1.95c-2.64,2.22-5.14,4.59-8.07,7.24c0.32,0.38,1.04,1.41,1.92,2.29
		c21.24,21.27,42.49,42.53,63.79,63.75c1.4,1.39,2.06,2.76,2.02,4.77c-0.11,7.54,0.03,15.08-0.12,22.62
		c-0.03,1.35-0.65,3.01-1.57,3.97c-6.02,6.23-12.15,12.35-18.36,18.38c-0.9,0.87-2.41,1.42-3.69,1.52c-2.73,0.23-5.5,0.07-8.25,0.07
		c-4.16,0-7.66,2.44-9.55,6.95c1.92-0.12,3.65-0.31,5.38-0.32c6.62-0.04,13.25,0.11,19.87-0.11c1.62-0.05,3.6-0.84,4.75-1.96
		c11.34-11.14,22.54-22.42,33.79-33.65c0.76-0.76,1.57-1.48,2.4-2.26c3.08,5.09,3.13,5.84-0.66,9.32c-2.29,2.1-4.84,4-7.52,5.57
		c-6.63,3.87-11.89,9.19-16.89,14.88c-3.9,4.43-7.86,8.83-12.06,12.97c-1.21,1.19-3.34,2-5.07,2.04c-8.35,0.21-16.71,0.1-25.07,0.08
		c-0.81,0-2.08,0.15-2.34-0.27c-1.99-3.15-3.27-0.85-4.62,0.5c-9.38,9.35-18.78,18.69-28.07,28.13c-1.57,1.59-3.15,2.2-5.35,2.16
		c-7.74-0.12-15.49-0.12-23.23,0.03c-1.34,0.03-2.92,0.72-3.93,1.62c-2.88,2.58-5.8,5.2-8.19,8.21c-2.99,3.76-6.86,5.14-11.33,5.39
		c-5.58,0.3-11.18,0.78-16.74,0.56c-6.56-0.27-13.06-1.38-19.08-4.3c-4.63-2.25-4.92-4.52-0.91-7.7
		c15.65-12.39,30.69-25.46,44.33-40.06c16.72-17.91,30.44-37.66,35.92-62.03c1.7-7.55,2.7-15.3,3.36-23.02
		c0.66-7.69,0.53-15.44,0.69-23.17c0.07-3.51-0.51-7.13,0.16-10.51c0.58-2.93,2.33-5.69,3.91-8.32c0.85-1.42,1.21-2.16-0.41-3.16
		c-0.57-0.35-1.15-1.59-0.95-2.16c1.93-5.67,4.02-11.29,6.07-16.92c0.1-0.28,0.24-0.57,0.42-0.81c1.82-2.5,2.43-4.57,0.41-7.75
		c-1.14-1.8,0.36-5.27,0.67-7.99C119.24,572.16,119.65,571.98,120.05,571.81z"/>
	<path class="st1" d="M570.64,163.15c-4.77-0.63-9.19-1.12-13.55-1.85c-1.88-0.31-3.73-1.01-5.49-1.78
		c-4.38-1.91-4.72-5.05-1.06-8.14c6.69-5.65,13.52-11.15,19.97-17.06c11.47-10.5,22.09-21.83,28.8-36.06
		c3.01-6.37,4.7-13.37,6.99-20.08c0.18-0.54,0.37-1.08,1.23-1.7c1.09,3.52,2.44,6.99,3.21,10.58c1.76,8.24,3.23,16.54,4.8,24.82
		c0.4,2.09-0.28,3.73-1.95,5.08c-1.1,0.89-2.04,1.99-3.04,3c-2.7,2.7-3.13,7.2-0.99,10.48c1.5,2.3,2.96,4.64,4.6,6.85
		c1.86,2.5,1.9,5.03,0.59,7.71c-0.13,0.27-0.29,0.54-0.39,0.83c-1.48,4.22-4.11,6.6-8.88,5.56c-0.1-0.02-0.2,0.01-0.3,0
		c-8.63-1.24-15.89,0.71-21.24,8.25c-1.1,1.54-3.77,1.97-6.5,3.29c6.84,3.73,12.97,8.33,19.87,10.44c5.12,1.56,11.3,0.42,16.87-0.46
		c9.36-1.48,17.54-6.32,25.99-10.32c0.98-0.47,1.97-0.93,3.51-1.66c0,2.86,0,5.25,0,7.64c0,6.83,0.06,13.65-0.06,20.48
		c-0.02,1.21-0.42,2.73-1.22,3.55c-8.42,8.58-16.95,17.06-25.46,25.55c-0.32,0.32-0.79,0.5-1.68,1.03c0-6.29-0.26-12.17,0.18-17.99
		c0.11-1.52,2.15-3.22,3.69-4.27c5.71-3.86,4.47-9.64,3.92-14.91c-0.17-1.6-3.14-2.91-4.86-4.31c-0.19-0.15-0.6,0.01-0.9-0.04
		c-6.21-0.94-10.73,1.27-15.17,5.95c-13.11,13.81-26.85,27.03-40.22,40.6c-1.2,1.21-1.57,3.28-2.18,5
		c-0.23,0.63,0.05,1.43-0.05,2.12c-0.98,7.01,0.47,13.01,6.68,17.29c1.45,1,2.31,9.28,1.27,10.75c-0.37,0.53-1.34,0.71-2.08,0.88
		c-8.71,2.03-17.43,4.02-26.14,6.04c-0.95,0.22-1.87,0.57-3.38,1.03c3.17,2.54,5.83,4.88,8.7,6.92
		c10.06,7.12,20.21,14.09,30.27,21.21c2.56,1.81,5.02,3.82,7.31,5.97c2.91,2.72,2.83,5.92,0.02,8.76
		c-3.59,3.62-7.28,7.13-10.78,10.83c-1.53,1.62-3.13,2.53-5.35,2.17c-3.66-0.59-6.22,0.95-8.76,3.57
		c-9.51,9.8-19.28,19.34-28.87,29.05c-1.56,1.57-3.18,2.12-5.37,2.25c-7.32,0.43-13.95-1.65-20.53-4.6
		c-3.57-1.6-7.62-2.09-11.32-3.44c-9.08-3.3-18.08-6.81-27.11-10.25c-0.83-0.32-1.62-0.75-2.84-1.33c0.99-1.07,1.75-1.95,2.57-2.77
		c14.76-14.78,29.51-29.57,44.33-44.28c1.66-1.65,2.63-3.34,2.23-5.63c-0.62-3.61,0.77-6.29,3.57-8.45c0.8-0.62,1.63-1.34,2.09-2.2
		c0.44-0.83,0.71-1.99,0.47-2.83c-0.14-0.48-1.45-0.87-2.24-0.88c-4.48-0.08-8.97-0.2-13.45,0.01c-3.26,0.15-4.72-2.14-6.27-4.17
		c-1.03-1.34,1.86-4.09,4.44-4.13c4.79-0.08,9.58-0.17,14.36,0.02c2.68,0.11,3.87-0.73,3.4-3.43c-1.24-7.11,1.46-12.3,6.94-16.9
		c5.6-4.7,10.55-10.18,15.59-15.51c1.11-1.17,1.91-3.13,1.94-4.75c0.19-8.86,0.15-17.73,0.05-26.59c-0.03-2.31,0.62-3.99,2.29-5.64
		c8.29-8.13,16.46-16.39,24.66-24.61C569.07,164.91,569.77,164.1,570.64,163.15z"/>
	<path class="st1" d="M399.67,433.78c2.05,2.2,4.05,4.45,6.16,6.59c2.6,2.64,8.04,2.61,10.68-0.01
		c6.72-6.68,13.47-13.33,20.07-20.12c1.85-1.9,3.73-3.06,6.4-2.64c3.21,0.51,5.74-0.55,7.69-3.17c2.85-3.82,6.39-5.99,11.48-5.24
		c1.16,0.17,2.81-0.98,3.81-1.96c10.8-10.67,21.54-21.39,32.21-32.19c1.65-1.67,3.12-2.21,5.37-1.38c2.66,0.98,5.47,1.57,8.2,2.38
		c4.81,1.43,6.93,4.3,6.94,9.3c0,0.71,0.09,1.44-0.01,2.14c-1.03,6.85,0.63,12.58,6.58,16.73c0.8,0.56,1.52,1.85,1.53,2.8
		c0.1,13.03,0.07,26.06,0.07,39.43c-2.89-1.09-5.52-2.08-8.14-3.06c-0.15,0.3-0.3,0.6-0.45,0.91c2.63,1.42,5.26,2.83,8.5,4.58
		c0.01,0.24,0.11,1.33,0.11,2.41c0.01,11.31-0.05,22.62,0.05,33.92c0.02,2.33-0.65,4.04-2.33,5.65c-2.2,2.1-4.12,4.49-6.38,7
		c-1.76-1.65-3.03-2.77-4.23-3.96c-4.48-4.45-8.87-9-13.46-13.34c-0.99-0.93-2.63-1.17-3.98-1.71c-0.18-0.07-0.41,0.02-0.61-0.02
		c-9.04-1.55-15.66,1.79-21.68,8.74c-7.65,8.83-16.37,16.75-24.74,24.94c-1.91,1.87-2.97,3.77-2.56,6.41
		c0.49,3.08-0.61,5.38-2.96,7.48c-3.56,3.19-6.76,6.79-10.25,10.05c-0.95,0.88-2.42,1.67-3.67,1.7c-8.45,0.15-16.91,0.08-25.37,0.07
		c-0.36,0-0.73-0.1-1.35-0.19c2.31-2.6,4.52-4.88,6.49-7.34c6.82-8.53,10.51-18.37,11.89-29.12c0.12-0.97-0.13-2.33-0.75-3
		c-12.62-13.67-18.2-30.35-20.72-48.32c-0.64-4.53-0.93-9.11-1.36-13.67c-0.07-0.76-0.01-1.52-0.01-2.29
		C399.14,434.11,399.41,433.94,399.67,433.78z"/>
	<path class="st1" d="M147.55,439.06c6.88-3.47,13.86-4.2,20.75-5.29c13.48-2.14,25.6,1.38,36.89,8.64
		c0.85,0.54,2.67,0.75,3.33,0.22c7.86-6.32,16.86-10.59,25.92-14.78c0.82-0.38,1.63-0.78,3.06-1.47c-1.96-1.33-3.53-2.5-5.2-3.51
		c-10.91-6.54-22.84-9.57-35.47-9.83c-2.86-0.06-4.27-0.81-3.74-3.8c1.4-7.88-1.45-13.8-7.69-18.71c-3.9-3.07-7.26-6.86-10.59-10.57
		c-1.15-1.29-2.25-3.42-2.05-4.99c0.89-6.81-1.62-11.65-6.72-16.15c-7.09-6.25-13.56-13.23-20.15-20.04
		c-1.06-1.1-1.33-2.97-1.94-4.5c-0.07-0.18-0.04-0.41-0.01-0.61c1.75-9.55-1.76-16.71-9.33-22.63c-4.78-3.74-8.84-8.44-12.99-12.92
		c-1.17-1.27-2.08-3.28-2.14-4.99c-0.24-6.61,0.09-13.25-0.18-19.86c-0.14-3.52,2.33-5,4.37-6.83c0.34-0.3,2.15,0.53,2.87,1.24
		c11.44,11.33,22.8,22.73,34.19,34.11c15.99,15.99,31.96,32.01,48.01,47.95c1.86,1.85,3.13,3.71,2.66,6.4
		c-1.59,9.17,1.34,16.44,9.04,21.77c6.18,4.28,8.4,10.09,7.47,17.59c-0.6,4.82,0.01,9.77-0.16,14.66c-0.09,2.64,0.69,4.55,2.61,6.43
		c9.39,9.2,18.6,18.57,27.96,27.81c1.57,1.55,2.04,3.18,2.33,5.33c0.97,7.2-1.31,12.65-7.07,17.2c-4.21,3.33-7.82,7.44-11.46,11.42
		c-1.1,1.2-1.8,3.11-1.95,4.76c-0.3,3.34-0.15,6.72-0.07,10.08c0.05,1.82-0.4,2.79-2.46,2.98c-5,0.47-8.83,2.86-11.16,7.45
		c-0.27,0.53-0.59,1.13-1.05,1.45c-1.76,1.2-11.81,0.29-13.05-1.44c-3.97-5.56-9.27-7.46-15.85-6.39c-0.2,0.03-0.41,0.01-0.61,0
		c-4.88-0.11-10.39,1.16-14.46-0.7c-4.53-2.08-7.83-6.94-11.48-10.76c-0.87-0.9-1.41-2.48-1.44-3.76
		c-0.14-6.52,0.05-13.04-0.15-19.56c-0.05-1.53-0.8-3.39-1.87-4.49C160.46,451.7,154.17,445.61,147.55,439.06z"/>
	<path class="st1" d="M271.73,497.94c-2.96-3.13-5.63-5.79-8.08-8.63c-0.64-0.74-0.89-2.05-0.89-3.09
		c-0.05-26.08-0.08-52.17,0.06-78.25c0.01-1.55,1.13-3.59,2.38-4.56c4.71-3.64,6.97-8.19,5.68-14.02
		c-1.69-7.65,3.18-11.84,7.99-16.11c2.08-1.84,9.57-1.11,11.66,0.99c10.82,10.8,21.67,21.56,32.38,32.46
		c1.98,2.01,4.01,3.11,6.72,2.56c3.88-0.78,6.42,1.44,8.14,4.17c3.01,4.78,4.54,10.09,5.46,15.8c0.85,5.3,2.02,10.8,6.14,15.14
		c9.53,10.06,15.78,21.91,18.23,35.64c0.21,1.2,0.42,2.42,0.41,3.63c-0.18,17.42-0.39,34.84-0.61,52.26
		c-0.01,0.6-0.11,1.2-0.19,2.05c-5.06,0.31-9.99,1.3-13.8-3.73c-2.44-3.22-5.61-5.9-8.6-8.67c-1.63-1.51-2.53-3.14-2.17-5.36
		c0.59-3.65-0.94-6.21-3.57-8.76c-10.38-10.08-20.49-20.44-30.82-30.56c-1.15-1.13-3.09-1.72-4.76-2.02
		c-8.97-1.61-16.11,1.16-21.65,8.66C279.16,491.18,275.51,494.11,271.73,497.94z"/>
	<path class="st1" d="M645.32,427.21c-7.47,0-14.95,0-23.09,0c2.44-2.45,4.58-4.77,6.91-6.88c1.73-1.56,2.48-3.26,2.37-5.61
		c-0.17-3.56-0.31-7.16,0.02-10.69c0.38-4.02-0.71-7.15-3.97-9.53c-1.9-1.39-2.5-3.27-2.33-5.6c0.11-1.48,0.46-2.26,2.1-2.24
		c4.79,0.05,9.58-0.02,14.37,0.06c0.73,0.01,1.62,0.39,2.15,0.9c3.02,2.89,6.01,5.81,8.85,8.87c0.68,0.73,1.03,1.98,1.1,3.01
		c0.16,2.44-0.16,4.91,0.1,7.33c0.56,5.17-0.37,9.58-4.88,12.89c-0.9,0.66-1.46,2.57-1.28,3.77c1.08,7.14-1.64,12.25-7.06,16.89
		c-6.25,5.35-11.85,11.49-17.54,17.46c-1.12,1.17-1.92,3.12-1.98,4.74c-0.22,6.41,0.01,12.84-0.17,19.25
		c-0.04,1.45-0.77,3.17-1.75,4.25c-3,3.32-6.2,6.49-9.51,9.5c-1.01,0.92-2.64,1.56-4.01,1.6c-6.11,0.17-12.23,0.18-18.34,0.02
		c-2.64-0.07-4.81,0.41-6.38,2.65c-3.29,4.72-7.75,5.97-13.43,5.7c-9.9-0.47-9.95-0.1-16.61-7.51c-0.79-0.88-1.3-2.3-1.36-3.5
		c-0.18-3.56-0.22-7.14-0.01-10.69c0.15-2.59-0.78-4.38-2.6-6.14c-5.43-5.23-10.76-10.57-15.97-16.01c-1-1.05-1.56-2.74-1.83-4.22
		c-1.37-7.65,1.35-13.37,7.31-18.56c8.13-7.08,15.36-15.17,23.08-22.73c1.68-1.64,2.33-3.34,2.29-5.64
		c-0.11-7.44-0.17-14.88,0.05-22.31c0.05-1.72,0.99-3.6,2-5.07c3.28-4.77,8.21-6.64,13.73-7.51c12.16-1.91,24.3-3.98,36.45-5.95
		c0.77-0.13,1.59-0.02,2.55-0.02c0.5,4.36,0.97,8.24-3,11.68c-5.38,4.66-10.25,9.92-15.16,15.09c-1.06,1.11-1.84,2.93-1.91,4.46
		c-0.24,4.88-0.22,9.78,0,14.67c0.06,1.44,0.8,3.15,1.8,4.21c3.41,3.62,7.07,7.01,11.17,11.01c-24.45,8.04-46.95,20.25-73.34,20.22
		c1.82,3.31,4.3,5.44,7.2,7.12c6.14,3.55,12.91,4.09,19.57,2.76c11.25-2.25,22.31-5.48,33.57-7.71c6.23-1.23,12.7-1.38,19.08-1.76
		c1.72-0.1,2.74-0.46,3.7-1.92c5.45-8.2,12.31-14.9,21.32-19.16c1.55-0.73,3.23-1.18,4.85-1.77
		C645.44,428.13,645.38,427.67,645.32,427.21z"/>
	<path class="st1" d="M723.54,153.21c-9.65-9.44-18.75-18.35-27.86-27.27c0.12-0.31,0.25-0.63,0.37-0.94
		c1.83,0.16,3.91-0.19,5.45,0.57c15.36,7.55,29.81,16.41,40.85,29.87c5.92,7.22,9.93,15.37,11.09,24.73
		c0.22,1.76,0.03,3.58,0.03,5.42c10.14,5.19,20.12,10.84,28.83,18.44c4.56,3.98,8.68,8.31,10.28,14.45c0.47,1.81,0.17,3-1.4,4.18
		c-8.11,6.1-16.82,9.94-27.34,9.49c-12.03-0.51-24.14,0.51-36.04-1.96c-4.17-0.86-8.35-1.93-12.3-3.48
		c-3.28-1.29-6.4-2.01-9.73-0.83c-5.42,1.92-9.64,0.2-12.71-3.81c0.21-2.6,0.4-5,0.61-7.52c-7.25-0.39-14.05-0.75-21.13-1.12
		c2.23-5.63,8.37-9.95,13.24-10.01c2-0.03,4-0.24,5.5-0.34c-0.37-3.16-0.87-5.5-0.89-7.85c-0.09-10.29-0.09-20.58,0-30.86
		c0.02-2.43-0.67-3.23-3.24-3.46c-5.27-0.46-9.34,0.9-12.8,5.13c-2.88,3.52-6,7.63-9.93,9.26c-3.93,1.63-9.01,0.52-13.58,0.59
		c-1.8,0.03-3.6,0-5.51,0c1.83-6.06,3.28-7.47,8.97-7.05c4.93,0.37,8.67-1,11.63-4.91c1.03-1.37,2.42-2.47,3.65-3.69
		c5.63-5.64,5.63-5.64,13.51-6.84c-0.79-0.91-1.36-1.66-2.02-2.33c-3.01-3.04-6.07-6.03-9.06-9.09c-2.29-2.35-2.33-4.97,0.35-6.73
		c4.48-2.94,9.2-5.51,13.86-8.17c1.92-1.1,3.44-0.66,5.07,1.01c7.47,7.66,15.19,15.07,22.59,22.78
		C716.39,153.46,718.96,154.38,723.54,153.21z"/>
	<path class="st1" d="M224.2,515.58c4.58,0.32,6.31,4.17,9.27,6.35c5.52,4.07,7.8,9.32,6.64,16.08c-0.02,0.1-0.02,0.21,0,0.3
		c0.98,5.46-0.96,9.7-5.4,12.9c-2.27,1.64-3.05,3.83-2.83,6.63c0.22,2.73,0.05,5.5,0.05,8.25c0,6.25-2.75,8.96-9.07,8.96
		c-11.41,0-22.83-0.04-34.24,0.04c-2.2,0.02-3.83-0.58-5.4-2.18c-7.64-7.78-15.44-15.4-23.03-23.24c-1.12-1.16-1.87-3.13-1.93-4.76
		c-0.22-6.11-0.2-12.23-0.04-18.34c0.07-2.47-0.7-4.2-2.49-5.85c-3.21-2.97-6.14-6.26-9.35-9.23c-1.79-1.65-2.56-3.4-2.5-5.87
		c0.16-6.01-0.03-12.03,0.09-18.04c0.05-2.21-0.57-3.83-2.18-5.39c-5.56-5.39-11.06-10.85-16.4-16.46
		c-1.06-1.11-1.74-2.95-1.88-4.51c-0.29-3.13-0.23-6.32,0-9.46c0.08-1.1,0.81-2.63,1.7-3.13c4.31-2.38,8.73-4.58,13.23-6.58
		c0.87-0.39,2.62,0,3.34,0.68c5.01,4.78,9.93,9.68,14.7,14.7c0.93,0.97,1.52,2.66,1.54,4.03c0.15,7.74-0.04,15.49,0.16,23.23
		c0.04,1.63,0.79,3.61,1.91,4.77c6.64,6.9,13.42,13.68,20.32,20.32c1.16,1.12,3.16,1.89,4.78,1.92c11.62,0.16,23.24,0.11,34.85,0.07
		C222.67,511.78,225.1,511.74,224.2,515.58z"/>
	<path class="st1" d="M471.85,110.93c2.42-16.72,1.39-33.03-5.42-48.89c3.41,3.46,6.81,6.93,10.25,10.37c2.8,2.79,9.84,3,12.44,0.07
		c2.26-2.56,4.81-3.25,8.08-3.17c7.54,0.2,15.08,0.14,22.62,0.02c2.42-0.04,4.4,0.46,5.88,2.46c1.53,2.06,3.57,2.63,6.13,2.61
		c14.16-0.11,28.33,0,42.49-0.1c2.56-0.02,4.43,0.72,6.17,2.57c3.49,3.71,7.3,7.12,10.71,10.9c1.17,1.29,1.77,3.27,2.15,5.04
		c0.36,1.66,0.34,3.5,0,5.16c-0.35,1.68-0.91,3.62-2.05,4.78c-12.01,12.2-24.11,24.31-36.32,36.31c-1.15,1.14-3.14,1.96-4.77,1.99
		c-8.45,0.2-16.91,0.17-25.37,0.02c-1.46-0.03-3.26-0.68-4.3-1.67c-5.89-5.64-11.54-11.52-17.39-17.19
		c-1.69-1.64-1.51-2.74,0.1-4.21c2.18-1.99,4.17-4.19,6.31-6.22c1.13-1.07,1.23-1.93,0.06-3.04c-2.06-1.97-3.94-4.15-6.1-5.99
		c-0.9-0.77-2.35-1.21-3.57-1.24c-4.58-0.14-9.18-0.24-13.75,0.04c-1.63,0.1-3.44,0.99-4.75,2.04c-2.21,1.78-4.04,4.02-6.12,5.97
		c-0.82,0.77-1.87,1.31-2.81,1.96C472.32,111.3,472.09,111.11,471.85,110.93z"/>
	<path class="st1" d="M611.94,513.46c1.71,4.56,4.84,4.8,8.36,3.56c5.27-1.86,10.47-3.89,15.73-5.79c2.93-1.06,5.91-2,8.87-3
		c0.16,0.23,0.32,0.45,0.48,0.68c-0.59,0.7-1.14,1.43-1.78,2.08c-3.51,3.54-7.14,6.99-10.52,10.65c-0.92,1-1.6,2.62-1.64,3.97
		c-0.17,6.52,0.04,13.04-0.17,19.55c-0.05,1.53-0.8,3.4-1.87,4.49c-7.67,7.89-15.44,15.68-23.34,23.33
		c-1.16,1.13-3.14,1.96-4.76,1.98c-12.12,0.16-24.24,0.1-36.37,0.08c-3.87-0.01-7.09-3.25-7.12-7.11c-0.03-3.67,0.19-7.35-0.1-10.99
		c-0.13-1.65-1.19-3.24-1.93-4.8c-0.25-0.52-0.77-0.98-1.28-1.29c-5.46-3.32-5.43-8.62-4.85-13.97c0.1-0.88,1.44-1.93,2.45-2.35
		c7.33-3.02,14.71-5.9,22.07-8.84c0.34-0.13,0.6-0.45,1.59-1.23c-6.14-1.54-11.65-2.91-17.6-4.4c2.72-2.72,5.19-5.37,7.89-7.75
		c0.69-0.61,2.13-0.48,3.22-0.49c11.71-0.03,23.43,0.06,35.14-0.11c1.62-0.02,3.6-0.83,4.76-1.95c6.82-6.57,13.41-13.39,20.19-20
		c1.61-1.57,2.17-3.21,2.14-5.4c-0.1-7.54-0.15-15.08,0.05-22.61c0.04-1.62,0.84-3.6,1.96-4.75c8.09-8.33,16.45-16.39,24.51-24.75
		c2.45-2.54,4.92-2.7,8.09-1.8c0,10.75,0.06,21.43-0.09,32.12c-0.01,1.11-1.04,2.39-1.91,3.28c-5.49,5.61-11.13,11.05-16.55,16.73
		c-1.05,1.11-1.73,2.94-1.85,4.5c-0.27,3.54-0.19,7.13-0.05,10.69c0.08,2.01-0.73,2.73-2.6,3.32c-7.93,2.51-15.85,5.09-23.65,7.98
		C616.72,510.05,614.37,512,611.94,513.46z"/>
	<path class="st1" d="M602.33,645.89c-6.55,0.87-11.3,3.6-15.67,7.32c-1.07,0.91-3.21,0.62-4.87,0.74
		c-4.72,0.35-8.52-1.38-11.32-5.23c-2.22-3.06-5.14-4.46-8.95-3.77c-8.08,1.46-14.1-1.49-19.26-7.85
		c-4.21-5.19-9.49-9.51-14.1-14.39c-1.85-1.96-3.81-2.94-6.43-2.55c-3.1,0.46-5.42-0.65-7.49-3.01c-2.48-2.83-5.41-5.26-7.89-8.08
		c-0.97-1.1-1.7-2.8-1.74-4.25c-0.15-4.88-1.22-10.27,0.47-14.5c1.64-4.11,6.21-7.07,9.58-10.46c9.77-9.82,19.58-19.6,29.38-29.39
		c2.91-2.9,6.37-2.63,8.1,1.09c1.11,2.38,1.77,5.3,1.59,7.91c-0.64,9.73,0.03,19.3,2.25,28.8c0.19,0.83-0.01,2.09-0.55,2.68
		c-2.12,2.32-4.45,4.44-6.85,6.78c-10.31-8.97-22.58-8.01-34.96-6.72c0.72,4.92,2.4,6.56,6.96,6.91c12.78,0.97,25.57,1.9,38.34,2.95
		c0.91,0.08,2.14,0.83,2.57,1.63c8.72,15.89,21.85,27.74,35.52,39.11C598.56,642.88,600.15,644.12,602.33,645.89z"/>
	<path class="st1" d="M235.75,572.66c0-5.16-0.13-10.65,0.08-16.13c0.07-1.75,0.78-3.6,1.62-5.17c1.53-2.86,5.12-4.07,8.06-1.05
		c12.46,12.75,25.18,25.24,37.7,37.93c1.07,1.09,1.82,2.97,1.87,4.51c0.17,4.77,1.17,10.05-0.49,14.19
		c-1.61,4.02-6.23,6.79-9.31,10.3c-2,2.27-4.25,3.38-7.22,2.91c-2.92-0.46-4.92,0.81-6.91,2.87c-6.51,6.74-13.15,13.36-19.91,19.85
		c-1.17,1.12-3.09,1.54-4.74,2.03c-0.94,0.28-2.04,0.17-3.04,0.03c-7.14-1-13.22,0.55-17.48,6.89c-0.46,0.68-1.43,1.26-2.25,1.4
		c-7.7,1.29-15.42,1.8-22.92-0.92c-1.71-0.62-3.83-2.15-4.24-3.68c-0.32-1.15,1.49-3.31,2.85-4.42
		c12.75-10.38,25.31-21.01,34.33-34.94c3.71-5.74,6.29-12.26,8.98-18.59c0.93-2.19,1.85-2.89,4.13-2.86
		c8.85,0.12,17.46-1.13,25.44-5.29c3.83-2,4.07-2.54,3.26-6.72c-0.12-0.6-0.28-1.19-0.42-1.78c-1.03-4.25-1.24-4.56-5.49-4.13
		C251.91,570.68,244.18,571.67,235.75,572.66z"/>
	<path class="st1" d="M578.26,364.57c0-4.08-0.1-7.72,0.07-11.35c0.04-0.86,0.88-1.79,1.57-2.48
		c24.17-24.21,48.21-48.55,72.72-72.42c4.05-3.94,10.15-5.79,15.38-8.44c0.36-0.18,2.05,1.01,2.06,1.58
		c0.14,7.84,0.17,15.68,0.01,23.51c-0.02,1.01-1.07,2.13-1.89,2.96c-6.73,6.8-13.48,13.59-20.31,20.29
		c-1.57,1.54-2.62,3.1-2.22,5.33c1.7,9.62-1.41,17.23-9.46,22.8c-0.25,0.17-0.47,0.4-0.65,0.65c-4.49,6.2-9.89,8.49-17.93,6.85
		c-4.84-0.99-10.5,0.71-15.52,2.14c-6.82,1.93-13.39,4.75-20.06,7.18C580.92,363.58,579.81,364,578.26,364.57z"/>
	<path class="st1" d="M514.04,9.57c9.03,3,17.5,5.51,25.75,8.63c19.71,7.45,37.96,17.6,54.93,30.14c4.55,3.37,5.18,8.53,7.16,13.09
		c0.68,1.56-3.77,5.2-6.2,5.24c-4.28,0.06-8.55,0.03-12.83,0.03c-10.9,0-21.79,0.1-32.69-0.1c-1.8-0.03-3.99-0.96-5.28-2.21
		c-9.7-9.45-19.26-19.04-28.73-28.73c-1.13-1.16-1.96-3.11-2.01-4.73C513.91,24.13,514.04,17.31,514.04,9.57z"/>
	<path class="st1" d="M572.84,259.39c3.54-3.48,6.29-6.64,9.54-9.15c1.28-0.99,3.73-0.33,5.56-0.78c1.76-0.43,3.75-0.94,5.04-2.1
		c3.79-3.4,7.21-7.2,10.93-10.67c0.93-0.87,2.45-1.53,3.71-1.55c6.92-0.15,13.85-0.1,20.78-0.06c3.3,0.02,9,5.63,9.05,8.93
		c0.06,4.18,0.14,8.36-0.07,12.53c-0.05,1.04-0.92,2.4-1.83,2.96c-2.63,1.61-5.44,2.94-8.23,4.27c-0.68,0.33-1.58,0.38-2.36,0.31
		C607.93,262.57,590.9,261.02,572.84,259.39z"/>
	<path class="st1" d="M135.74,406.16c-1.71-6.47,1.67-10.6,5.99-14.86c3.47-3.42,6.85-5.34,11.74-4.69c2.4,0.32,4.89-0.03,7.33,0.09
		c1.12,0.06,3.1,0.34,3.18,0.8c0.3,1.61-0.04,3.35-0.17,5.04c-0.01,0.16-0.22,0.36-0.38,0.46c-5.61,3.54-5.57,9.01-5.37,14.76
		c0.25,7.53,0.06,7.54-7.36,8.84c-2.61,0.46-5.21,0.91-7.81,1.4c-4.18,0.8-7.07-1.49-7.14-5.74
		C135.72,410.23,135.74,408.2,135.74,406.16z"/>
	<path class="st1" d="M688.22,596.35c0.82-4.55,1.47-9.25,2.53-13.84c1.79-7.7,3.88-15.34,5.78-23.02c0.49-1.99,1.48-3.02,3.63-2.71
		c0.7,0.1,1.45,0.14,2.13-0.01c8.23-1.79,12.64,3.54,16.79,8.74C708.78,575.8,698.55,586.02,688.22,596.35z"/>
	<path class="st1" d="M571.66,228.58c0.67-0.73,1.3-1.49,2-2.19c6.84-6.85,13.71-13.67,20.51-20.57c1.64-1.67,3.21-2.8,5.79-2.64
		c2.38,0.15,4.8-0.44,7.97-0.8c-1.02,1.23-1.51,1.93-2.11,2.53c-7.69,7.72-15.37,15.47-23.12,23.13c-3.34,3.3-7.2,0.76-10.8,1.28
		C571.82,229.09,571.74,228.84,571.66,228.58z"/>
	<path class="st1" d="M439.98,44.71c6.37,0,12.22-0.14,18.06,0.07c2.29,0.08,6.06,4.86,6.13,7.21c0.06,2.07,0.01,4.15,0.01,7.04
		c-2.47-1.9-4.06-3.53-5.98-4.5c-2.77-1.4-5.71-2.72-8.72-3.37C443.84,49.94,443.79,50.15,439.98,44.71z"/>
</g>
</svg>
