<?xml version="1.0" encoding="utf-8"?>
<!-- Generator: Adobe Illustrator 23.0.6, SVG Export Plug-In . SVG Version: 6.00 Build 0)  -->
<svg version="1.1" xmlns="http://www.w3.org/2000/svg" xmlns:xlink="http://www.w3.org/1999/xlink" x="0px" y="0px"
	 viewBox="0 0 800 800" style="enable-background:new 0 0 800 800;" xml:space="preserve">
<style type="text/css">
	.st0{fill:#727171;fill-opacity:0;}
	.st1{fill:#727171;stroke:#4F7FE9;stroke-width:5;stroke-miterlimit:10;}
	.st2{fill:#FFF30A;}
	.st3{fill:#FF8D0A;}
</style>
<g id="图层_1">
	<g>
		<path class="st0" d="M485.9,653.2c5.2-0.6,9.5-0.9,12.8,3.6c1.9,2.5,4.3,4.6,6.7,6.7c1,0.9,2.6,1.6,4,1.7c6.1,0.2,12.2,0.2,18.3,0
			c2.8-0.1,4.7,0.8,6.7,2.8c24.6,24.7,49.2,49.3,73.9,73.9c1,1,2.5,2,3.8,2c5,0.1,9.9-0.4,14.9-0.3c1.6,0,3.7,0.7,4.8,1.8
			c8.8,8.5,17.4,17.2,26,25.9c1.4,1.4,2.8,2,4.8,2c7.8-0.1,15.7-0.1,23.5,0c1.4,0,3.1,0.8,4.2,1.8c3.7,3.5,7.2,7.2,10.9,10.7
			c1,0.9,2.3,1.9,3.6,2c7.2,0.6,14.4,1.6,21.5,1.1c6-0.4,12.1-2.2,17.9-4c4.6-1.5,4.5-3.2,0.8-6.1c-3.7-2.8-7.4-5.7-11-8.7
			c-12.3-10.5-24.5-21.2-35.3-33.3c-9.1-10.3-17.5-21-24-33.2c-11.7-22-14.7-45.8-14.4-70.2c0.1-3.8,0.5-7.5,0.5-11.3
			c-0.1-4.1-1.5-7.7-4.7-10.5c-1.8-1.6-3.6-2-5.5,0.2c-2.2,2.4-4.5,4.7-6.9,6.9c-0.6,0.5-2.3,0.7-2.7,0.3c-2.4-2.6-4.5-5.3-6.8-8
			c5.4-7,5.8-7.1,14.2-7.1c0.1,0,0.2,0,0.3,0c5.7-1,10.1,0.9,13.4,5.6c2.1,3,5,3,8.7,2.2c-8-11-17.5-19-31.9-20.7
			c2.5-4.8,4.7-9,6.9-13.2c-7.2,0-14.2,0-21.3,0c0,0.2,0,0.4,0,0.7c2.3,0,4.6,0,7.1,0c-0.3,3,1.1,6.1-2.4,7.5
			c-8.6,3.5-17.1,7.6-26,10.4c-6.5,2-13.6,2.5-20.4,3.3c-5.5,0.7-11.1,1-17.5,1.6c1,1.7,1.6,3.1,2.5,4c9.4,9.5,18.9,18.8,28.2,28.4
			c2.3,2.3,4.6,3.2,7.8,3.1c6.9-0.2,13.8-0.1,21.4-0.1c-1,1.3-1.7,2.3-2.5,3.1c-13.3,13.3-26.6,26.7-40,40c-1.5,1.5-2.1,3-2.1,5.1
			c0.1,5.8,0.1,11.6,0,17.4c0,0.8-0.2,1.7-0.2,2.5c-0.3,0.1-0.5,0.2-0.8,0.4c-1.5-1.8-3-3.6-4.6-5.3c-10.2-10.3-20.4-20.5-30.7-30.7
			c-3.2-3.2-6.1-7.6-10-9.2c-3.9-1.6-9.1-1-13.6-0.4c-7.8,1-13.8-1.4-18.4-7.8c-2.4-3.2-5.4-5.5-9.8-4.8c-0.1,0-0.3-0.3-0.7-0.7
			c2.7-2.6,5.3-5.3,8.1-7.8c1.7-1.5,2.4-3.3,2.4-5.6c-0.1-14.8,0-29.5,0-44.3c0-1.1-0.1-2.1-0.2-3.2c-0.3-0.1-0.5-0.3-0.8-0.4
			c-3.8,3.8-7.6,7.6-11.2,11.5c-1,1.2-1.8,3-1.8,4.5c-0.2,6.3,0.1,12.6-0.2,19c-0.1,1.7-0.9,3.8-2.1,5c-6.6,6.8-13.4,13.4-20,20.2
			c-2,2-4,2.3-6.9,1.7c0.9-1,1.5-1.7,2.2-2.4c5.5-5.5,11-11.2,16.7-16.6c2.8-2.6,4.1-5.3,4-9.3c-0.3-8.2-0.1-16.5-0.1-24.8
			c0-1.1,0-2.5,0.6-3.2c3.4-3.6,7-7,10.6-10.6c0.5,0.3,0.8,0.5,1.1,0.8c4.3,3.9,10.5,3.8,14.5-0.3c12-12,24-24.2,36.2-36
			c2.6-2.5,2.8-5.1,2.1-8.2c-13.7,0-26.1-5.2-39.3-8.7c1.7-2.3,3.5-5.4,5.7-5.8c7.6-1.4,15.3-2,23-2.7c3.5-0.3,7.1,0,10.8,0
			c0-11.5,0-22.8-0.1-34.1c0-0.9-0.9-2-1.6-2.8c-4.6-4.7-9.3-9.4-14-14.1c-0.6-0.6-1.3-1-2.5-1.9c0,6.4-0.5,12,0.1,17.5
			c0.8,6.6-1.9,11.1-6.8,14.8c-0.8,0.6-2,1.3-3,1.2c-5.2-0.9-8.7,1.5-11.8,5.3c-1,1.3-2.2,2.5-3.5,3.5c-3,2.4-4.5,5.3-4,9.2
			c0.1,0.9-0.6,2.4-1.4,2.9c-1.3,0.8-3,1-4.9,1.6c0.8-1.5,1.9-2.7,1.8-3.7c-0.3-3.2,1.7-4.8,3.6-6.7c2.6-2.6,5.2-5.2,7.8-7.8
			c4.3-4.3,4.3-8.6,0.1-12.8c-1-1-2.2-1.9-3-3c-4.3-6.3-10.3-8-17.5-6.9c-1.3,0.2-2.9,0.7-3.7,1.5c-10.9,10.7-21.7,21.6-32.4,32.4
			c-0.8,0.8-1.6,2.2-1.4,3.1c0.6,3.8-1.3,6.1-3.9,8.3c-2,1.7-3.7,3.8-5.7,5.5c-2.2,1.9-2.9,4.1-2.9,6.9c-0.1,3.5,0.9,6,3.6,8.2
			c1.8,1.4,3.3,3.2,4.9,4.8c-0.3,0.3-0.6,0.6-0.9,0.8c-2.2-2.3-4.3-4.6-6.6-6.8c-0.8-0.8-2.1-1.5-3.1-1.5c-13-0.1-26.1-0.1-39.1-0.1
			c-2.3,0-3.2,1-3.1,3.4c0.9,18.6,1.7,37.2,2.6,55.7c0.4,8.1,0.8,16.3,1,24.4c0.1,2.7-0.3,5.5-0.8,8.2c-1.5,8.5-3.2,17-4.6,25.5
			c-0.3,2-0.6,4.5,0.1,6.3c4.4,11,8.9,21.9,13.7,32.6c3.4,7.5,8.2,14.1,14.4,19.7c9.2,8.3,18,16.8,27,25.3c2.5,2.3,10,2.3,12.3-0.1
			c4.6-4.5,9.2-9,13.6-13.7c1-1,1.6-2.8,1.7-4.3c0.2-4.2,0-8.4,0.1-12.5c0-1.2,0.5-2.7,1.3-3.6c6-6.6,13-11.7,21.4-14.7
			c1.3-0.5,2.6-0.8,4.7-1.5c-2.7-2.6-4.6-5.5-7.3-6.7c-2.6-1.2-6.1-0.8-8.8-1.1c0.4-2.4,0.8-4,0.9-5.7c0.1-3.2,0-6.3,0-9.5
			C485.9,666,485.9,659.7,485.9,653.2z M173.7,219c0.3-0.1,0.6-0.2,0.9-0.3c0-3-0.3-6.1,0.1-9c0.8-6.2-1-11.1-6.1-14.9
			c-1.1-0.8-1.9-2.4-2.1-3.8c-0.3-2.7-0.2-5.5-0.1-8.2c0.1-2.5,2.7-5,5.1-5.1c2-0.1,4.1,0.1,6.1-0.1c2.6-0.2,4.4,0.7,6.2,2.5
			c13.2,13.3,26.3,26.8,39.8,39.7c4.8,4.5,6.9,9.1,6.5,15.6c-0.3,4.4-0.8,8.2-4.6,10.8c-3.3,2.3-4.2,5.4-3.9,9.3
			c0.1,1.9,0.6,2.9,2.4,3.7c4.8,2,9.6,4.1,14.3,6.5c7.3,3.7,14.4,7.5,21.6,11.4c1.7,0.9,4,2.4,4.2,4c0.5,3,0.6,6.7-0.7,9.2
			c-2.3,4.2-5.5,8.1-9.1,11.5c-5.1,4.8-10.7,9-16.3,13.6c-7.6-10.3-14.2-20.4-19.2-31.4c-3.8-8.3-6.7-16.9-7.4-26
			c-0.5-6-2.9-8.6-9-8.4c-2.8,0.1-4.8-0.7-6.7-2.8c-3.1-3.4-6.4-6.6-9.8-9.7c-1.1-1-2.9-1.9-4.5-1.9c-6.7-0.2-13.4-0.1-20.2-0.1
			c-3.8,0-9.3,5.5-9.3,9.3c0,7.2,0.4,14.5-0.1,21.7c-0.5,6.6,1.4,11.5,6.5,16c3.4,3,6.4,4.7,11,4.4c2.4-0.2,3.4-0.9,3-3.3
			c-0.8-4.3,1.1-7.3,4.3-10c3.2-2.8,6.1-5.9,9.2-9c7.6,7.6,14.8,15,22.2,22.1c2.5,2.4,3.4,4.8,3.5,8.3c0,3.7-2.7,5-4.6,7.1
			c-2.2,2.5-2.4,5.8,0,8.1c3.3,3.4,6.8,6.5,9.9,10c2.3,2.6,4.8,4,8.2,3.4c2.4-0.4,4.2,0.6,5.9,2.4c10,10.2,20.1,20.3,30.3,30.2
			c1.2,1.2,3.3,2,5,2.1c5.8,0.3,11.6,0.2,17.4,0c2.8-0.1,4,0.7,3.6,3.6c-0.5,3,0.9,5.1,3,7.2c9.9,9.7,20.1,19.1,29.3,29.5
			c6.2,7,12.9,10.4,22.2,9c8.5-1.3,16.6,0.8,24.3,4.2c2.8,1.2,5.3,2.8,8.1,4.3c1.4-3.2,3.8-3.8,6.8-3.6c4.5,0.2,8.9,0,13.4,0
			c-1.8-12.9,8-19.4,15.3-19.1c-0.7,1.8-1.3,3.5-2,5.1c-2.2,5.1-4.4,10.2-6.5,15.4c-1.7,4-0.4,5.9,4,6c5.4,0,10.8,0.1,16.2-0.1
			c1.5-0.1,3.1-0.8,4.2-1.8c2.4-2,4.7-4.3,6.7-6.7c2.4-2.9,5.2-4.1,9-3.8c5.4,0.3,10.8,0,16.2,0.1c2.2,0,3.8-0.6,5.4-2.2
			c10.2-10.4,20.6-20.6,30.9-30.9c0.7-0.7,1.3-1.4,2.2-2.5c-12.8-3.6-25.1-7.1-37.5-10.6c-2.3-0.6-4.2-0.1-5.7,2
			c-1.4,2-3.2,3.6-4.9,5.4c-0.9-0.5-1.5-0.8-2.1-1.2c-6.2-3.5-7.9-3.7-12.9,1.3c-5.6,5.6-10.5,11.8-15.9,17.7c-0.7,0.8-2,1.2-3,1.8
			c-0.1-0.2-0.3-0.5-0.4-0.7c5.1-5.8,8.1-12.8,9.9-20.7c1.4-6.1,3.6-12,5.4-18.1c0.3-0.9,0-2.4-0.6-3.1c-4.3-4.8-8.8-9.4-13.2-14
			c-0.5-0.5-1.3-1-1.3-1.6c-0.3-2.6-2-2.5-4-2.5c-15.9,0-31.8,0.1-47.7-0.1c-3.5,0-6.2,0.7-8.2,3.5c-5.2,7.4-12.2,10.3-21.3,8.9
			c-2.1-0.3-3.8-0.7-5.4-2.2c-15.4-15.5-30.8-30.8-46.2-46.4c-1.2-1.2-2.1-3.4-2.1-5c0.2-3.8-0.8-6.8-3.9-9c-2-1.4-2.5-3.4-2.5-5.9
			c0.1-6,0-12,0.1-18c0-2.2-0.6-3.8-2.2-5.4c-6.9-6.8-13.8-13.6-20.5-20.6c-1.1-1.1-1.8-3-1.9-4.5c-0.2-9.1,0-18.1-0.2-27.2
			c0-1.6-0.8-3.6-1.9-4.8c-16.1-16.3-32.4-32.5-48.6-48.7c-0.6-0.6-1.2-1-2.1-1.9c-0.7,3.4-1.5,6.5-1.9,9.5
			c-0.4,2.3-1.3,3.1-3.6,2.7c-7.2-1.2-14.5-2.3-21.7-3.4c-7.3-1.1-14.6-2.2-22.1-3.3c-0.1,0.8-0.3,1.3-0.3,1.8
			c0,14-0.1,27.9,0.1,41.9c0,1.2,0.9,2.7,1.8,3.6c7.9,8.1,15.9,16.1,23.9,24C172.3,217.8,173.1,218.4,173.7,219z M289.1,695.5
			c9.5,2.4,17,7.5,23.8,14c2.2,2.1,3.4,4.3,3.1,7.5c-0.3,3.5-0.3,6.9,0,10.4c0.1,1.7,0.9,3.6,2,4.8c3.3,3.6,6.9,6.9,10.3,10.5
			c1.5,1.6,2.7,1.9,4.6,0.5c12.5-9.8,25.1-19.5,37.6-29.3c2.7-2.2,5-4.9,6.8-6.8c-2.5-4.8-4.7-8.9-6.7-12.7c-1.3-0.7-3-1-3.7-2
			c-1.8-2.5-3.9-3.6-7-3.1c-2.4,0.3-3.8-0.9-3.6-3.3c0.3-4.5,0.8-9,1.3-13.6c0.1-1.3,0.6-2.7,0.1-3.8c-1.3-3.3-0.3-5,2.8-6.7
			c7.6-4.2,11.1-10.7,9.7-19.5c-1.2-7.3-2.4-14.7-3.9-21.9c-0.7-3.2-0.2-5.6,2.2-7.7c1-0.9,2-1.9,3.1-2.4c2.2-1.1,2.5-2.6,2.2-5
			c-1.5-9.8-3-19.7-4-29.6c-1-9.4-1.4-18.9-2-28.3c-0.1-2.2-0.8-3.1-3.1-3c-2.7,0.2-5.5,0.2-8.3,0c-2.2-0.1-3.9,0.5-5.4,2.2
			c-1.9,2.1-4,4-6,6c-0.2-0.2-0.5-0.5-0.7-0.7c2.2-2.2,4.5-4.4,6.5-6.7c0.8-0.8,1.4-2,1.6-3.1c0.6-4.5,0-8.6-4.2-11.5
			c-2-1.5-3.5-3.7-5.5-5.3c-1.9-1.7-2.7-3.5-2.7-6.1c0-1.5-0.7-3.4-1.8-4.5c-10.6-10.8-21.2-21.4-32-32c-1-1-2.6-1.4-4-1.7
			c-7.2-1.3-13.1,0.8-17.5,6.9c-1.1,1.6-2.9,2.9-4.3,4.4c-2.3,2.3-2.2,7.6,0,10c3.6,3.6,7.2,7.2,10.8,10.8c0.7,0.7,1.4,1.5,1.7,2.4
			c0.7,2,1.1,4.1,1.6,6.2c-1-0.3-2.5-0.5-3.6-1.2c-0.9-0.6-2.1-1.9-2-2.7c0.6-4.4-1.3-7.4-4.5-10c-1.9-1.5-3.6-3.3-5.2-5.2
			c-2.1-2.5-4.5-3.6-7.7-3.1c-2.7,0.4-4.7-0.6-6.4-2.7c-0.8-1-1.8-2-2.8-2.8c-1.7-1.4-2.3-3.1-2.3-5.4c0.1-6.3,0-12.6,0-19
			c0-1.1-0.1-2.1-0.3-3.9c-1.3,1.1-2,1.7-2.7,2.4c-3,2.9-5.7,6.2-8.9,8.8c-5.4,4.1-7.4,9.3-6.4,15.9c0,0.2,0,0.4,0,0.6
			c-0.2,1.6,0.5,2.3,2.1,3c4.3,1.9,8.3,4.2,12.4,6.5c0.9,0.5,1.6,1.6,2.2,2.5c1.9,2.9,0.9,5.5-2.4,6.2c-3.9,0.9-7.7,1.9-11.6,2.5
			c-2.3,0.3-2.7,1.4-2.7,3.5c0.1,6.7,0.1,13.5,0,20.2c-0.1,2.8,0.7,4.8,2.7,6.7c11.6,11.4,23.2,22.9,34.6,34.6c2.9,3,5.9,4.9,10.1,4
			c2.4-0.5,4.7-1.7,7.8-2.8c2.4,2.4,5.6,5.4,8.5,8.7c1,1.2,1.8,3,1.9,4.5c0.2,8.7,0.2,17.3,0,26c0,2.9,0.7,5,2.8,7
			c6,5.8,11.9,11.8,17.8,17.7c0.7,0.7,1.3,1.4,2.2,2.4c-2.9,0.7-5,0.4-6.9-1.7c-4.1-4.4-8.1-9-12.8-12.7
			c-7.6-5.9-10.9-13.2-9.2-22.7c1.4-8-1.1-14.4-7.9-19.3c-2.1-1.5-3.7-3.6-6-5.8c-0.2,1.5-0.4,2.2-0.4,2.9c0,15.5-0.1,31,0.1,46.5
			c0,1.3,0.9,2.9,1.8,3.9c2.7,3,5.7,5.7,8.5,8.6c0,0.3,0,0.5,0,0.8c-6.1-1.7-8.7,2.8-12.1,6.1c-1.5,1.4-2.8,3.1-4.4,4.3
			c-1.2,0.9-2.8,1.7-4.3,1.7c-4.9,0.2-9.8,0.5-14.7,0c-5.4-0.5-9,1.5-12.8,5.3c-3.5,3.5-2.6,7.1-2.6,11.5c1-0.9,1.7-1.3,2.1-1.9
			c5.4-7.7,12.7-10.5,21.8-8.9c8.5,1.5,15-1.4,19.9-8.3c2.5-3.6,6-4.4,10.1-4.1c2.1,0.2,2.8,0.8,2.8,2.9c-0.1,6.1-0.1,12.2,0,18.3
			c0,4.4,0.3,8.8,0.4,13.8C297.9,686.8,292.6,689.1,289.1,695.5z M120.1,571.8c-0.4,0.2-0.8,0.3-1.2,0.5c-0.3,2.7-1.8,6.2-0.7,8
			c2,3.2,1.4,5.3-0.4,7.8c-0.2,0.2-0.3,0.5-0.4,0.8c-2.1,5.6-4.1,11.3-6.1,16.9c-0.2,0.6,0.4,1.8,0.9,2.2c1.6,1,1.3,1.7,0.4,3.2
			c-1.6,2.6-3.3,5.4-3.9,8.3c-0.7,3.4-0.1,7-0.2,10.5c-0.2,7.7,0,15.5-0.7,23.2c-0.7,7.7-1.7,15.5-3.4,23
			c-5.5,24.4-19.2,44.1-35.9,62c-13.6,14.6-28.7,27.7-44.3,40.1c-4,3.2-3.7,5.5,0.9,7.7c6,2.9,12.5,4,19.1,4.3
			c5.6,0.2,11.2-0.3,16.7-0.6c4.5-0.2,8.3-1.6,11.3-5.4c2.4-3,5.3-5.6,8.2-8.2c1-0.9,2.6-1.6,3.9-1.6c7.7-0.2,15.5-0.2,23.2,0
			c2.2,0,3.8-0.6,5.3-2.2c9.3-9.4,18.7-18.8,28.1-28.1c1.4-1.3,2.6-3.7,4.6-0.5c0.3,0.4,1.5,0.3,2.3,0.3c8.4,0,16.7,0.1,25.1-0.1
			c1.7,0,3.9-0.8,5.1-2c4.2-4.1,8.2-8.5,12.1-13c5-5.7,10.3-11,16.9-14.9c2.7-1.6,5.2-3.5,7.5-5.6c3.8-3.5,3.7-4.2,0.7-9.3
			c-0.8,0.8-1.6,1.5-2.4,2.3c-11.3,11.2-22.4,22.5-33.8,33.7c-1.1,1.1-3.1,1.9-4.8,2c-6.6,0.2-13.2,0.1-19.9,0.1
			c-1.7,0-3.5,0.2-5.4,0.3c1.9-4.5,5.4-7,9.6-7c2.8,0,5.5,0.2,8.3-0.1c1.3-0.1,2.8-0.7,3.7-1.5c6.2-6,12.4-12.2,18.4-18.4
			c0.9-1,1.6-2.6,1.6-4c0.1-7.5,0-15.1,0.1-22.6c0-2-0.6-3.4-2-4.8c-21.3-21.2-42.6-42.5-63.8-63.8c-0.9-0.9-1.6-1.9-1.9-2.3
			c2.9-2.7,5.4-5,8.1-7.2c1-0.9,2.3-1.9,3.5-2c4.2-0.2,8.4-0.1,12.5-0.1c0.8,0,1.6,0.3,2.2,0.8c2.3,1.8,4.5,3.8,7.6,6.6
			c-3.8,2.9-6.7,5.1-9.6,7.3c0.9,1.2,1.1,1.6,1.4,1.8c5,5.1,10,10.2,15.2,15.1c0.8,0.8,2.4,1.2,3.6,1.2c6.8,0.1,13.7,0.1,20.5,0
			c1.4,0,3.1-0.7,4-1.6c10.1-9.9,20.1-20,30.1-30c0.8-0.8,1.5-2,1.6-3.1c0.6-4.6,0.1-8.8-4.1-11.9c-2.4-1.7-4.3-4-6.3-6.2
			c-1.5-1.7-3.1-2.3-5.4-2.3c-11.6,0.1-23.2,0.1-34.9-0.1c-1.7,0-3.4-1.3-5.1-2c-1.6-0.7-3.2-1.9-4.8-1.9c-6.4-0.2-12.8,0-19.3-0.1
			c-2.4,0-4.2,0.5-5.9,2.3c-2.5,2.7-8.1,2.6-10.7,0C124.8,577.1,122.4,574.4,120.1,571.8z M570.6,163.1c-0.9,0.9-1.6,1.8-2.3,2.5
			c-8.2,8.2-16.4,16.5-24.7,24.6c-1.7,1.6-2.3,3.3-2.3,5.6c0.1,8.9,0.1,17.7,0,26.6c0,1.6-0.8,3.6-1.9,4.8c-5,5.3-10,10.8-15.6,15.5
			c-5.5,4.6-8.2,9.8-6.9,16.9c0.5,2.7-0.7,3.5-3.4,3.4c-4.8-0.2-9.6-0.1-14.4,0c-2.6,0-5.5,2.8-4.4,4.1c1.5,2,3,4.3,6.3,4.2
			c4.5-0.2,9-0.1,13.4,0c0.8,0,2.1,0.4,2.2,0.9c0.2,0.8,0,2-0.5,2.8c-0.5,0.9-1.3,1.6-2.1,2.2c-2.8,2.2-4.2,4.9-3.6,8.5
			c0.4,2.3-0.6,4-2.2,5.6c-14.8,14.7-29.6,29.5-44.3,44.3c-0.8,0.8-1.6,1.7-2.6,2.8c1.2,0.6,2,1,2.8,1.3c9,3.4,18,7,27.1,10.3
			c3.7,1.4,7.8,1.8,11.3,3.4c6.6,3,13.2,5,20.5,4.6c2.2-0.1,3.8-0.7,5.4-2.3c9.6-9.7,19.4-19.3,28.9-29c2.5-2.6,5.1-4.2,8.8-3.6
			c2.2,0.4,3.8-0.5,5.3-2.2c3.5-3.7,7.2-7.2,10.8-10.8c2.8-2.8,2.9-6,0-8.8c-2.3-2.1-4.8-4.1-7.3-6c-10.1-7.1-20.2-14.1-30.3-21.2
			c-2.9-2-5.5-4.4-8.7-6.9c1.5-0.5,2.4-0.8,3.4-1c8.7-2,17.4-4,26.1-6c0.7-0.2,1.7-0.4,2.1-0.9c1-1.5,0.2-9.7-1.3-10.8
			c-6.2-4.3-7.7-10.3-6.7-17.3c0.1-0.7-0.2-1.5,0-2.1c0.6-1.7,1-3.8,2.2-5c13.4-13.6,27.1-26.8,40.2-40.6c4.4-4.7,9-6.9,15.2-5.9
			c0.3,0.1,0.7-0.1,0.9,0c1.7,1.4,4.7,2.7,4.9,4.3c0.6,5.3,1.8,11.1-3.9,14.9c-1.5,1-3.6,2.7-3.7,4.3c-0.4,5.8-0.2,11.7-0.2,18
			c0.9-0.5,1.3-0.7,1.7-1c8.5-8.5,17-17,25.5-25.6c0.8-0.8,1.2-2.3,1.2-3.6c0.1-6.8,0.1-13.6,0.1-20.5c0-2.4,0-4.8,0-7.6
			c-1.5,0.7-2.5,1.2-3.5,1.7c-8.5,4-16.6,8.9-26,10.3c-5.6,0.9-11.8,2-16.9,0.5c-6.9-2.1-13-6.7-19.9-10.4c2.7-1.3,5.4-1.7,6.5-3.3
			c5.3-7.6,12.6-9.5,21.2-8.3c0.1,0,0.2,0,0.3,0c4.8,1,7.4-1.3,8.9-5.6c0.1-0.3,0.3-0.6,0.4-0.8c1.3-2.7,1.3-5.2-0.6-7.7
			c-1.6-2.2-3.1-4.5-4.6-6.9c-2.1-3.3-1.7-7.8,1-10.5c1-1,1.9-2.1,3-3c1.7-1.3,2.3-3,2-5.1c-1.6-8.3-3-16.6-4.8-24.8
			c-0.8-3.6-2.1-7.1-3.2-10.6c-0.9,0.6-1,1.2-1.2,1.7c-2.3,6.7-4,13.7-7,20.1c-6.7,14.2-17.3,25.6-28.8,36.1
			c-6.5,5.9-13.3,11.4-20,17.1c-3.7,3.1-3.3,6.2,1.1,8.1c1.8,0.8,3.6,1.5,5.5,1.8C561.5,162,565.9,162.5,570.6,163.1z M399.7,433.8
			c-0.3,0.2-0.5,0.3-0.8,0.5c0,0.8-0.1,1.5,0,2.3c0.4,4.6,0.7,9.1,1.4,13.7c2.5,18,8.1,34.6,20.7,48.3c0.6,0.7,0.9,2,0.8,3
			c-1.4,10.8-5.1,20.6-11.9,29.1c-2,2.5-4.2,4.7-6.5,7.3c0.6,0.1,1,0.2,1.4,0.2c8.5,0,16.9,0.1,25.4-0.1c1.3,0,2.7-0.8,3.7-1.7
			c3.5-3.3,6.7-6.9,10.3-10c2.4-2.1,3.5-4.4,3-7.5c-0.4-2.6,0.6-4.5,2.6-6.4c8.4-8.2,17.1-16.1,24.7-24.9c6-7,12.6-10.3,21.7-8.7
			c0.2,0,0.4,0,0.6,0c1.4,0.5,3,0.8,4,1.7c4.6,4.3,9,8.9,13.5,13.3c1.2,1.2,2.5,2.3,4.2,4c2.3-2.5,4.2-4.9,6.4-7
			c1.7-1.6,2.3-3.3,2.3-5.6c-0.1-11.3,0-22.6,0-33.9c0-1.1-0.1-2.2-0.1-2.4c-3.2-1.8-5.9-3.2-8.5-4.6c0.2-0.3,0.3-0.6,0.5-0.9
			c2.6,1,5.3,2,8.1,3.1c0-13.4,0-26.4-0.1-39.4c0-1-0.7-2.3-1.5-2.8c-5.9-4.1-7.6-9.9-6.6-16.7c0.1-0.7,0-1.4,0-2.1
			c0-5-2.1-7.9-6.9-9.3c-2.7-0.8-5.5-1.4-8.2-2.4c-2.3-0.8-3.7-0.3-5.4,1.4c-10.7,10.8-21.4,21.5-32.2,32.2c-1,1-2.6,2.1-3.8,2
			c-5.1-0.8-8.6,1.4-11.5,5.2c-2,2.6-4.5,3.7-7.7,3.2c-2.7-0.4-4.6,0.7-6.4,2.6c-6.6,6.8-13.4,13.4-20.1,20.1
			c-2.6,2.6-8.1,2.6-10.7,0C403.7,438.2,401.7,436,399.7,433.8z M147.6,439.1c6.6,6.5,12.9,12.6,19,18.9c1.1,1.1,1.8,3,1.9,4.5
			c0.2,6.5,0,13,0.1,19.6c0,1.3,0.6,2.9,1.4,3.8c3.7,3.8,6.9,8.7,11.5,10.8c4.1,1.9,9.6,0.6,14.5,0.7c0.2,0,0.4,0,0.6,0
			c6.6-1.1,11.9,0.8,15.9,6.4c1.2,1.7,11.3,2.6,13.1,1.4c0.5-0.3,0.8-0.9,1.1-1.5c2.3-4.6,6.1-7,11.2-7.5c2.1-0.2,2.5-1.2,2.5-3
			c-0.1-3.4-0.2-6.7,0.1-10.1c0.1-1.6,0.9-3.6,1.9-4.8c3.6-4,7.3-8.1,11.5-11.4c5.8-4.5,8-10,7.1-17.2c-0.3-2.1-0.8-3.8-2.3-5.3
			c-9.4-9.2-18.6-18.6-28-27.8c-1.9-1.9-2.7-3.8-2.6-6.4c0.2-4.9-0.4-9.8,0.2-14.7c0.9-7.5-1.3-13.3-7.5-17.6
			c-7.7-5.3-10.6-12.6-9-21.8c0.5-2.7-0.8-4.5-2.7-6.4c-16.1-15.9-32-32-48-48c-11.4-11.4-22.8-22.8-34.2-34.1
			c-0.7-0.7-2.5-1.5-2.9-1.2c-2,1.8-4.5,3.3-4.4,6.8c0.3,6.6-0.1,13.3,0.2,19.9c0.1,1.7,1,3.7,2.1,5c4.2,4.5,8.2,9.2,13,12.9
			c7.6,5.9,11.1,13.1,9.3,22.6c0,0.2-0.1,0.4,0,0.6c0.6,1.5,0.9,3.4,1.9,4.5c6.6,6.8,13.1,13.8,20.1,20c5.1,4.5,7.6,9.3,6.7,16.1
			c-0.2,1.6,0.9,3.7,2.1,5c3.3,3.7,6.7,7.5,10.6,10.6c6.2,4.9,9.1,10.8,7.7,18.7c-0.5,3,0.9,3.7,3.7,3.8c12.6,0.3,24.6,3.3,35.5,9.8
			c1.7,1,3.2,2.2,5.2,3.5c-1.4,0.7-2.2,1.1-3.1,1.5c-9.1,4.2-18.1,8.5-25.9,14.8c-0.7,0.5-2.5,0.3-3.3-0.2
			c-11.3-7.3-23.4-10.8-36.9-8.6C161.4,434.9,154.4,435.6,147.6,439.1z M271.7,497.9c3.8-3.8,7.4-6.8,10.1-10.4
			c5.5-7.5,12.7-10.3,21.6-8.7c1.7,0.3,3.6,0.9,4.8,2c10.3,10.1,20.4,20.5,30.8,30.6c2.6,2.6,4.2,5.1,3.6,8.8
			c-0.4,2.2,0.5,3.8,2.2,5.4c3,2.8,6.2,5.5,8.6,8.7c3.8,5,8.7,4,13.8,3.7c0.1-0.8,0.2-1.5,0.2-2c0.2-17.4,0.4-34.8,0.6-52.3
			c0-1.2-0.2-2.4-0.4-3.6c-2.5-13.7-8.7-25.6-18.2-35.6c-4.1-4.3-5.3-9.8-6.1-15.1c-0.9-5.7-2.5-11-5.5-15.8c-1.7-2.7-4.3-5-8.1-4.2
			c-2.7,0.5-4.7-0.5-6.7-2.6c-10.7-10.9-21.6-21.7-32.4-32.5c-2.1-2.1-9.6-2.8-11.7-1c-4.8,4.3-9.7,8.5-8,16.1
			c1.3,5.8-1,10.4-5.7,14c-1.3,1-2.4,3-2.4,4.6c-0.1,26.1-0.1,52.2-0.1,78.3c0,1,0.3,2.4,0.9,3.1
			C266.1,492.1,268.8,494.8,271.7,497.9z M645.3,427.2c0.1,0.5,0.1,0.9,0.2,1.4c-1.6,0.6-3.3,1-4.8,1.8c-9,4.3-15.9,11-21.3,19.2
			c-1,1.5-2,1.8-3.7,1.9c-6.4,0.4-12.8,0.5-19.1,1.8c-11.3,2.2-22.3,5.5-33.6,7.7c-6.7,1.3-13.4,0.8-19.6-2.8
			c-2.9-1.7-5.4-3.8-7.2-7.1c26.4,0,48.9-12.2,73.3-20.2c-4.1-4-7.8-7.4-11.2-11c-1-1.1-1.7-2.8-1.8-4.2c-0.2-4.9-0.2-9.8,0-14.7
			c0.1-1.5,0.8-3.4,1.9-4.5c4.9-5.2,9.8-10.4,15.2-15.1c4-3.4,3.5-7.3,3-11.7c-1,0-1.8-0.1-2.5,0c-12.2,2-24.3,4-36.5,6
			c-5.5,0.9-10.5,2.7-13.7,7.5c-1,1.5-2,3.4-2,5.1c-0.2,7.4-0.2,14.9,0,22.3c0,2.3-0.6,4-2.3,5.6c-7.7,7.5-15,15.6-23.1,22.7
			c-6,5.2-8.7,10.9-7.3,18.6c0.3,1.5,0.8,3.2,1.8,4.2c5.2,5.5,10.5,10.8,16,16c1.8,1.8,2.8,3.5,2.6,6.1c-0.2,3.5-0.2,7.1,0,10.7
			c0.1,1.2,0.6,2.6,1.4,3.5c6.7,7.4,6.7,7,16.6,7.5c5.7,0.3,10.2-1,13.4-5.7c1.6-2.3,3.7-2.7,6.4-2.6c6.1,0.2,12.2,0.1,18.3,0
			c1.4,0,3-0.7,4-1.6c3.3-3,6.5-6.2,9.5-9.5c1-1.1,1.7-2.8,1.8-4.3c0.2-6.4,0-12.8,0.2-19.3c0.1-1.6,0.9-3.6,2-4.7
			c5.7-6,11.3-12.1,17.5-17.5c5.4-4.6,8.1-9.8,7.1-16.9c-0.2-1.2,0.4-3.1,1.3-3.8c4.5-3.3,5.4-7.7,4.9-12.9
			c-0.3-2.4,0.1-4.9-0.1-7.3c-0.1-1-0.4-2.3-1.1-3c-2.8-3-5.8-6-8.8-8.9c-0.5-0.5-1.4-0.9-2.2-0.9c-4.8-0.1-9.6,0-14.4-0.1
			c-1.6,0-2,0.8-2.1,2.2c-0.2,2.3,0.4,4.2,2.3,5.6c3.3,2.4,4.3,5.5,4,9.5c-0.3,3.5-0.2,7.1,0,10.7c0.1,2.4-0.6,4-2.4,5.6
			c-2.3,2.1-4.5,4.4-6.9,6.9C630.4,427.2,637.8,427.2,645.3,427.2z M723.5,153.2c-4.6,1.2-7.2,0.3-9.6-2.3
			c-7.4-7.7-15.1-15.1-22.6-22.8c-1.6-1.7-3.2-2.1-5.1-1c-4.7,2.7-9.4,5.2-13.9,8.2c-2.7,1.8-2.6,4.4-0.3,6.7c3,3.1,6,6.1,9.1,9.1
			c0.7,0.7,1.2,1.4,2,2.3c-7.9,1.2-7.9,1.2-13.5,6.8c-1.2,1.2-2.6,2.3-3.7,3.7c-3,3.9-6.7,5.3-11.6,4.9c-5.7-0.4-7.1,1-9,7.1
			c1.9,0,3.7,0,5.5,0c4.6-0.1,9.7,1,13.6-0.6c3.9-1.6,7-5.7,9.9-9.3c3.5-4.2,7.5-5.6,12.8-5.1c2.6,0.2,3.3,1,3.2,3.5
			c-0.1,10.3-0.1,20.6,0,30.9c0,2.4,0.5,4.7,0.9,7.9c-1.5,0.1-3.5,0.3-5.5,0.3c-4.9,0.1-11,4.4-13.2,10c7.1,0.4,13.9,0.7,21.1,1.1
			c-0.2,2.5-0.4,4.9-0.6,7.5c3.1,4,7.3,5.7,12.7,3.8c3.3-1.2,6.5-0.5,9.7,0.8c4,1.6,8.1,2.6,12.3,3.5c11.9,2.5,24,1.4,36,2
			c10.5,0.4,19.2-3.4,27.3-9.5c1.6-1.2,1.9-2.4,1.4-4.2c-1.6-6.1-5.7-10.5-10.3-14.4c-8.7-7.6-18.7-13.3-28.8-18.4
			c0-1.9,0.2-3.7,0-5.4c-1.2-9.4-5.2-17.5-11.1-24.7c-11-13.5-25.5-22.3-40.8-29.9c-1.5-0.8-3.6-0.4-5.5-0.6
			c-0.1,0.3-0.3,0.6-0.4,0.9C704.8,134.9,713.9,143.8,723.5,153.2z M224.2,515.6c0.9-3.8-1.5-3.8-4.1-3.8c-11.6,0-23.2,0.1-34.8-0.1
			c-1.6,0-3.6-0.8-4.8-1.9c-6.9-6.6-13.7-13.4-20.3-20.3c-1.1-1.2-1.9-3.1-1.9-4.8c-0.2-7.7,0-15.5-0.2-23.2c0-1.4-0.6-3.1-1.5-4
			c-4.8-5-9.7-9.9-14.7-14.7c-0.7-0.7-2.5-1.1-3.3-0.7c-4.5,2-8.9,4.2-13.2,6.6c-0.9,0.5-1.6,2-1.7,3.1c-0.2,3.1-0.3,6.3,0,9.5
			c0.1,1.6,0.8,3.4,1.9,4.5c5.3,5.6,10.8,11.1,16.4,16.5c1.6,1.6,2.2,3.2,2.2,5.4c-0.1,6,0.1,12-0.1,18c-0.1,2.5,0.7,4.2,2.5,5.9
			c3.2,3,6.1,6.3,9.4,9.2c1.8,1.7,2.6,3.4,2.5,5.8c-0.2,6.1-0.2,12.2,0,18.3c0.1,1.6,0.8,3.6,1.9,4.8c7.6,7.8,15.4,15.5,23,23.2
			c1.6,1.6,3.2,2.2,5.4,2.2c11.4-0.1,22.8,0,34.2,0c6.3,0,9.1-2.7,9.1-9c0-2.8,0.2-5.5-0.1-8.3c-0.2-2.8,0.6-5,2.8-6.6
			c4.4-3.2,6.4-7.4,5.4-12.9c0-0.1,0-0.2,0-0.3c1.2-6.8-1.1-12-6.6-16.1C230.5,519.8,228.8,515.9,224.2,515.6z M471.9,110.9
			c0.2,0.2,0.5,0.4,0.7,0.6c0.9-0.7,2-1.2,2.8-2c2.1-2,3.9-4.2,6.1-6c1.3-1.1,3.1-1.9,4.8-2c4.6-0.3,9.2-0.2,13.8,0
			c1.2,0,2.7,0.5,3.6,1.2c2.2,1.8,4,4,6.1,6c1.2,1.1,1.1,2-0.1,3c-2.1,2-4.1,4.2-6.3,6.2c-1.6,1.5-1.8,2.6-0.1,4.2
			c5.9,5.7,11.5,11.6,17.4,17.2c1,1,2.8,1.6,4.3,1.7c8.5,0.1,16.9,0.2,25.4,0c1.6,0,3.6-0.9,4.8-2c12.2-12,24.3-24.1,36.3-36.3
			c1.1-1.2,1.7-3.1,2-4.8c0.3-1.7,0.4-3.5,0-5.2c-0.4-1.8-1-3.8-2.2-5c-3.4-3.8-7.2-7.2-10.7-10.9c-1.8-1.8-3.6-2.6-6.2-2.6
			c-14.2,0.1-28.3,0-42.5,0.1c-2.6,0-4.6-0.6-6.1-2.6c-1.5-2-3.5-2.5-5.9-2.5c-7.5,0.1-15.1,0.2-22.6,0c-3.3-0.1-5.8,0.6-8.1,3.2
			c-2.6,2.9-9.6,2.7-12.4-0.1c-3.4-3.4-6.8-6.9-10.3-10.4C473.2,77.9,474.3,94.2,471.9,110.9z M611.9,513.5c2.4-1.5,4.8-3.4,7.5-4.4
			c7.8-2.9,15.7-5.5,23.7-8c1.9-0.6,2.7-1.3,2.6-3.3c-0.1-3.6-0.2-7.1,0-10.7c0.1-1.6,0.8-3.4,1.8-4.5c5.4-5.7,11.1-11.1,16.5-16.7
			c0.9-0.9,1.9-2.2,1.9-3.3c0.1-10.7,0.1-21.4,0.1-32.1c-3.2-0.9-5.6-0.7-8.1,1.8c-8.1,8.4-16.4,16.4-24.5,24.8
			c-1.1,1.2-1.9,3.1-2,4.8c-0.2,7.5-0.2,15.1,0,22.6c0,2.2-0.5,3.8-2.1,5.4c-6.8,6.6-13.4,13.4-20.2,20c-1.2,1.1-3.1,1.9-4.8,2
			c-11.7,0.2-23.4,0.1-35.1,0.1c-1.1,0-2.5-0.1-3.2,0.5c-2.7,2.4-5.2,5-7.9,7.8c6,1.5,11.5,2.9,17.6,4.4c-1,0.8-1.3,1.1-1.6,1.2
			c-7.4,2.9-14.8,5.8-22.1,8.8c-1,0.4-2.3,1.5-2.5,2.3c-0.6,5.3-0.6,10.7,4.8,14c0.5,0.3,1,0.8,1.3,1.3c0.8,1.6,1.8,3.2,1.9,4.8
			c0.3,3.6,0.1,7.3,0.1,11c0,3.9,3.3,7.1,7.1,7.1c12.1,0,24.3,0.1,36.4-0.1c1.6,0,3.6-0.8,4.8-2c7.9-7.7,15.7-15.5,23.3-23.3
			c1.1-1.1,1.8-3,1.9-4.5c0.2-6.5,0-13,0.2-19.5c0-1.3,0.7-3,1.6-4c3.4-3.7,7-7.1,10.5-10.6c0.6-0.6,1.2-1.4,1.8-2.1
			c-0.2-0.2-0.3-0.5-0.5-0.7c-3,1-5.9,1.9-8.9,3c-5.3,1.9-10.5,3.9-15.7,5.8C616.8,518.3,613.7,518,611.9,513.5z M602.3,645.9
			c-2.2-1.8-3.8-3-5.3-4.3c-13.7-11.4-26.8-23.2-35.5-39.1c-0.4-0.8-1.7-1.5-2.6-1.6c-12.8-1-25.6-2-38.3-3c-4.6-0.3-6.3-2-7-6.9
			c12.4-1.3,24.6-2.3,35,6.7c2.4-2.3,4.7-4.5,6.8-6.8c0.5-0.6,0.7-1.8,0.5-2.7c-2.2-9.5-2.9-19.1-2.3-28.8c0.2-2.6-0.5-5.5-1.6-7.9
			c-1.7-3.7-5.2-4-8.1-1.1c-9.8,9.8-19.6,19.6-29.4,29.4c-3.4,3.4-7.9,6.3-9.6,10.5c-1.7,4.2-0.6,9.6-0.5,14.5
			c0,1.5,0.8,3.2,1.7,4.3c2.5,2.8,5.4,5.3,7.9,8.1c2.1,2.4,4.4,3.5,7.5,3c2.6-0.4,4.6,0.6,6.4,2.5c4.6,4.9,9.9,9.2,14.1,14.4
			c5.2,6.4,11.2,9.3,19.3,7.8c3.8-0.7,6.7,0.7,9,3.8c2.8,3.8,6.6,5.6,11.3,5.2c1.7-0.1,3.8,0.2,4.9-0.7
			C591,649.5,595.8,646.8,602.3,645.9z M235.8,572.7c8.4-1,16.1-2,23.9-2.8c4.3-0.4,4.5-0.1,5.5,4.1c0.1,0.6,0.3,1.2,0.4,1.8
			c0.8,4.2,0.6,4.7-3.3,6.7c-8,4.2-16.6,5.4-25.4,5.3c-2.3,0-3.2,0.7-4.1,2.9c-2.7,6.3-5.3,12.8-9,18.6c-9,13.9-21.6,24.6-34.3,34.9
			c-1.4,1.1-3.2,3.3-2.9,4.4c0.4,1.5,2.5,3,4.2,3.7c7.5,2.7,15.2,2.2,22.9,0.9c0.8-0.1,1.8-0.7,2.3-1.4c4.3-6.3,10.3-7.9,17.5-6.9
			c1,0.1,2.1,0.3,3,0c1.6-0.5,3.6-0.9,4.7-2c6.8-6.5,13.4-13.1,19.9-19.8c2-2.1,4-3.3,6.9-2.9c3,0.5,5.2-0.6,7.2-2.9
			c3.1-3.5,7.7-6.3,9.3-10.3c1.7-4.1,0.7-9.4,0.5-14.2c-0.1-1.5-0.8-3.4-1.9-4.5c-12.5-12.7-25.2-25.2-37.7-37.9
			c-2.9-3-6.5-1.8-8.1,1c-0.8,1.6-1.6,3.4-1.6,5.2C235.6,562,235.8,567.5,235.8,572.7z M578.3,364.6c1.5-0.6,2.7-1,3.8-1.4
			c6.7-2.4,13.2-5.3,20.1-7.2c5-1.4,10.7-3.1,15.5-2.1c8,1.6,13.4-0.6,17.9-6.9c0.2-0.2,0.4-0.5,0.7-0.6c8-5.6,11.2-13.2,9.5-22.8
			c-0.4-2.2,0.7-3.8,2.2-5.3c6.8-6.7,13.6-13.5,20.3-20.3c0.8-0.8,1.9-2,1.9-3c0.2-7.8,0.1-15.7,0-23.5c0-0.6-1.7-1.8-2.1-1.6
			c-5.2,2.6-11.3,4.5-15.4,8.4c-24.5,23.9-48.5,48.2-72.7,72.4c-0.7,0.7-1.5,1.6-1.6,2.5C578.2,356.9,578.3,360.5,578.3,364.6z
			 M514,9.6c0,7.7-0.1,14.5,0.1,21.4c0,1.6,0.9,3.6,2,4.7c9.5,9.7,19,19.3,28.7,28.7c1.3,1.3,3.5,2.2,5.3,2.2
			c10.9,0.2,21.8,0.1,32.7,0.1c4.3,0,8.5,0,12.8,0c2.4,0,6.9-3.7,6.2-5.2c-2-4.5-2.6-9.7-7.2-13.1c-17-12.5-35.2-22.7-54.9-30.1
			C531.5,15.1,523.1,12.6,514,9.6z M572.8,259.4c18.1,1.6,35.1,3.2,52.1,4.7c0.8,0.1,1.7,0,2.4-0.3c2.8-1.3,5.6-2.7,8.2-4.3
			c0.9-0.5,1.8-1.9,1.8-3c0.2-4.2,0.1-8.4,0.1-12.5c0-3.3-5.8-8.9-9-8.9c-6.9,0-13.9-0.1-20.8,0.1c-1.3,0-2.8,0.7-3.7,1.6
			c-3.7,3.5-7.1,7.3-10.9,10.7c-1.3,1.1-3.3,1.7-5,2.1c-1.8,0.4-4.3-0.2-5.6,0.8C579.1,252.8,576.4,255.9,572.8,259.4z M135.7,406.2
			c0,2,0,4.1,0,6.1c0.1,4.3,3,6.5,7.1,5.7c2.6-0.5,5.2-1,7.8-1.4c7.4-1.3,7.6-1.3,7.4-8.8c-0.2-5.8-0.2-11.2,5.4-14.8
			c0.2-0.1,0.4-0.3,0.4-0.5c0.1-1.7,0.5-3.4,0.2-5c-0.1-0.5-2.1-0.8-3.2-0.8c-2.4-0.1-4.9,0.2-7.3-0.1c-4.9-0.6-8.3,1.3-11.7,4.7
			C137.4,395.6,134,399.7,135.7,406.2z M688.2,596.3c10.3-10.3,20.6-20.6,30.9-30.8c-4.2-5.2-8.6-10.5-16.8-8.7
			c-0.7,0.2-1.4,0.1-2.1,0c-2.2-0.3-3.1,0.7-3.6,2.7c-1.9,7.7-4,15.3-5.8,23C689.7,587.1,689,591.8,688.2,596.3z M571.7,228.6
			c0.1,0.3,0.2,0.5,0.2,0.8c3.6-0.5,7.5,2,10.8-1.3c7.8-7.7,15.4-15.4,23.1-23.1c0.6-0.6,1.1-1.3,2.1-2.5c-3.2,0.4-5.6,0.9-8,0.8
			c-2.6-0.2-4.2,1-5.8,2.6c-6.8,6.9-13.7,13.7-20.5,20.6C573,227.1,572.3,227.9,571.7,228.6z M440,44.7c3.8,5.4,3.9,5.2,9.5,6.5
			c3,0.7,6,2,8.7,3.4c1.9,1,3.5,2.6,6,4.5c0-2.9,0-5,0-7c-0.1-2.4-3.8-7.1-6.1-7.2C452.2,44.6,446.4,44.7,440,44.7z"/>
		<path class="st1" d="M485.9,653.2c0,6.5,0,12.8,0,19.2c0,3.2,0.1,6.3,0,9.5c-0.1,1.7-0.5,3.3-0.9,5.7c2.8,0.3,6.2-0.2,8.8,1.1
			c2.7,1.3,4.6,4.1,7.3,6.7c-2.1,0.6-3.4,1-4.7,1.5c-8.5,3-15.5,8.1-21.4,14.7c-0.8,0.9-1.2,2.3-1.3,3.6c-0.1,4.2,0.1,8.4-0.1,12.5
			c-0.1,1.5-0.7,3.2-1.7,4.3c-4.4,4.7-9,9.2-13.6,13.7c-2.4,2.4-9.9,2.4-12.3,0.1c-9-8.4-17.9-17-27-25.3
			c-6.2-5.6-11-12.1-14.4-19.7c-4.8-10.8-9.3-21.7-13.7-32.6c-0.7-1.8-0.5-4.2-0.1-6.3c1.4-8.5,3.1-17,4.6-25.5
			c0.5-2.7,0.9-5.5,0.8-8.2c-0.2-8.2-0.7-16.3-1-24.4c-0.8-18.6-1.6-37.2-2.6-55.7c-0.1-2.4,0.7-3.4,3.1-3.4c13,0,26.1,0,39.1,0.1
			c1.1,0,2.3,0.7,3.1,1.5c2.3,2.2,4.4,4.5,6.6,6.8c0.3-0.3,0.6-0.6,0.9-0.8c-1.6-1.6-3.1-3.4-4.9-4.8c-2.7-2.2-3.7-4.7-3.6-8.2
			c0.1-2.9,0.7-5.1,2.9-6.9c2-1.7,3.7-3.8,5.7-5.5c2.6-2.2,4.5-4.6,3.9-8.3c-0.1-1,0.6-2.3,1.4-3.1c10.8-10.9,21.5-21.7,32.4-32.4
			c0.9-0.9,2.4-1.3,3.7-1.5c7.1-1.2,13.2,0.5,17.5,6.9c0.8,1.2,2,2,3,3c4.2,4.2,4.2,8.6-0.1,12.8c-2.6,2.6-5.2,5.2-7.8,7.8
			c-1.9,1.9-3.9,3.5-3.6,6.7c0.1,1.1-1.1,2.2-1.8,3.7c1.9-0.6,3.6-0.8,4.9-1.6c0.8-0.5,1.5-2,1.4-2.9c-0.5-4,1-6.9,4-9.3
			c1.3-1,2.4-2.2,3.5-3.5c3-3.8,6.6-6.2,11.8-5.3c0.9,0.1,2.1-0.6,3-1.2c4.9-3.7,7.6-8.2,6.8-14.8c-0.7-5.5-0.1-11.2-0.1-17.5
			c1.2,0.9,1.9,1.4,2.5,1.9c4.7,4.7,9.4,9.3,14,14.1c0.7,0.8,1.6,1.8,1.6,2.8c0.1,11.3,0.1,22.6,0.1,34.2c-3.8,0-7.3-0.3-10.8,0
			c-7.7,0.7-15.4,1.3-23,2.7c-2.2,0.4-4,3.5-5.7,5.8c13.2,3.5,25.5,8.8,39.3,8.7c0.6,3.1,0.5,5.7-2.1,8.2
			c-12.2,11.9-24.1,24-36.2,36c-4.1,4.1-10.2,4.2-14.5,0.3c-0.3-0.3-0.6-0.5-1.1-0.8c-3.6,3.5-7.2,7-10.6,10.6
			c-0.6,0.7-0.6,2.1-0.6,3.2c0,8.3-0.3,16.5,0.1,24.8c0.1,4-1.1,6.7-4,9.3c-5.7,5.4-11.2,11-16.7,16.6c-0.7,0.7-1.3,1.4-2.2,2.4
			c2.9,0.7,5,0.4,6.9-1.7c6.6-6.8,13.4-13.4,20-20.2c1.2-1.2,2-3.3,2.1-5c0.3-6.3,0-12.6,0.2-19c0-1.5,0.8-3.4,1.8-4.5
			c3.6-4,7.4-7.7,11.2-11.5c0.3,0.1,0.5,0.3,0.8,0.4c0.1,1.1,0.2,2.1,0.2,3.2c0,14.8,0,29.6,0,44.3c0,2.3-0.7,4.1-2.4,5.6
			c-2.8,2.5-5.4,5.2-8.1,7.8c0.4,0.5,0.6,0.8,0.7,0.7c4.4-0.8,7.4,1.5,9.8,4.8c4.6,6.3,10.6,8.8,18.4,7.8c4.5-0.6,9.6-1.2,13.6,0.4
			c3.9,1.6,6.8,6,10,9.2c10.3,10.2,20.5,20.4,30.7,30.7c1.6,1.7,3.1,3.5,4.6,5.3c0.3-0.1,0.5-0.2,0.8-0.4c0.1-0.8,0.2-1.7,0.2-2.5
			c0-5.8,0.1-11.6,0-17.4c0-2.1,0.6-3.6,2.1-5.1c13.4-13.3,26.7-26.6,40-40c0.8-0.8,1.5-1.9,2.5-3.1c-7.6,0-14.5-0.1-21.4,0.1
			c-3.2,0.1-5.5-0.8-7.8-3.1c-9.3-9.6-18.8-18.9-28.2-28.4c-1-1-1.5-2.3-2.5-4c6.4-0.6,12-0.9,17.5-1.6c6.8-0.9,13.9-1.3,20.4-3.3
			c8.9-2.8,17.3-6.8,26-10.4c3.6-1.5,2.2-4.5,2.4-7.5c-2.5,0-4.8,0-7.1,0c0-0.2,0-0.4,0-0.7c7.1,0,14.1,0,21.3,0
			c-2.2,4.2-4.4,8.5-6.9,13.2c14.5,1.8,24,9.7,31.9,20.7c-3.7,0.8-6.6,0.8-8.7-2.2c-3.3-4.7-7.8-6.6-13.4-5.6c-0.1,0-0.2,0-0.3,0
			c-8.5,0-8.8,0.2-14.2,7.1c2.2,2.7,4.4,5.5,6.8,8c0.4,0.4,2.1,0.2,2.7-0.3c2.4-2.2,4.8-4.5,6.9-6.9c1.9-2.1,3.7-1.7,5.5-0.2
			c3.2,2.8,4.6,6.4,4.7,10.5c0.1,3.8-0.4,7.5-0.5,11.3c-0.4,24.5,2.6,48.2,14.4,70.2c6.5,12.2,14.9,22.9,24,33.2
			c10.8,12.1,23,22.8,35.3,33.3c3.5,3,7.3,5.9,11,8.7c3.8,2.9,3.8,4.6-0.8,6.1c-5.8,1.9-11.8,3.7-17.9,4c-7.1,0.5-14.4-0.5-21.5-1.1
			c-1.3-0.1-2.6-1.1-3.6-2c-3.7-3.5-7.2-7.3-10.9-10.7c-1-1-2.8-1.7-4.2-1.8c-7.8-0.2-15.7-0.1-23.5,0c-2,0-3.4-0.6-4.8-2
			c-8.6-8.7-17.2-17.4-26-25.9c-1.1-1.1-3.2-1.8-4.8-1.8c-5-0.1-9.9,0.4-14.9,0.3c-1.3,0-2.8-1-3.8-2
			c-24.7-24.6-49.3-49.2-73.9-73.9c-2-2-3.9-2.8-6.7-2.8c-6.1,0.2-12.2,0.2-18.3,0c-1.4,0-2.9-0.8-4-1.7c-2.4-2-4.8-4.2-6.7-6.7
			C495.4,652.3,491.1,652.6,485.9,653.2z"/>
		<path class="st1" d="M173.7,219c-0.7-0.6-1.4-1.1-2-1.8c-8-8-16-16-23.9-24c-0.9-0.9-1.8-2.4-1.8-3.6c-0.1-14-0.1-27.9-0.1-41.9
			c0-0.5,0.1-1,0.3-1.8c7.4,1.1,14.8,2.2,22.1,3.3c7.3,1.1,14.5,2.1,21.7,3.4c2.4,0.4,3.3-0.4,3.6-2.7c0.5-3.1,1.2-6.1,1.9-9.5
			c0.9,0.8,1.6,1.3,2.1,1.9c16.2,16.2,32.5,32.4,48.6,48.7c1.1,1.1,1.9,3.1,1.9,4.8c0.2,9.1,0,18.1,0.2,27.2c0,1.5,0.8,3.4,1.9,4.5
			c6.7,7,13.6,13.8,20.5,20.6c1.6,1.6,2.2,3.2,2.2,5.4c-0.1,6,0.1,12-0.1,18c-0.1,2.4,0.5,4.4,2.5,5.9c3.1,2.2,4.1,5.2,3.9,9
			c-0.1,1.6,0.9,3.8,2.1,5c15.3,15.5,30.8,30.9,46.2,46.4c1.6,1.6,3.3,1.9,5.4,2.2c9,1.4,16-1.5,21.3-8.9c2-2.9,4.7-3.6,8.2-3.5
			c15.9,0.2,31.8,0.1,47.7,0.1c1.9,0,3.7-0.1,4,2.5c0,0.6,0.8,1.1,1.3,1.6c4.4,4.7,8.9,9.3,13.2,14c0.6,0.7,0.9,2.2,0.6,3.1
			c-1.7,6-4,12-5.4,18.1c-1.8,7.9-4.8,14.9-9.9,20.7c0.1,0.2,0.3,0.5,0.4,0.7c1-0.6,2.3-0.9,3-1.8c5.3-5.9,10.2-12.2,15.9-17.7
			c5.1-5,6.8-4.8,12.9-1.3c0.6,0.4,1.2,0.7,2.1,1.2c1.6-1.8,3.5-3.4,4.9-5.4c1.5-2.2,3.4-2.7,5.7-2c12.3,3.4,24.6,7,37.5,10.6
			c-0.9,1-1.6,1.8-2.2,2.5c-10.3,10.3-20.6,20.6-30.9,30.9c-1.6,1.6-3.2,2.2-5.4,2.2c-5.4-0.1-10.8,0.2-16.2-0.1
			c-3.8-0.2-6.6,0.9-9,3.8c-2,2.4-4.3,4.6-6.7,6.7c-1.1,1-2.8,1.7-4.2,1.8c-5.4,0.2-10.8,0.1-16.2,0.1c-4.4,0-5.7-1.9-4-6
			c2.2-5.1,4.4-10.2,6.5-15.4c0.7-1.7,1.3-3.4,2-5.1c-7.3-0.3-17.1,6.2-15.3,19.1c-4.5,0-8.9,0.1-13.4,0c-3-0.1-5.5,0.4-6.8,3.6
			c-2.8-1.5-5.4-3.1-8.1-4.3c-7.8-3.4-15.8-5.5-24.3-4.2c-9.3,1.4-16-1.9-22.2-9c-9.2-10.4-19.4-19.8-29.3-29.5
			c-2.1-2.1-3.5-4.1-3-7.2c0.5-2.9-0.8-3.7-3.6-3.6c-5.8,0.2-11.6,0.2-17.4,0c-1.7-0.1-3.8-0.9-5-2.1c-10.2-10-20.3-20.1-30.3-30.2
			c-1.7-1.7-3.4-2.8-5.9-2.4c-3.4,0.6-5.9-0.8-8.2-3.4c-3.1-3.5-6.6-6.6-9.9-10c-2.3-2.4-2.2-5.6,0-8.1c1.9-2.1,4.6-3.5,4.6-7.1
			c0-3.4-1-5.9-3.5-8.3c-7.4-7.1-14.6-14.5-22.2-22.1c-3.1,3.1-6,6.2-9.2,9c-3.2,2.7-5.1,5.7-4.3,10c0.4,2.3-0.6,3-3,3.3
			c-4.5,0.4-7.6-1.4-11-4.4c-5.1-4.5-7-9.3-6.5-16c0.5-7.2,0.1-14.5,0.1-21.7c0-3.8,5.5-9.3,9.3-9.3c6.7,0,13.4-0.1,20.2,0.1
			c1.5,0.1,3.3,0.9,4.5,1.9c3.4,3.1,6.7,6.3,9.8,9.7c1.9,2.1,3.9,2.9,6.7,2.8c6-0.2,8.5,2.4,9,8.4c0.7,9.1,3.6,17.7,7.4,26
			c5,11.1,11.7,21.2,19.2,31.4c5.6-4.6,11.3-8.8,16.3-13.6c3.5-3.3,6.7-7.3,9-11.5c1.4-2.5,1.2-6.2,0.7-9.2c-0.2-1.5-2.5-3-4.2-4
			c-7.1-3.9-14.3-7.8-21.6-11.4c-4.7-2.4-9.5-4.5-14.3-6.5c-1.8-0.8-2.3-1.8-2.4-3.7c-0.3-3.9,0.5-7,3.9-9.3
			c3.8-2.6,4.3-6.4,4.6-10.8c0.4-6.6-1.7-11.1-6.5-15.6c-13.6-12.9-26.7-26.4-39.8-39.7c-1.8-1.8-3.6-2.7-6.2-2.5
			c-2,0.2-4.1,0-6.1,0.1c-2.5,0.1-5.1,2.6-5.1,5.1c-0.1,2.8-0.3,5.5,0.1,8.2c0.2,1.4,1,3,2.1,3.8c5.1,3.8,6.9,8.6,6.1,14.9
			c-0.4,3-0.1,6-0.1,9C174.3,218.8,174,218.9,173.7,219z"/>
		<path class="st1" d="M289.1,695.5c3.5-6.4,8.8-8.8,15-7.7c-0.2-5-0.4-9.4-0.4-13.8c-0.1-6.1-0.1-12.2,0-18.3
			c0-2.1-0.7-2.7-2.8-2.9c-4.2-0.3-7.6,0.5-10.1,4.1c-4.9,6.9-11.5,9.8-19.9,8.3c-9.1-1.7-16.5,1.2-21.8,8.9c-0.4,0.6-1,1-2.1,1.9
			c-0.1-4.4-0.9-8,2.6-11.5c3.7-3.7,7.3-5.8,12.8-5.3c4.8,0.5,9.8,0.2,14.7,0c1.5-0.1,3.1-0.8,4.3-1.7c1.6-1.2,2.9-2.8,4.4-4.3
			c3.3-3.2,6-7.8,12.1-6.1c0-0.3,0-0.5,0-0.8c-2.9-2.8-5.8-5.6-8.5-8.6c-0.9-1-1.8-2.6-1.8-3.9c-0.1-15.5-0.1-31-0.1-46.5
			c0-0.7,0.2-1.3,0.4-2.9c2.3,2.3,3.9,4.4,6,5.8c6.7,4.8,9.3,11.2,7.9,19.3c-1.7,9.5,1.6,16.8,9.2,22.7c4.7,3.7,8.7,8.3,12.8,12.7
			c2,2.1,4,2.4,6.9,1.7c-0.9-1-1.5-1.7-2.2-2.4c-5.9-5.9-11.7-11.9-17.8-17.7c-2.1-2-2.9-4.1-2.8-7c0.2-8.7,0.1-17.3,0-26
			c0-1.5-0.8-3.3-1.9-4.5c-2.9-3.3-6.1-6.3-8.5-8.7c-3.1,1.1-5.4,2.2-7.8,2.8c-4.2,0.9-7.2-1-10.1-4c-11.4-11.7-23-23.2-34.6-34.6
			c-2-2-2.8-3.9-2.7-6.7c0.2-6.7,0.1-13.5,0-20.2c0-2,0.4-3.1,2.7-3.5c3.9-0.6,7.8-1.6,11.6-2.5c3.3-0.8,4.3-3.3,2.4-6.2
			c-0.6-0.9-1.3-2-2.2-2.5c-4.1-2.3-8.1-4.6-12.4-6.5c-1.6-0.7-2.3-1.3-2.1-3c0-0.2,0-0.4,0-0.6c-1.1-6.6,1-11.8,6.4-15.9
			c3.3-2.5,6-5.8,8.9-8.8c0.7-0.7,1.4-1.3,2.7-2.4c0.1,1.8,0.2,2.8,0.3,3.9c0,6.3,0.1,12.6,0,19c0,2.2,0.5,3.9,2.3,5.4
			c1,0.8,2,1.8,2.8,2.8c1.7,2.1,3.7,3.1,6.4,2.7c3.2-0.5,5.7,0.6,7.7,3.1c1.5,1.9,3.3,3.6,5.2,5.2c3.2,2.6,5.1,5.6,4.5,10
			c-0.1,0.8,1.1,2.2,2,2.7c1.1,0.7,2.6,0.9,3.6,1.2c-0.5-2.1-0.9-4.2-1.6-6.2c-0.3-0.9-1-1.7-1.7-2.4c-3.6-3.6-7.2-7.2-10.8-10.8
			c-2.3-2.3-2.3-7.6,0-10c1.4-1.5,3.1-2.7,4.3-4.4c4.3-6.2,10.3-8.2,17.5-6.9c1.4,0.3,3,0.7,4,1.7c10.7,10.6,21.4,21.2,32,32
			c1.1,1.1,1.8,3,1.8,4.5c0,2.6,0.7,4.4,2.7,6.1c1.9,1.7,3.4,3.8,5.5,5.3c4.2,3,4.8,7,4.2,11.5c-0.1,1.1-0.8,2.3-1.6,3.1
			c-2.1,2.3-4.4,4.5-6.5,6.7c0.2,0.2,0.5,0.5,0.7,0.7c2-2,4.1-3.9,6-6c1.5-1.7,3.1-2.3,5.4-2.2c2.7,0.2,5.5,0.2,8.3,0
			c2.3-0.1,3,0.8,3.1,3c0.5,9.5,1,18.9,2,28.3c1,9.9,2.5,19.8,4,29.6c0.4,2.4,0,3.8-2.2,5c-1.2,0.6-2.1,1.6-3.1,2.4
			c-2.4,2.1-2.9,4.5-2.2,7.7c1.5,7.3,2.7,14.6,3.9,21.9c1.4,8.8-2.1,15.3-9.7,19.5c-3.1,1.7-4,3.4-2.8,6.7c0.4,1.1,0,2.5-0.1,3.8
			c-0.4,4.5-0.9,9-1.3,13.6c-0.2,2.4,1.2,3.6,3.6,3.3c3-0.4,5.2,0.7,7,3.1c0.7,1,2.3,1.3,3.7,2c2,3.8,4.2,7.9,6.7,12.7
			c-1.8,1.8-4.1,4.6-6.8,6.8c-12.5,9.8-25.1,19.5-37.6,29.3c-1.8,1.4-3,1.2-4.6-0.5c-3.3-3.6-7-6.8-10.3-10.5
			c-1.1-1.2-1.8-3.1-2-4.8c-0.3-3.4-0.3-6.9,0-10.4c0.2-3.2-1-5.4-3.1-7.5C306.2,703,298.6,697.9,289.1,695.5z"/>
		<path class="st1" d="M120.1,571.8c2.4,2.6,4.7,5.3,7.2,7.8c2.6,2.7,8.2,2.7,10.7,0c1.7-1.8,3.5-2.4,5.9-2.3
			c6.4,0.1,12.8-0.1,19.3,0.1c1.6,0.1,3.2,1.3,4.8,1.9c1.7,0.7,3.4,2,5.1,2c11.6,0.2,23.2,0.1,34.9,0.1c2.2,0,3.9,0.6,5.4,2.3
			c2,2.2,3.9,4.5,6.3,6.2c4.3,3.1,4.8,7.3,4.1,11.9c-0.1,1.1-0.8,2.3-1.6,3.1c-10,10.1-20,20.1-30.1,30c-1,0.9-2.6,1.6-4,1.6
			c-6.8,0.2-13.6,0.1-20.5,0c-1.2,0-2.8-0.4-3.6-1.2c-5.1-4.9-10.1-10-15.2-15.1c-0.3-0.3-0.4-0.7-1.4-1.8c2.9-2.2,5.8-4.4,9.6-7.3
			c-3.2-2.8-5.4-4.7-7.6-6.6c-0.6-0.5-1.5-0.7-2.2-0.8c-4.2-0.1-8.4-0.2-12.5,0.1c-1.2,0.1-2.5,1.1-3.5,2c-2.6,2.2-5.1,4.6-8.1,7.2
			c0.3,0.4,1,1.4,1.9,2.3c21.2,21.3,42.5,42.5,63.8,63.8c1.4,1.4,2.1,2.8,2,4.8c-0.1,7.5,0,15.1-0.1,22.6c0,1.3-0.6,3-1.6,4
			c-6,6.2-12.1,12.3-18.4,18.4c-0.9,0.9-2.4,1.4-3.7,1.5c-2.7,0.2-5.5,0.1-8.3,0.1c-4.2,0-7.7,2.4-9.6,7c1.9-0.1,3.6-0.3,5.4-0.3
			c6.6,0,13.3,0.1,19.9-0.1c1.6,0,3.6-0.8,4.8-2c11.3-11.1,22.5-22.4,33.8-33.7c0.8-0.8,1.6-1.5,2.4-2.3c3.1,5.1,3.1,5.8-0.7,9.3
			c-2.3,2.1-4.8,4-7.5,5.6c-6.6,3.9-11.9,9.2-16.9,14.9c-3.9,4.4-7.9,8.8-12.1,13c-1.2,1.2-3.3,2-5.1,2c-8.4,0.2-16.7,0.1-25.1,0.1
			c-0.8,0-2.1,0.2-2.3-0.3c-2-3.2-3.3-0.8-4.6,0.5c-9.4,9.3-18.8,18.7-28.1,28.1c-1.6,1.6-3.2,2.2-5.3,2.2c-7.7-0.1-15.5-0.1-23.2,0
			c-1.3,0-2.9,0.7-3.9,1.6c-2.9,2.6-5.8,5.2-8.2,8.2c-3,3.8-6.9,5.1-11.3,5.4c-5.6,0.3-11.2,0.8-16.7,0.6
			c-6.6-0.3-13.1-1.4-19.1-4.3c-4.6-2.3-4.9-4.5-0.9-7.7c15.6-12.4,30.7-25.5,44.3-40.1c16.7-17.9,30.4-37.7,35.9-62
			c1.7-7.5,2.7-15.3,3.4-23c0.7-7.7,0.5-15.4,0.7-23.2c0.1-3.5-0.5-7.1,0.2-10.5c0.6-2.9,2.3-5.7,3.9-8.3c0.8-1.4,1.2-2.2-0.4-3.2
			c-0.6-0.3-1.2-1.6-0.9-2.2c1.9-5.7,4-11.3,6.1-16.9c0.1-0.3,0.2-0.6,0.4-0.8c1.8-2.5,2.4-4.6,0.4-7.8c-1.1-1.8,0.4-5.3,0.7-8
			C119.2,572.2,119.7,572,120.1,571.8z"/>
		<path class="st1" d="M570.6,163.1c-4.8-0.6-9.2-1.1-13.5-1.9c-1.9-0.3-3.7-1-5.5-1.8c-4.4-1.9-4.7-5.1-1.1-8.1
			c6.7-5.6,13.5-11.1,20-17.1c11.5-10.5,22.1-21.8,28.8-36.1c3-6.4,4.7-13.4,7-20.1c0.2-0.5,0.4-1.1,1.2-1.7c1.1,3.5,2.4,7,3.2,10.6
			c1.8,8.2,3.2,16.5,4.8,24.8c0.4,2.1-0.3,3.7-2,5.1c-1.1,0.9-2,2-3,3c-2.7,2.7-3.1,7.2-1,10.5c1.5,2.3,3,4.6,4.6,6.9
			c1.9,2.5,1.9,5,0.6,7.7c-0.1,0.3-0.3,0.5-0.4,0.8c-1.5,4.2-4.1,6.6-8.9,5.6c-0.1,0-0.2,0-0.3,0c-8.6-1.2-15.9,0.7-21.2,8.3
			c-1.1,1.5-3.8,2-6.5,3.3c6.8,3.7,13,8.3,19.9,10.4c5.1,1.6,11.3,0.4,16.9-0.5c9.4-1.5,17.5-6.3,26-10.3c1-0.5,2-0.9,3.5-1.7
			c0,2.9,0,5.3,0,7.6c0,6.8,0.1,13.6-0.1,20.5c0,1.2-0.4,2.7-1.2,3.6c-8.4,8.6-17,17.1-25.5,25.6c-0.3,0.3-0.8,0.5-1.7,1
			c0-6.3-0.3-12.2,0.2-18c0.1-1.5,2.2-3.2,3.7-4.3c5.7-3.9,4.5-9.6,3.9-14.9c-0.2-1.6-3.1-2.9-4.9-4.3c-0.2-0.1-0.6,0-0.9,0
			c-6.2-0.9-10.7,1.3-15.2,5.9c-13.1,13.8-26.8,27-40.2,40.6c-1.2,1.2-1.6,3.3-2.2,5c-0.2,0.6,0,1.4,0,2.1c-1,7,0.5,13,6.7,17.3
			c1.5,1,2.3,9.3,1.3,10.8c-0.4,0.5-1.3,0.7-2.1,0.9c-8.7,2-17.4,4-26.1,6c-1,0.2-1.9,0.6-3.4,1c3.2,2.5,5.8,4.9,8.7,6.9
			c10.1,7.1,20.2,14.1,30.3,21.2c2.6,1.8,5,3.8,7.3,6c2.9,2.7,2.8,5.9,0,8.8c-3.6,3.6-7.3,7.1-10.8,10.8c-1.5,1.6-3.1,2.5-5.3,2.2
			c-3.7-0.6-6.2,1-8.8,3.6c-9.5,9.8-19.3,19.3-28.9,29c-1.6,1.6-3.2,2.1-5.4,2.3c-7.3,0.4-14-1.6-20.5-4.6
			c-3.6-1.6-7.6-2.1-11.3-3.4c-9.1-3.3-18.1-6.8-27.1-10.3c-0.8-0.3-1.6-0.8-2.8-1.3c1-1.1,1.8-2,2.6-2.8
			c14.8-14.8,29.5-29.6,44.3-44.3c1.7-1.6,2.6-3.3,2.2-5.6c-0.6-3.6,0.8-6.3,3.6-8.5c0.8-0.6,1.6-1.3,2.1-2.2c0.4-0.8,0.7-2,0.5-2.8
			c-0.1-0.5-1.5-0.9-2.2-0.9c-4.5-0.1-9-0.2-13.5,0c-3.3,0.1-4.7-2.1-6.3-4.2c-1-1.3,1.9-4.1,4.4-4.1c4.8-0.1,9.6-0.2,14.4,0
			c2.7,0.1,3.9-0.7,3.4-3.4c-1.2-7.1,1.5-12.3,6.9-16.9c5.6-4.7,10.5-10.2,15.6-15.5c1.1-1.2,1.9-3.1,1.9-4.8
			c0.2-8.9,0.2-17.7,0-26.6c0-2.3,0.6-4,2.3-5.6c8.3-8.1,16.5-16.4,24.7-24.6C569.1,164.9,569.8,164.1,570.6,163.1z"/>
		<path class="st1" d="M399.7,433.8c2,2.2,4,4.5,6.2,6.6c2.6,2.6,8,2.6,10.7,0c6.7-6.7,13.5-13.3,20.1-20.1c1.9-1.9,3.7-3.1,6.4-2.6
			c3.2,0.5,5.7-0.5,7.7-3.2c2.9-3.8,6.4-6,11.5-5.2c1.2,0.2,2.8-1,3.8-2c10.8-10.7,21.5-21.4,32.2-32.2c1.6-1.7,3.1-2.2,5.4-1.4
			c2.7,1,5.5,1.6,8.2,2.4c4.8,1.4,6.9,4.3,6.9,9.3c0,0.7,0.1,1.4,0,2.1c-1,6.9,0.6,12.6,6.6,16.7c0.8,0.6,1.5,1.9,1.5,2.8
			c0.1,13,0.1,26.1,0.1,39.4c-2.9-1.1-5.5-2.1-8.1-3.1c-0.2,0.3-0.3,0.6-0.5,0.9c2.6,1.4,5.3,2.8,8.5,4.6c0,0.2,0.1,1.3,0.1,2.4
			c0,11.3,0,22.6,0,33.9c0,2.3-0.7,4-2.3,5.6c-2.2,2.1-4.1,4.5-6.4,7c-1.8-1.6-3-2.8-4.2-4c-4.5-4.5-8.9-9-13.5-13.3
			c-1-0.9-2.6-1.2-4-1.7c-0.2-0.1-0.4,0-0.6,0c-9-1.5-15.7,1.8-21.7,8.7c-7.6,8.8-16.4,16.8-24.7,24.9c-1.9,1.9-3,3.8-2.6,6.4
			c0.5,3.1-0.6,5.4-3,7.5c-3.6,3.2-6.8,6.8-10.3,10c-1,0.9-2.4,1.7-3.7,1.7c-8.5,0.2-16.9,0.1-25.4,0.1c-0.4,0-0.7-0.1-1.4-0.2
			c2.3-2.6,4.5-4.9,6.5-7.3c6.8-8.5,10.5-18.4,11.9-29.1c0.1-1-0.1-2.3-0.8-3c-12.6-13.7-18.2-30.4-20.7-48.3
			c-0.6-4.5-0.9-9.1-1.4-13.7c-0.1-0.8,0-1.5,0-2.3C399.1,434.1,399.4,433.9,399.7,433.8z"/>
		<path class="st1" d="M147.6,439.1c6.9-3.5,13.9-4.2,20.8-5.3c13.5-2.1,25.6,1.4,36.9,8.6c0.9,0.5,2.7,0.8,3.3,0.2
			c7.9-6.3,16.9-10.6,25.9-14.8c0.8-0.4,1.6-0.8,3.1-1.5c-2-1.3-3.5-2.5-5.2-3.5c-10.9-6.5-22.8-9.6-35.5-9.8
			c-2.9-0.1-4.3-0.8-3.7-3.8c1.4-7.9-1.4-13.8-7.7-18.7c-3.9-3.1-7.3-6.9-10.6-10.6c-1.1-1.3-2.3-3.4-2.1-5
			c0.9-6.8-1.6-11.6-6.7-16.1c-7.1-6.3-13.6-13.2-20.1-20c-1.1-1.1-1.3-3-1.9-4.5c-0.1-0.2,0-0.4,0-0.6c1.8-9.5-1.8-16.7-9.3-22.6
			c-4.8-3.7-8.8-8.4-13-12.9c-1.2-1.3-2.1-3.3-2.1-5c-0.2-6.6,0.1-13.3-0.2-19.9c-0.1-3.5,2.3-5,4.4-6.8c0.3-0.3,2.2,0.5,2.9,1.2
			c11.4,11.3,22.8,22.7,34.2,34.1c16,16,32,32,48,48c1.9,1.9,3.1,3.7,2.7,6.4c-1.6,9.2,1.3,16.4,9,21.8c6.2,4.3,8.4,10.1,7.5,17.6
			c-0.6,4.8,0,9.8-0.2,14.7c-0.1,2.6,0.7,4.5,2.6,6.4c9.4,9.2,18.6,18.6,28,27.8c1.6,1.5,2,3.2,2.3,5.3c1,7.2-1.3,12.6-7.1,17.2
			c-4.2,3.3-7.8,7.4-11.5,11.4c-1.1,1.2-1.8,3.1-1.9,4.8c-0.3,3.3-0.1,6.7-0.1,10.1c0.1,1.8-0.4,2.8-2.5,3c-5,0.5-8.8,2.9-11.2,7.5
			c-0.3,0.5-0.6,1.1-1.1,1.5c-1.8,1.2-11.8,0.3-13.1-1.4c-4-5.6-9.3-7.5-15.9-6.4c-0.2,0-0.4,0-0.6,0c-4.9-0.1-10.4,1.2-14.5-0.7
			c-4.5-2.1-7.8-6.9-11.5-10.8c-0.9-0.9-1.4-2.5-1.4-3.8c-0.1-6.5,0.1-13-0.1-19.6c-0.1-1.5-0.8-3.4-1.9-4.5
			C160.5,451.7,154.2,445.6,147.6,439.1z"/>
		<path class="st1" d="M271.7,497.9c-3-3.1-5.6-5.8-8.1-8.6c-0.6-0.7-0.9-2-0.9-3.1c0-26.1-0.1-52.2,0.1-78.3c0-1.5,1.1-3.6,2.4-4.6
			c4.7-3.6,7-8.2,5.7-14c-1.7-7.6,3.2-11.8,8-16.1c2.1-1.8,9.6-1.1,11.7,1c10.8,10.8,21.7,21.6,32.4,32.5c2,2,4,3.1,6.7,2.6
			c3.9-0.8,6.4,1.4,8.1,4.2c3,4.8,4.5,10.1,5.5,15.8c0.9,5.3,2,10.8,6.1,15.1c9.5,10.1,15.8,21.9,18.2,35.6c0.2,1.2,0.4,2.4,0.4,3.6
			c-0.2,17.4-0.4,34.8-0.6,52.3c0,0.6-0.1,1.2-0.2,2c-5.1,0.3-10,1.3-13.8-3.7c-2.4-3.2-5.6-5.9-8.6-8.7c-1.6-1.5-2.5-3.1-2.2-5.4
			c0.6-3.7-0.9-6.2-3.6-8.8c-10.4-10.1-20.5-20.4-30.8-30.6c-1.1-1.1-3.1-1.7-4.8-2c-9-1.6-16.1,1.2-21.6,8.7
			C279.2,491.2,275.5,494.1,271.7,497.9z"/>
		<path class="st1" d="M645.3,427.2c-7.5,0-15,0-23.1,0c2.4-2.5,4.6-4.8,6.9-6.9c1.7-1.6,2.5-3.3,2.4-5.6c-0.2-3.6-0.3-7.2,0-10.7
			c0.4-4-0.7-7.1-4-9.5c-1.9-1.4-2.5-3.3-2.3-5.6c0.1-1.5,0.5-2.3,2.1-2.2c4.8,0,9.6,0,14.4,0.1c0.7,0,1.6,0.4,2.2,0.9
			c3,2.9,6,5.8,8.8,8.9c0.7,0.7,1,2,1.1,3c0.2,2.4-0.2,4.9,0.1,7.3c0.6,5.2-0.4,9.6-4.9,12.9c-0.9,0.7-1.5,2.6-1.3,3.8
			c1.1,7.1-1.6,12.3-7.1,16.9c-6.3,5.4-11.8,11.5-17.5,17.5c-1.1,1.2-1.9,3.1-2,4.7c-0.2,6.4,0,12.8-0.2,19.3c0,1.5-0.8,3.2-1.8,4.3
			c-3,3.3-6.2,6.5-9.5,9.5c-1,0.9-2.6,1.6-4,1.6c-6.1,0.2-12.2,0.2-18.3,0c-2.6-0.1-4.8,0.4-6.4,2.6c-3.3,4.7-7.8,6-13.4,5.7
			c-9.9-0.5-10-0.1-16.6-7.5c-0.8-0.9-1.3-2.3-1.4-3.5c-0.2-3.6-0.2-7.1,0-10.7c0.2-2.6-0.8-4.4-2.6-6.1c-5.4-5.2-10.8-10.6-16-16
			c-1-1-1.6-2.7-1.8-4.2c-1.4-7.6,1.3-13.4,7.3-18.6c8.1-7.1,15.4-15.2,23.1-22.7c1.7-1.6,2.3-3.3,2.3-5.6c-0.1-7.4-0.2-14.9,0-22.3
			c0-1.7,1-3.6,2-5.1c3.3-4.8,8.2-6.6,13.7-7.5c12.2-1.9,24.3-4,36.5-6c0.8-0.1,1.6,0,2.5,0c0.5,4.4,1,8.2-3,11.7
			c-5.4,4.7-10.3,9.9-15.2,15.1c-1.1,1.1-1.8,2.9-1.9,4.5c-0.2,4.9-0.2,9.8,0,14.7c0.1,1.4,0.8,3.1,1.8,4.2c3.4,3.6,7.1,7,11.2,11
			c-24.5,8-47,20.3-73.3,20.2c1.8,3.3,4.3,5.4,7.2,7.1c6.1,3.5,12.9,4.1,19.6,2.8c11.3-2.3,22.3-5.5,33.6-7.7
			c6.2-1.2,12.7-1.4,19.1-1.8c1.7-0.1,2.7-0.5,3.7-1.9c5.5-8.2,12.3-14.9,21.3-19.2c1.5-0.7,3.2-1.2,4.8-1.8
			C645.4,428.1,645.4,427.7,645.3,427.2z"/>
		<path class="st1" d="M723.5,153.2c-9.7-9.4-18.8-18.4-27.9-27.3c0.1-0.3,0.3-0.6,0.4-0.9c1.8,0.2,3.9-0.2,5.5,0.6
			c15.4,7.5,29.8,16.4,40.8,29.9c5.9,7.2,9.9,15.4,11.1,24.7c0.2,1.8,0,3.6,0,5.4c10.1,5.2,20.1,10.8,28.8,18.4
			c4.6,4,8.7,8.3,10.3,14.4c0.5,1.8,0.2,3-1.4,4.2c-8.1,6.1-16.8,9.9-27.3,9.5c-12-0.5-24.1,0.5-36-2c-4.2-0.9-8.3-1.9-12.3-3.5
			c-3.3-1.3-6.4-2-9.7-0.8c-5.4,1.9-9.6,0.2-12.7-3.8c0.2-2.6,0.4-5,0.6-7.5c-7.3-0.4-14-0.8-21.1-1.1c2.2-5.6,8.4-9.9,13.2-10
			c2,0,4-0.2,5.5-0.3c-0.4-3.2-0.9-5.5-0.9-7.9c-0.1-10.3-0.1-20.6,0-30.9c0-2.4-0.7-3.2-3.2-3.5c-5.3-0.5-9.3,0.9-12.8,5.1
			c-2.9,3.5-6,7.6-9.9,9.3c-3.9,1.6-9,0.5-13.6,0.6c-1.8,0-3.6,0-5.5,0c1.8-6.1,3.3-7.5,9-7.1c4.9,0.4,8.7-1,11.6-4.9
			c1-1.4,2.4-2.5,3.7-3.7c5.6-5.6,5.6-5.6,13.5-6.8c-0.8-0.9-1.4-1.7-2-2.3c-3-3-6.1-6-9.1-9.1c-2.3-2.4-2.3-5,0.3-6.7
			c4.5-2.9,9.2-5.5,13.9-8.2c1.9-1.1,3.4-0.7,5.1,1c7.5,7.7,15.2,15.1,22.6,22.8C716.4,153.5,719,154.4,723.5,153.2z"/>
		<path class="st1" d="M224.2,515.6c4.6,0.3,6.3,4.2,9.3,6.3c5.5,4.1,7.8,9.3,6.6,16.1c0,0.1,0,0.2,0,0.3c1,5.5-1,9.7-5.4,12.9
			c-2.3,1.6-3.1,3.8-2.8,6.6c0.2,2.7,0.1,5.5,0.1,8.3c0,6.3-2.8,9-9.1,9c-11.4,0-22.8,0-34.2,0c-2.2,0-3.8-0.6-5.4-2.2
			c-7.6-7.8-15.4-15.4-23-23.2c-1.1-1.2-1.9-3.1-1.9-4.8c-0.2-6.1-0.2-12.2,0-18.3c0.1-2.5-0.7-4.2-2.5-5.8c-3.2-3-6.1-6.3-9.4-9.2
			c-1.8-1.6-2.6-3.4-2.5-5.9c0.2-6,0-12,0.1-18c0.1-2.2-0.6-3.8-2.2-5.4c-5.6-5.4-11.1-10.9-16.4-16.5c-1.1-1.1-1.7-3-1.9-4.5
			c-0.3-3.1-0.2-6.3,0-9.5c0.1-1.1,0.8-2.6,1.7-3.1c4.3-2.4,8.7-4.6,13.2-6.6c0.9-0.4,2.6,0,3.3,0.7c5,4.8,9.9,9.7,14.7,14.7
			c0.9,1,1.5,2.7,1.5,4c0.1,7.7,0,15.5,0.2,23.2c0,1.6,0.8,3.6,1.9,4.8c6.6,6.9,13.4,13.7,20.3,20.3c1.2,1.1,3.2,1.9,4.8,1.9
			c11.6,0.2,23.2,0.1,34.9,0.1C222.7,511.8,225.1,511.7,224.2,515.6z"/>
		<path class="st1" d="M471.9,110.9c2.4-16.7,1.4-33-5.4-48.9c3.4,3.5,6.8,6.9,10.3,10.4c2.8,2.8,9.8,3,12.4,0.1
			c2.3-2.6,4.8-3.3,8.1-3.2c7.5,0.2,15.1,0.1,22.6,0c2.4,0,4.4,0.5,5.9,2.5c1.5,2.1,3.6,2.6,6.1,2.6c14.2-0.1,28.3,0,42.5-0.1
			c2.6,0,4.4,0.7,6.2,2.6c3.5,3.7,7.3,7.1,10.7,10.9c1.2,1.3,1.8,3.3,2.2,5c0.4,1.7,0.3,3.5,0,5.2c-0.3,1.7-0.9,3.6-2,4.8
			c-12,12.2-24.1,24.3-36.3,36.3c-1.2,1.1-3.1,2-4.8,2c-8.5,0.2-16.9,0.2-25.4,0c-1.5,0-3.3-0.7-4.3-1.7
			c-5.9-5.6-11.5-11.5-17.4-17.2c-1.7-1.6-1.5-2.7,0.1-4.2c2.2-2,4.2-4.2,6.3-6.2c1.1-1.1,1.2-1.9,0.1-3c-2.1-2-3.9-4.2-6.1-6
			c-0.9-0.8-2.4-1.2-3.6-1.2c-4.6-0.1-9.2-0.2-13.8,0c-1.6,0.1-3.4,1-4.8,2c-2.2,1.8-4,4-6.1,6c-0.8,0.8-1.9,1.3-2.8,2
			C472.3,111.3,472.1,111.1,471.9,110.9z"/>
		<path class="st1" d="M611.9,513.5c1.7,4.6,4.8,4.8,8.4,3.6c5.3-1.9,10.5-3.9,15.7-5.8c2.9-1.1,5.9-2,8.9-3
			c0.2,0.2,0.3,0.5,0.5,0.7c-0.6,0.7-1.1,1.4-1.8,2.1c-3.5,3.5-7.1,7-10.5,10.7c-0.9,1-1.6,2.6-1.6,4c-0.2,6.5,0,13-0.2,19.5
			c0,1.5-0.8,3.4-1.9,4.5c-7.7,7.9-15.4,15.7-23.3,23.3c-1.2,1.1-3.1,2-4.8,2c-12.1,0.2-24.2,0.1-36.4,0.1c-3.9,0-7.1-3.3-7.1-7.1
			c0-3.7,0.2-7.3-0.1-11c-0.1-1.7-1.2-3.2-1.9-4.8c-0.3-0.5-0.8-1-1.3-1.3c-5.5-3.3-5.4-8.6-4.8-14c0.1-0.9,1.4-1.9,2.5-2.3
			c7.3-3,14.7-5.9,22.1-8.8c0.3-0.1,0.6-0.5,1.6-1.2c-6.1-1.5-11.7-2.9-17.6-4.4c2.7-2.7,5.2-5.4,7.9-7.8c0.7-0.6,2.1-0.5,3.2-0.5
			c11.7,0,23.4,0.1,35.1-0.1c1.6,0,3.6-0.8,4.8-2c6.8-6.6,13.4-13.4,20.2-20c1.6-1.6,2.2-3.2,2.1-5.4c-0.1-7.5-0.2-15.1,0-22.6
			c0-1.6,0.8-3.6,2-4.8c8.1-8.3,16.5-16.4,24.5-24.8c2.5-2.5,4.9-2.7,8.1-1.8c0,10.8,0.1,21.4-0.1,32.1c0,1.1-1,2.4-1.9,3.3
			c-5.5,5.6-11.1,11-16.5,16.7c-1,1.1-1.7,2.9-1.8,4.5c-0.3,3.5-0.2,7.1,0,10.7c0.1,2-0.7,2.7-2.6,3.3c-7.9,2.5-15.8,5.1-23.7,8
			C616.7,510,614.4,512,611.9,513.5z"/>
		<path class="st1" d="M602.3,645.9c-6.5,0.9-11.3,3.6-15.7,7.3c-1.1,0.9-3.2,0.6-4.9,0.7c-4.7,0.3-8.5-1.4-11.3-5.2
			c-2.2-3.1-5.1-4.5-9-3.8c-8.1,1.5-14.1-1.5-19.3-7.8c-4.2-5.2-9.5-9.5-14.1-14.4c-1.8-2-3.8-2.9-6.4-2.5c-3.1,0.5-5.4-0.7-7.5-3
			c-2.5-2.8-5.4-5.3-7.9-8.1c-1-1.1-1.7-2.8-1.7-4.3c-0.1-4.9-1.2-10.3,0.5-14.5c1.6-4.1,6.2-7.1,9.6-10.5
			c9.8-9.8,19.6-19.6,29.4-29.4c2.9-2.9,6.4-2.6,8.1,1.1c1.1,2.4,1.8,5.3,1.6,7.9c-0.6,9.7,0,19.3,2.3,28.8c0.2,0.8,0,2.1-0.5,2.7
			c-2.1,2.3-4.5,4.4-6.8,6.8c-10.3-9-22.6-8-35-6.7c0.7,4.9,2.4,6.6,7,6.9c12.8,1,25.6,1.9,38.3,3c0.9,0.1,2.1,0.8,2.6,1.6
			c8.7,15.9,21.8,27.7,35.5,39.1C598.6,642.9,600.2,644.1,602.3,645.9z"/>
		<path class="st1" d="M235.8,572.7c0-5.2-0.1-10.7,0.1-16.1c0.1-1.8,0.8-3.6,1.6-5.2c1.5-2.9,5.1-4.1,8.1-1
			c12.5,12.8,25.2,25.2,37.7,37.9c1.1,1.1,1.8,3,1.9,4.5c0.2,4.8,1.2,10-0.5,14.2c-1.6,4-6.2,6.8-9.3,10.3c-2,2.3-4.3,3.4-7.2,2.9
			c-2.9-0.5-4.9,0.8-6.9,2.9c-6.5,6.7-13.1,13.4-19.9,19.8c-1.2,1.1-3.1,1.5-4.7,2c-0.9,0.3-2,0.2-3,0c-7.1-1-13.2,0.5-17.5,6.9
			c-0.5,0.7-1.4,1.3-2.3,1.4c-7.7,1.3-15.4,1.8-22.9-0.9c-1.7-0.6-3.8-2.2-4.2-3.7c-0.3-1.2,1.5-3.3,2.9-4.4
			c12.8-10.4,25.3-21,34.3-34.9c3.7-5.7,6.3-12.3,9-18.6c0.9-2.2,1.9-2.9,4.1-2.9c8.9,0.1,17.5-1.1,25.4-5.3c3.8-2,4.1-2.5,3.3-6.7
			c-0.1-0.6-0.3-1.2-0.4-1.8c-1-4.3-1.2-4.6-5.5-4.1C251.9,570.7,244.2,571.7,235.8,572.7z"/>
		<path class="st1" d="M578.3,364.6c0-4.1-0.1-7.7,0.1-11.4c0-0.9,0.9-1.8,1.6-2.5c24.2-24.2,48.2-48.5,72.7-72.4
			c4-3.9,10.2-5.8,15.4-8.4c0.4-0.2,2,1,2.1,1.6c0.1,7.8,0.2,15.7,0,23.5c0,1-1.1,2.1-1.9,3c-6.7,6.8-13.5,13.6-20.3,20.3
			c-1.6,1.5-2.6,3.1-2.2,5.3c1.7,9.6-1.4,17.2-9.5,22.8c-0.3,0.2-0.5,0.4-0.7,0.6c-4.5,6.2-9.9,8.5-17.9,6.9
			c-4.8-1-10.5,0.7-15.5,2.1c-6.8,1.9-13.4,4.8-20.1,7.2C580.9,363.6,579.8,364,578.3,364.6z"/>
		<path class="st1" d="M514,9.6c9,3,17.5,5.5,25.8,8.6c19.7,7.5,38,17.6,54.9,30.1c4.5,3.4,5.2,8.5,7.2,13.1
			c0.7,1.6-3.8,5.2-6.2,5.2c-4.3,0.1-8.5,0-12.8,0c-10.9,0-21.8,0.1-32.7-0.1c-1.8,0-4-1-5.3-2.2c-9.7-9.5-19.3-19-28.7-28.7
			c-1.1-1.2-2-3.1-2-4.7C513.9,24.1,514,17.3,514,9.6z"/>
		<path class="st1" d="M572.8,259.4c3.5-3.5,6.3-6.6,9.5-9.1c1.3-1,3.7-0.3,5.6-0.8c1.8-0.4,3.8-0.9,5-2.1
			c3.8-3.4,7.2-7.2,10.9-10.7c0.9-0.9,2.5-1.5,3.7-1.6c6.9-0.1,13.8-0.1,20.8-0.1c3.3,0,9,5.6,9,8.9c0.1,4.2,0.1,8.4-0.1,12.5
			c0,1-0.9,2.4-1.8,3c-2.6,1.6-5.4,2.9-8.2,4.3c-0.7,0.3-1.6,0.4-2.4,0.3C607.9,262.6,590.9,261,572.8,259.4z"/>
		<path class="st1" d="M135.7,406.2c-1.7-6.5,1.7-10.6,6-14.9c3.5-3.4,6.9-5.3,11.7-4.7c2.4,0.3,4.9,0,7.3,0.1
			c1.1,0.1,3.1,0.3,3.2,0.8c0.3,1.6,0,3.4-0.2,5c0,0.2-0.2,0.4-0.4,0.5c-5.6,3.5-5.6,9-5.4,14.8c0.3,7.5,0.1,7.5-7.4,8.8
			c-2.6,0.5-5.2,0.9-7.8,1.4c-4.2,0.8-7.1-1.5-7.1-5.7C135.7,410.2,135.7,408.2,135.7,406.2z"/>
		<path class="st1" d="M688.2,596.3c0.8-4.5,1.5-9.3,2.5-13.8c1.8-7.7,3.9-15.3,5.8-23c0.5-2,1.5-3,3.6-2.7c0.7,0.1,1.5,0.1,2.1,0
			c8.2-1.8,12.6,3.5,16.8,8.7C708.8,575.8,698.5,586,688.2,596.3z"/>
		<path class="st1" d="M571.7,228.6c0.7-0.7,1.3-1.5,2-2.2c6.8-6.9,13.7-13.7,20.5-20.6c1.6-1.7,3.2-2.8,5.8-2.6
			c2.4,0.1,4.8-0.4,8-0.8c-1,1.2-1.5,1.9-2.1,2.5c-7.7,7.7-15.4,15.5-23.1,23.1c-3.3,3.3-7.2,0.8-10.8,1.3
			C571.8,229.1,571.7,228.8,571.7,228.6z"/>
		<path class="st1" d="M440,44.7c6.4,0,12.2-0.1,18.1,0.1c2.3,0.1,6.1,4.9,6.1,7.2c0.1,2.1,0,4.2,0,7c-2.5-1.9-4.1-3.5-6-4.5
			c-2.8-1.4-5.7-2.7-8.7-3.4C443.8,49.9,443.8,50.2,440,44.7z"/>
	</g>
</g>
<g id="图层_2_x5F_复制">
	<g>
		<path class="st2" d="M524.6,55.3l62.7,30.1l124,86.7l51.5,65.4l-42.9,512.5l-3.9,0.3l-633.3,2.4L167,280.5L192.6,174L524.6,55.3
			 M526.9,12L158.7,143.6l-30.9,128.7L37.1,780.7l20,12l660.5-2.5l39.4-2.9L804,225.1l-64.9-82.4L607.5,50.8L526.9,12L526.9,12z"/>
	</g>
</g>
<g id="图层_2">
	<g>
		<path class="st3" d="M511.2-4.4C511.2-4.4,511.2-4.4,511.2-4.4L511.2-4.4c0,0-0.1,0-0.1,0l0,0c-0.1,0-0.3,0.1-0.6,0.2l0,0
			c0,0,0,0,0,0l0,0c0,0,0,0,0,0l0,0c0,0,0,0,0,0l0,0c0,0-0.1,0-0.2,0.1l0,0c0,0,0,0,0,0l0,0c0,0,0,0,0,0l0,0c0,0,0,0,0,0l0,0
			c0,0,0,0,0,0l0,0c0,0,0,0-0.1,0l-0.1,0c0,0,0,0-0.1,0l0,0c0,0,0,0,0,0l0,0c0,0,0,0,0,0l0,0c0,0,0,0,0,0l0,0c0,0,0,0-0.1,0l0,0
			c0,0,0,0,0,0l0,0c0,0,0,0,0,0l0,0c0,0,0,0,0,0l-0.2,0.1c0,0,0,0,0,0l-73.3,26.2l13.5,37.7L509,38.9l59,28.4l17.3-36.1L513.2-3.4
			l-0.9,1.9L511.2-4.4L511.2-4.4L511.2-4.4z M417.1,29.3l-21.7,7.8c0,0,0,0,0,0l-0.1,0c0,0,0,0,0,0l0,0c0,0,0,0-0.1,0l-0.1,0
			c0,0-0.1,0-0.1,0l-0.1,0c0,0-0.1,0-0.1,0l0,0c-0.1,0-0.1,0-0.2,0.1l0,0c-0.1,0-0.3,0.1-0.4,0.1l0,0c-0.3,0.1-0.5,0.2-0.8,0.3l0,0
			c-22.1,7.9-51.5,18.4-51.5,18.4l13.5,37.7L430.5,67L417.1,29.3L417.1,29.3z M322.9,63l-75.3,26.9l13.5,37.7l75.3-26.9L322.9,63
			L322.9,63z M228.7,96.6L228.7,96.6C228.7,96.6,228.7,96.6,228.7,96.6L228.7,96.6C228.7,96.6,228.7,96.6,228.7,96.6L228.7,96.6
			C228.7,96.6,228.7,96.6,228.7,96.6L228.7,96.6C228.7,96.6,228.7,96.6,228.7,96.6L228.7,96.6C228.7,96.6,228.7,96.6,228.7,96.6
			L228.7,96.6C228.7,96.6,228.7,96.6,228.7,96.6L228.7,96.6C228.7,96.6,228.7,96.6,228.7,96.6L228.7,96.6
			C228.7,96.6,228.7,96.6,228.7,96.6L228.7,96.6c-0.1,0-0.1,0-0.1,0l0,0c0,0,0,0-0.1,0l0,0c0,0,0,0,0,0l0,0c0,0,0,0,0,0l0,0
			c0,0,0,0-0.1,0l0,0c0,0,0,0-0.1,0l0,0c0,0,0,0-0.1,0l0,0c0,0,0,0,0,0h0c0,0,0,0,0,0l0,0c0,0-0.1,0-0.1,0l0,0c0,0,0,0,0,0l0,0
			c0,0,0,0,0,0l0,0c0,0,0,0,0,0l-0.2,0.1c0,0,0,0,0,0l0,0c0,0,0,0,0,0l0,0c0,0,0,0,0,0l0,0c0,0,0,0,0,0l0,0c0,0,0,0,0,0l0,0
			c0,0,0,0,0,0l0,0c0,0,0,0,0,0l0,0c0,0,0,0,0,0l0,0c0,0,0,0,0,0l-0.1,0c0,0,0,0,0,0l0,0c0,0,0,0,0,0l0,0c0,0,0,0,0,0l0,0
			c0,0,0,0,0,0l0,0c0,0-0.1,0-0.1,0l-0.1,0c0,0,0,0,0,0l-0.3,0.1c0,0,0,0,0,0l-73.3,26.2l6,16.9L141,136c0,0-3.8,16-8,33.4l0,0
			c-0.1,0.2-0.1,0.4-0.2,0.7l0,0c0,0,0,0.1,0,0.1l-10.4,43.5l38.9,9.3l15.7-65.5l65.3-23.3L228.7,96.6L228.7,96.6z M117.6,233.3
			l-3.3,13.9c0,0,0,0,0,0.1l0,0.1c0,0,0,0,0,0l0,0c0,0,0,0.1,0,0.1l0,0c0,0,0,0,0,0l0,0c0,0,0,0,0,0l-0.1,0.3c0,0,0,0,0,0l-0.1,0.5
			c0,0,0,0,0,0l-0.1,0.5c0,0,0,0,0,0l0,0c0,0,0,0,0,0l0,0.1c0,0.1,0,0.1,0,0.2l0,0.1c0,0,0,0,0,0.1l0,0c0,0,0,0.1,0,0.1l0,0
			c0,0.1,0,0.1,0,0.2l0,0c0,0,0,0,0,0l0,0c0,0.1,0,0.1,0,0.2l0,0c0,0,0,0,0,0l0,0c0,0,0,0,0,0l0,0c0,0,0,0.1,0,0.1l0,0c0,0,0,0,0,0
			l0,0c0,0.1,0,0.1,0,0.2l0,0c0,0.1,0,0.1,0,0.2l0,0.1c0,0.1,0,0.1,0,0.2l0,0c0,0.1,0,0.1,0,0.2l0,0c0,0,0,0,0,0l0,0c0,0,0,0,0,0
			l0,0c0,0,0,0.1,0,0.1l0,0c0,0,0,0.1,0,0.1l0,0c0,0,0,0.1,0,0.1l0,0.1c0,0.1,0,0.1,0,0.2l0,0c0,0.1,0,0.1,0,0.2l0,0
			c0,0.1,0,0.2-0.1,0.3l0,0c0,0,0,0.1,0,0.1l0,0c0,0,0,0,0,0l0,0c0,0,0,0,0,0l0,0c-0.1,0.5-0.2,0.9-0.3,1.3l0,0c0,0.1,0,0.2-0.1,0.3
			l0,0c-0.1,0.3-0.1,0.6-0.2,0.8l0,0c-0.1,0.6-0.2,1-0.2,1l0,0l0,0l0,0c0,0,0,0.2-0.1,0.6l0,0c0,0,0,0,0,0l0,0c0,0.1,0,0.2-0.1,0.3
			l0,0c0,0.1,0,0.1,0,0.2l0,0c0,0,0,0.1,0,0.1l0,0c0,0,0,0,0,0.1l0,0.1c0,0,0,0,0,0l0,0c0,0,0,0.1,0,0.1l0,0c0,0,0,0.1,0,0.1l0,0
			c0,0,0,0.1,0,0.1l0,0.1c0,0,0,0,0,0l-9.6,53.8l39.4,7l9.8-54.6l5.2-21.5L117.6,233.3L117.6,233.3z M98.7,331.4l-14.1,78.8l39.4,7
			l14.1-78.8L98.7,331.4L98.7,331.4z M81.2,429.9l-14.1,78.8l39.4,7l14.1-78.8L81.2,429.9L81.2,429.9z M63.6,528.3
			c0,0-5.4,30.4-9.5,53.4l0,0c0,0.1,0,0.1,0,0.2l-0.1,0.5c0,0,0,0,0,0l-0.1,0.3c0,0,0,0,0,0l-4.3,24.3l39.4,7l14.1-78.8L63.6,528.3
			L63.6,528.3z M46,626.8l-5.8,32.8c0,0,0,0,0,0l0,0.2c0,0,0,0.1,0,0.1l0,0.1c0,0.2-0.1,0.4-0.1,0.6l0,0c-3.8,21.3-8,44.9-8,44.9
			l39.4,7l14.1-78.8L46,626.8L46,626.8z M28.4,725.2l-7,39.1l0,0l0,0l0,0l0,0l0,0l0,0l0,0l0,0l0,0l0,0l0,0l0,0l0,0l0,0l20,12l0,0
			c0,0,0.3,0,0.7,0l0,0c0,0,0,0,0,0l0,0c0.2,0,0.5,0,0.8,0l0,0c0.1,0,0.3,0,0.4,0h0c0,0,0,0,0.1,0l0,0c0,0,0,0,0,0l0,0
			c0,0,0,0,0.1,0l0,0c0,0,0,0,0.1,0h0c0,0,0,0,0,0l0.1,0c0,0,0,0,0,0h0c0,0,0,0,0,0l0,0c0,0,0,0,0.1,0l0.2,0c0,0,0,0,0,0l0.1,0
			c0,0,0,0,0.1,0l0,0c0,0,0,0,0,0l0,0c0,0,0,0,0,0l0.1,0c0,0,0,0,0,0l0,0c0,0,0,0,0,0l0,0c0,0,0,0,0,0l0.3,0c0,0,0,0,0,0l13.4-0.1
			l0-5.4l2.5,0.4l7-39.1L28.4,725.2L28.4,725.2z M158.2,735.9l-80,0.3l0.1,40l80-0.3L158.2,735.9L158.2,735.9z M258.2,735.5l-80,0.3
			l0.1,40c0,0,32.8-0.1,56.4-0.2l0,0c0.2,0,0.5,0,0.7,0l0.1,0h0l0.1,0c0,0,0.1,0,0.1,0l0,0c0,0,0,0,0.1,0l0.1,0c0,0,0,0,0,0l0.1,0
			c0,0,0,0,0,0l22.2-0.1L258.2,735.5L258.2,735.5z M358.2,735.2l-80,0.3l0.1,40c0,0,26.7-0.1,49.3-0.2l0.1,0c0,0,0.1,0,0.1,0l0.1,0
			c0.1,0,0.1,0,0.2,0l0,0c0,0,0,0,0.1,0l0.1,0c0,0,0,0,0.1,0l0.1,0c0,0,0,0,0.1,0l29.9-0.1L358.2,735.2L358.2,735.2z M458.2,734.8
			l-80,0.3l0.1,40c0,0,20.5-0.1,40.8-0.2l0.2,0c0,0,0,0,0,0l39-0.1L458.2,734.8L458.2,734.8z M558.2,734.4l-80,0.3l0.1,40
			c0,0,16.4-0.1,34.3-0.1l0.2,0c0,0,0,0,0,0l0.1,0c0,0,0,0,0.1,0l0,0c0,0,0.1,0,0.1,0l0.4,0c0,0,0,0,0,0l44.8-0.2L558.2,734.4
			L558.2,734.4z M658.2,734l-80,0.3l0.1,40c0,0,11.7,0,26.2-0.1l0,0c0.1,0,0.3,0,0.4,0l0,0c0.1,0,0.1,0,0.2,0l0,0c0,0,0.1,0,0.1,0
			l0.2,0c0,0,0,0,0.1,0l0.1,0c0,0,0.1,0,0.1,0l52.5-0.2L658.2,734L658.2,734z M711.2,651.1l-6.7,79.7l17.4,1.5l-21.5,1.6l-22.2,0.1
			l0.1,40l23.6-0.1l0,0l0,0l0,0l0,0l0,0l0,0l0,0l0,0l0,0l0,0l39.4-2.9l0,0l0,0l0,0l0,0l0,0l0,0l0,0l0,0l0,0l0,0l1.4-16.9l-2.7-0.2
			l-1.5-20.2l5.8,0.5l4-47.6c0,0,0-0.1,0-0.1l0,0c1.4-17,2.7-32.1,2.7-32.1L711.2,651.1L711.2,651.1z M740.1,753.9l-1.5-20.2l0,0
			L740.1,753.9L740.1,753.9L740.1,753.9z M719.6,551.5l-6.7,79.7l39.9,3.3l6.7-79.7L719.6,551.5L719.6,551.5z M727.9,451.8
			l-6.7,79.7l39.9,3.3c0,0,2.5-30.4,4.5-53.6l0,0c0-0.1,0-0.2,0-0.3l0,0c0,0,0,0,0-0.1l0,0c0,0,0,0,0-0.1l0,0c0,0,0-0.1,0-0.1l0,0
			c0,0,0-0.1,0-0.1l0-0.5c0,0,0,0,0,0l2.1-24.8L727.9,451.8L727.9,451.8z M736.2,352.2l-6.7,79.7l39.9,3.3c0,0,0.5-6,1.2-14.6l0,0
			c0-0.1,0-0.2,0-0.4l0,0c0-0.1,0-0.2,0-0.3l0-0.1c0,0,0,0,0,0l0-0.1c0,0,0,0,0,0l0-0.1c0,0,0,0,0-0.1l0,0c0,0,0,0,0-0.1l0,0
			c0-0.1,0-0.2,0-0.3l0-0.1c0,0,0,0,0-0.1l0,0c0-0.1,0-0.1,0-0.2l0,0c0,0,0,0,0-0.1l0-0.1c0,0,0-0.1,0-0.1l0-0.1c0,0,0,0,0,0l0-0.5
			c0,0,0,0,0,0l0-0.1c0,0,0,0,0-0.1l0,0c0,0,0-0.1,0-0.1l0,0c0,0,0,0,0,0l0-0.1l0,0l5.2-62.1L736.2,352.2L736.2,352.2z M744.6,252.5
			l-6.7,79.7l39.9,3.3l1.5-17.3c0,0,0,0,0,0l0,0c0,0,0,0,0-0.1l0,0c0,0,0,0,0-0.1l0,0c0,0,0,0,0-0.1l0,0c0-0.2,0-0.4,0-0.6l0,0
			c0,0,0-0.1,0-0.1l0,0c0,0,0-0.1,0-0.1l0,0c2-23.6,5.1-61.2,5.1-61.2L744.6,252.5L744.6,252.5z M755.8,167.3l-31.4,24.8l22.9,29
			l-1,11.5l10.7,0.9l0,0l0,0l0,0l0,0l0,0l29.1,2.4l2.2-26.2c0,0,0,0,0,0l0,0c0,0,0,0,0,0l0,0c0,0,0,0,0,0l0,0c0,0,0,0,0,0l0,0
			c0,0,0,0,0,0l0,0c0,0,0,0,0,0l0,0c0,0,0-0.1,0-0.1l0,0c0,0,0,0,0,0l0,0c0,0,0,0,0,0l0,0c0-0.1,0-0.1,0-0.1l0,0c0,0,0-0.1,0-0.1
			l0,0c0,0,0,0,0,0v0c0,0,0,0,0,0l0,0c0,0,0,0,0,0l0,0c0-0.2,0-0.3,0-0.3l0,0l0,0l0,0l0,0l0,0l0,0l0,0l0,0l0,0l0,0l0,0l0,0l0,0l0,0
			c0,0-0.1-0.2-0.4-0.5l0,0c-0.1-0.2-0.3-0.3-0.4-0.6l0,0c-0.1-0.2-0.3-0.3-0.4-0.5l0,0c0,0-0.1-0.1-0.1-0.1l0,0c0,0,0,0,0,0l0,0
			c0,0,0,0,0,0l0,0l0,0l0,0c0,0,0,0,0,0l0,0c0,0,0,0,0,0l0,0c0,0-0.1-0.1-0.1-0.1l0,0c0,0-0.1-0.1-0.1-0.1l0,0c0,0-0.1-0.1-0.1-0.1
			l0,0c-0.1-0.1-0.1-0.2-0.2-0.2l0,0c0,0-0.1-0.1-0.1-0.1l0,0c0,0-0.1-0.1-0.1-0.1l0,0c-0.1-0.2-0.3-0.3-0.4-0.5l0,0c0,0,0,0,0,0
			l0,0c0,0,0,0-0.1-0.1l0,0c0,0-0.1-0.1-0.1-0.1l0,0c0,0,0,0,0,0l0,0c0,0,0-0.1-0.1-0.1l0,0c0,0,0,0,0,0l-0.1-0.2c0,0,0,0,0,0l0,0
			c0,0,0,0,0,0l0,0c0,0,0,0,0,0l0,0l0,0l0,0c0,0,0,0,0,0l0,0c0,0,0,0,0,0l-0.1-0.1c0,0,0,0,0,0l-0.2-0.3c0,0,0,0,0,0l-0.1-0.1
			c0,0,0,0,0,0l0,0c0,0,0,0,0,0L755.8,167.3L755.8,167.3z M684.3,98.9l-22.9,32.8l34.3,24l16.3,20.6l31.4-24.8l-19.9-25.3l0,0l0,0
			l0,0l0,0l0,0l0,0l0,0l0,0l0,0l0,0l0,0l0,0l0,0c0,0-0.5-0.4-1.5-1l0,0c0,0-0.1,0-0.1-0.1l0,0c0,0-0.1,0-0.1-0.1l0,0
			c-0.1-0.1-0.3-0.2-0.4-0.3l0,0c-0.1-0.1-0.3-0.2-0.5-0.3l0,0c-0.2-0.1-0.3-0.2-0.5-0.3l0,0c-0.1-0.1-0.2-0.1-0.3-0.2l0,0
			c0,0-0.1-0.1-0.1-0.1l0,0c0,0,0,0-0.1,0l-0.1-0.1c0,0,0,0,0,0l0,0c0,0,0,0-0.1,0l0,0c0,0-0.1-0.1-0.1-0.1l0,0
			c-0.1,0-0.1-0.1-0.2-0.1l0,0c0,0,0,0-0.1,0l0,0c0,0,0,0-0.1,0l0,0c0,0,0,0-0.1,0l0,0c0,0,0,0-0.1,0l0,0c0,0,0,0,0,0l-0.1-0.1
			c0,0,0,0,0,0l0,0c0,0,0,0,0,0l0,0c0,0,0,0,0,0l0,0c0,0,0,0,0,0l-0.5-0.4c0,0,0,0,0,0l0,0c0,0,0,0,0,0l0,0c0,0,0,0,0,0l-0.1,0
			c0,0,0,0,0,0l-0.2-0.1l0,0L684.3,98.9L684.3,98.9z M602.3,41.7l-22.9,32.8l65.6,45.8l22.9-32.8c0,0-10.8-7.6-23.7-16.5l0,0
			c-0.2-0.2-0.5-0.3-0.7-0.5l0,0c-0.2-0.2-0.5-0.3-0.7-0.5l-0.1,0c-0.2-0.2-0.5-0.3-0.7-0.5l-0.1,0c0,0-0.1-0.1-0.1-0.1l-0.1,0
			c0,0-0.1-0.1-0.1-0.1l-0.1-0.1c0,0,0,0,0,0l-0.1-0.1c0,0,0,0,0,0L602.3,41.7L602.3,41.7z"/>
	</g>
</g>
</svg>
