<?xml version="1.0" encoding="utf-8"?>
<!-- Generator: Adobe Illustrator 23.0.6, SVG Export Plug-In . SVG Version: 6.00 Build 0)  -->
<svg version="1.0" id="图层_1" xmlns="http://www.w3.org/2000/svg" xmlns:xlink="http://www.w3.org/1999/xlink" x="0px" y="0px"
	 viewBox="0 0 128 128" style="enable-background:new 0 0 128 128;" xml:space="preserve">
<style type="text/css">
	.st0{fill:url(#SVGID_1_);}
	.st1{fill:#E75900;}
	.st2{fill:#242424;}
	.st3{fill:#368231;}
	.st4{opacity:0.5;}
	.st5{fill:#6D4C41;stroke:#6D4C41;stroke-miterlimit:10;}
	.st6{clip-path:url(#SVGID_3_);fill:#FF0044;}
	.st7{opacity:0.3;clip-path:url(#SVGID_5_);}
	.st8{fill:#1F0B08;}
	
		.st9{opacity:0.3;clip-path:url(#SVGID_7_);fill:none;stroke:#1F0B08;stroke-width:4;stroke-miterlimit:10;enable-background:new    ;}
	.st10{fill:url(#SVGID_8_);}
	.st11{fill:url(#SVGID_9_);}
	.st12{fill:#A3E2FF;}
	.st13{fill:#38A9FF;}
</style>
<linearGradient id="SVGID_1_" gradientUnits="userSpaceOnUse" x1="64" y1="110.162" x2="64" y2="22.42" gradientTransform="matrix(1 0 0 -1 0 130)">
	<stop  offset="0" style="stop-color:#FF5100"/>
	<stop  offset="0.1439" style="stop-color:#FE5D07"/>
	<stop  offset="0.4068" style="stop-color:#FD7E19"/>
	<stop  offset="0.7568" style="stop-color:#FBB337"/>
	<stop  offset="0.8772" style="stop-color:#FAC742"/>
</linearGradient>
<path class="st0" d="M64,119.7c-27.9,0-57.8-17.4-57.8-55.7S36.1,8.3,64,8.3c15.4,0,29.7,5.1,40.3,14.4
	c11.5,10.2,17.6,24.5,17.6,41.3c0,16.8-6.1,31.1-17.6,41.3C93.7,114.6,79.4,119.7,64,119.7z"/>
<path class="st1" d="M64,10.3c14.9,0,28.8,4.9,38.9,13.9c11.1,9.8,16.9,23.5,16.9,39.8c0,16.2-5.8,30-16.9,39.8
	c-10.2,9-24,14-38.9,14c-15,0-28.8-4.9-38.9-13.8C14,94.2,8.2,80.4,8.2,64c0-16.5,5.9-30.3,16.9-40C35.1,15.1,49,10.3,64,10.3
	 M64,6.3C32.9,6.3,4.2,26.2,4.2,64c0,37.6,28.8,57.7,59.8,57.7s59.8-20.7,59.8-57.7C123.8,26.7,95.1,6.3,64,6.3z"/>
<g>
	<path class="st2" d="M36.5,49.4c-0.3,0.1-0.6,0.2-0.9,0.2c0,0.4,0,0.7,0,1.1c0,6.1,4,9.8,8.3,9.8s8.3-3.7,8.3-9.8
		c0-2.8-0.9-5.2-2.2-6.8C45.4,45.7,41,47.7,36.5,49.4z"/>
	<path class="st2" d="M91.5,49.4c0.3,0.1,0.6,0.2,0.9,0.2c0,0.4,0.1,0.7,0.1,1.1c0,6.1-3.9,9.8-8.3,9.8s-8.3-3.7-8.3-9.8
		c0-2.8,0.9-5.2,2.2-6.8C82.6,45.7,87,47.7,91.5,49.4z"/>
</g>
<path class="st3" d="M103.9,122L103.9,122L103.9,122z"/>
<g class="st4">
	<path class="st5" d="M51.1,23.5c0,0,0,0.3,0,0.8c0,0.1,0,0.2,0,0.4c0,0.2-0.1,0.4-0.1,0.6s-0.1,0.4-0.2,0.7
		c-0.1,0.2-0.2,0.4-0.2,0.7c-0.2,0.5-0.4,1-0.7,1.4c-0.3,0.5-0.6,1-1,1.5c-0.4,0.5-0.8,1-1.2,1.4c-0.5,0.5-1,0.9-1.5,1.3
		c-0.5,0.4-1.1,0.7-1.7,1c-0.5,0.3-1.2,0.5-1.7,0.8c-0.6,0.2-1.2,0.4-1.7,0.5c-0.5,0.1-1.1,0.2-1.6,0.2c-0.5,0.1-0.9,0-1.3,0
		c-0.4,0-0.7,0-1-0.1c-0.6-0.1-0.9-0.2-0.9-0.2c-1-0.2-1.5-1.2-1.3-2.2c0.2-0.6,0.6-1.1,1.2-1.3l0.3-0.1c0,0,0.2-0.1,0.6-0.2
		c0.2,0,0.4-0.1,0.7-0.2c0.3-0.1,0.6-0.2,0.9-0.3c0.3-0.1,0.7-0.3,1-0.4c0.4-0.1,0.7-0.4,1.1-0.5c0.4-0.2,0.8-0.4,1.1-0.6
		c0.4-0.2,0.7-0.5,1.1-0.8c0.3-0.3,0.7-0.5,1-0.8c0.3-0.3,0.6-0.6,0.9-0.9c0.3-0.3,0.6-0.6,0.8-0.9c0.2-0.3,0.5-0.6,0.7-0.9
		c0.2-0.3,0.4-0.5,0.5-0.7c0.1-0.1,0.1-0.2,0.2-0.3c0.1-0.1,0.1-0.2,0.2-0.3c0.2-0.4,0.4-0.7,0.4-0.7c0.5-0.9,1.6-1.1,2.5-0.6
		C50.8,22.3,51.1,22.9,51.1,23.5L51.1,23.5z"/>
</g>
<g class="st4">
	<path class="st5" d="M80.3,22.6c0,0,0.2,0.2,0.4,0.7c0.1,0.1,0.1,0.3,0.2,0.3s0.1,0.2,0.2,0.3c0.1,0.2,0.3,0.4,0.5,0.7
		c0.2,0.3,0.4,0.6,0.7,0.9c0.2,0.3,0.5,0.6,0.8,0.9c0.3,0.3,0.6,0.6,0.9,0.9c0.3,0.3,0.7,0.6,1,0.8c0.4,0.3,0.7,0.5,1.1,0.8
		c0.4,0.2,0.8,0.5,1.1,0.6c0.4,0.2,0.7,0.4,1.1,0.5c0.4,0.1,0.7,0.3,1,0.4c0.3,0.1,0.6,0.2,0.9,0.3c0.3,0.1,0.5,0.2,0.7,0.2
		c0.4,0.1,0.6,0.2,0.6,0.2l0.3,0.1c0.9,0.3,1.5,1.3,1.2,2.2c-0.2,0.6-0.7,1-1.3,1.2c0,0-0.3,0.1-0.9,0.2c-0.3,0.1-0.6,0.1-1,0.1
		c-0.4,0-0.8,0-1.3,0c-0.5,0-1-0.1-1.6-0.2c-0.6-0.1-1.1-0.3-1.7-0.5c-0.6-0.2-1.2-0.5-1.7-0.8c-0.6-0.3-1.1-0.7-1.7-1
		c-0.5-0.4-1-0.8-1.5-1.3c-0.5-0.4-0.8-1-1.2-1.4c-0.4-0.5-0.7-1-0.9-1.5c-0.3-0.5-0.5-1-0.7-1.4c-0.1-0.2-0.2-0.4-0.2-0.7
		c-0.1-0.2-0.1-0.5-0.2-0.7s-0.1-0.4-0.1-0.6c0-0.2,0-0.3-0.1-0.4c0-0.5-0.1-0.8-0.1-0.8c0-1,0.8-1.8,1.8-1.9
		C79.3,21.7,79.9,22,80.3,22.6z"/>
</g>
<ellipse class="st2" cx="64" cy="89.5" rx="37" ry="13.5"/>
<g>
	<defs>
		<path id="SVGID_2_" d="M30,86.3v44.2H98V90c-15.3-10-54.8-10.5-67.3,2"/>
	</defs>
	<clipPath id="SVGID_3_">
		<use xlink:href="#SVGID_2_"  style="overflow:visible;"/>
	</clipPath>
	<path class="st6" d="M66.7,118.2h-3.3c-9.5,0-17.2-7.7-17.2-17.2V62.2H84v38.8C84,110.5,76.3,118.2,66.7,118.2z"/>
</g>
<g>
	<defs>
		<path id="SVGID_4_" d="M30,86.3v44.2H98V90c-15.3-10-54.8-10.5-67.3,2"/>
	</defs>
	<clipPath id="SVGID_5_">
		<use xlink:href="#SVGID_4_"  style="overflow:visible;"/>
	</clipPath>
	<g class="st7">
		<path class="st8" d="M80,66.2v34.8c0,7.3-5.9,13.2-13.2,13.2h-3.3c-7.3,0-13.2-5.9-13.2-13.2V66.2L80,66.2 M84,62.2H46.3v38.8
			c0,9.5,7.7,17.2,17.2,17.2h3.3c9.5,0,17.2-7.7,17.2-17.2L84,62.2C84,62.2,84,62.2,84,62.2z"/>
	</g>
</g>
<g>
	<defs>
		<path id="SVGID_6_" d="M30,86.3v44.2H98V90c-15.3-10-54.8-10.5-67.3,2"/>
	</defs>
	<clipPath id="SVGID_7_">
		<use xlink:href="#SVGID_6_"  style="overflow:visible;"/>
	</clipPath>
	<line class="st9" x1="65.1" y1="62.2" x2="65.1" y2="96.3"/>
</g>
<radialGradient id="SVGID_8_" cx="40.0526" cy="41.7251" r="19.4429" gradientTransform="matrix(0.9791 0 0 -0.9301 -11.9655 103.9685)" gradientUnits="userSpaceOnUse">
	<stop  offset="5.108200e-03" style="stop-color:#ED0E00"/>
	<stop  offset="0.1455" style="stop-color:#ED1709;stop-opacity:0.8431"/>
	<stop  offset="0.3791" style="stop-color:#ED2F23;stop-opacity:0.582"/>
	<stop  offset="0.6751" style="stop-color:#ED554C;stop-opacity:0.2513"/>
	<stop  offset="0.9" style="stop-color:#ED7770;stop-opacity:0"/>
</radialGradient>
<circle class="st10" cx="27.3" cy="65.2" r="17.5"/>
<radialGradient id="SVGID_9_" cx="115.1215" cy="41.7251" r="19.4424" gradientTransform="matrix(0.9791 0 0 -0.9301 -11.9655 103.9685)" gradientUnits="userSpaceOnUse">
	<stop  offset="5.108200e-03" style="stop-color:#ED0E00"/>
	<stop  offset="0.1455" style="stop-color:#ED1709;stop-opacity:0.8431"/>
	<stop  offset="0.3791" style="stop-color:#ED2F23;stop-opacity:0.582"/>
	<stop  offset="0.6751" style="stop-color:#ED554C;stop-opacity:0.2513"/>
	<stop  offset="0.9" style="stop-color:#ED7770;stop-opacity:0"/>
</radialGradient>
<circle class="st11" cx="100.8" cy="65.2" r="17.5"/>
<path class="st12" d="M14,89.6c-4.1,0-7.2-4-7.2-7.4c0-2.4,1.1-5.1,2.5-8.9l0.7-1.7c1.1-3,2.8-6.2,3.9-8.3c1,2.1,2.5,5.3,3.9,8.4
	c2.6,5.8,3.4,8.2,3.4,10.5C21.2,85.6,18.1,89.6,14,89.6z"/>
<path class="st13" d="M13.9,66.6c0.8,1.7,1.7,3.7,2.6,5.7c2.5,5.6,3.2,7.8,3.2,9.9c0,2.7-2.5,5.9-5.7,5.9s-5.7-3.2-5.7-5.9
	c0-2.1,1-4.7,2.4-8.4c0.2-0.6,0.4-1.1,0.7-1.7C12.1,70.3,13,68.3,13.9,66.6 M14,60c0,0-3.4,5.8-5.4,11c-1.8,4.8-3.3,8.1-3.3,11.2
	c0,4.3,3.9,8.9,8.7,8.9c4.8,0,8.7-4.6,8.7-8.9c0-2.7-0.9-5.3-3.5-11.2C16.7,65.5,14,60,14,60z"/>
<path class="st12" d="M21.8,42c-4,0-7.2-4-7.2-7.4c0-2.4,1.1-5.1,2.5-8.9l0.7-1.7c1.1-3,2.8-6.2,3.9-8.4c1,2.1,2.5,5.3,3.9,8.4
	c2.6,5.8,3.4,8.2,3.4,10.5C29,38,25.9,42,21.8,42z"/>
<path class="st13" d="M21.6,19c0.8,1.7,1.7,3.7,2.6,5.7c2.5,5.6,3.2,7.8,3.2,9.9c0,2.7-2.5,5.9-5.7,5.9s-5.7-3.2-5.7-5.9
	c0-2.1,1-4.7,2.4-8.4c0.2-0.5,0.4-1.1,0.7-1.7C19.9,22.7,20.8,20.7,21.6,19 M21.8,12.4c0,0-3.4,5.8-5.4,11
	c-1.8,4.8-3.3,8.1-3.3,11.2c0,4.3,3.9,8.9,8.7,8.9s8.7-4.5,8.7-8.9c0-2.7-0.9-5.3-3.5-11.1C24.5,17.9,21.8,12.4,21.8,12.4z"/>
<path class="st12" d="M116,75c-5.6,0-10-5.5-10-10.3c0-3.3,1.5-7.1,3.5-12.3c0.3-0.8,0.6-1.5,0.9-2.4c1.7-4.3,4.1-9.1,5.8-12
	c0.8,1.5,1.9,3.7,3.3,6.8c3.9,8.7,6.6,16.8,6.6,19.9C126,69.5,121.6,75,116,75z"/>
<path class="st13" d="M116.1,42.4c0.5,1,1,2.1,1.5,3.3c4.2,9.4,6.4,16.7,6.4,19.1c0,3.7-3.6,8.3-8,8.3c-4.4,0-8-4.5-8-8.3
	c0-2.9,1.4-6.5,3.3-11.6c0.3-0.8,0.6-1.6,0.9-2.4C113.3,47.9,114.8,44.9,116.1,42.4 M116.2,34c0,0-4.9,8.1-7.7,15.4
	c-2.5,6.6-4.5,11.2-4.5,15.4c0,6,5.4,12.3,12,12.3s12-6.3,12-12.3c0-3.8-3.1-12.6-6.7-20.7C117.8,36.3,116.2,34,116.2,34z"/>
</svg>
